<?xml version="1.0" encoding="UTF-8" standalone="no"?>
<svg
   width="512"
   height="512"
   viewBox="0 0 512 512"
   version="1.1"
   id="svg8"
   sodipodi:docname="the-observer.svg"
   inkscape:version="1.4 (86a8ad7, 2024-10-11)"
   xml:space="preserve"
   xmlns:inkscape="http://www.inkscape.org/namespaces/inkscape"
   xmlns:sodipodi="http://sodipodi.sourceforge.net/DTD/sodipodi-0.dtd"
   xmlns="http://www.w3.org/2000/svg"
   xmlns:svg="http://www.w3.org/2000/svg"><defs
   id="defs1"><filter
     style="color-interpolation-filters:sRGB;"
     inkscape:label="Drop Shadow"
     id="filter2"
     x="-0.0703125"
     y="-0.097442407"
     width="1.140625"
     height="1.1948848"><feFlood
       result="flood"
       in="SourceGraphic"
       flood-opacity="1.000000"
       flood-color="rgb(58,63,94)"
       id="feFlood1" /><feGaussianBlur
       result="blur"
       in="SourceGraphic"
       stdDeviation="15.000000"
       id="feGaussianBlur1" /><feOffset
       result="offset"
       in="blur"
       dx="0.000000"
       dy="0.000000"
       id="feOffset1" /><feComposite
       result="comp1"
       operator="out"
       in="flood"
       in2="offset"
       id="feComposite1" /><feComposite
       result="comp2"
       operator="atop"
       in="comp1"
       in2="SourceGraphic"
       id="feComposite2" /></filter></defs><sodipodi:namedview
   id="namedview1"
   pagecolor="#505050"
   bordercolor="#ffffff"
   borderopacity="1"
   inkscape:showpageshadow="0"
   inkscape:pageopacity="0"
   inkscape:pagecheckerboard="1"
   inkscape:deskcolor="#505050"
   inkscape:zoom="1.5917969"
   inkscape:cx="256"
   inkscape:cy="256"
   inkscape:window-width="1920"
   inkscape:window-height="1017"
   inkscape:window-x="-8"
   inkscape:window-y="-8"
   inkscape:window-maximized="1"
   inkscape:current-layer="svg8" />
   <path
   d="M0 0h512v512H0z"
   fill="#b90202"
   fill-opacity="1"
   id="path2"
   style="fill:#1b1f21;fill-opacity:1" />
     <g
   id="g35990"
   transform="matrix(0.94587399,0,0,0.94587399,13.856259,13.855786)"
   style="fill:#e64539;fill-opacity:1;filter:url(#filter2)">
	<path
   class="st0"
   d="m 425.797,130.088 c -12.509,0 -22.646,10.136 -22.646,22.629 v 15.163 l -62.255,12.053 c -22.642,0 -50.941,-14.16 -84.892,-14.16 -33.965,0 -62.259,14.16 -84.901,14.16 L 108.845,167.88 v -15.163 c 0,-12.493 -10.133,-22.629 -22.638,-22.629 -12.505,0 -22.637,10.136 -22.637,22.63 v 70.757 c 0,12.492 10.132,22.63 22.637,22.63 12.505,0 22.638,-10.137 22.638,-22.63 v -13.338 c 18.087,3.782 43.018,8.959 59.43,12.244 25.968,5.193 35.346,41.26 76.046,47.191 v 37.477 c -6.533,0.547 -11.68,5.964 -11.68,12.634 0,0.099 0.029,0.191 0.029,0.29 -23.036,9.257 -39.315,31.762 -39.315,58.107 0,34.598 28.046,62.645 62.645,62.645 34.599,0 62.645,-28.046 62.645,-62.645 0,-26.346 -16.279,-48.85 -39.314,-58.107 0,-0.1 0.029,-0.191 0.029,-0.29 0,-6.67 -5.148,-12.086 -11.68,-12.634 v -37.477 c 40.696,-5.932 50.082,-41.998 76.045,-47.191 16.407,-3.285 41.343,-8.461 59.426,-12.244 v 13.338 c 0,12.492 10.137,22.63 22.646,22.63 12.501,0 22.629,-10.137 22.629,-22.63 v -70.757 c 0,-12.494 -10.128,-22.63 -22.629,-22.63 z M 297.409,378.079 c 0,22.87 -18.539,41.409 -41.409,41.409 -22.87,0 -41.409,-18.54 -41.409,-41.409 0,-22.87 18.54,-41.409 41.409,-41.409 22.87,0 41.409,18.539 41.409,41.409 z"
   id="path35978"
   style="fill:#e64539;fill-opacity:1" />
	<rect
   y="90.992996"
   class="st0"
   width="172.414"
   height="29.556"
   id="rect35980"
   x="0"
   style="fill:#e64539;fill-opacity:1" />
	<rect
   x="339.577"
   y="90.992996"
   class="st0"
   width="172.423"
   height="29.556"
   id="rect35982"
   style="fill:#e64539;fill-opacity:1" />
	<path
   class="st0"
   d="m 86.207,71.276 c -7.142,0 -12.928,5.79 -12.928,12.94 h 25.86 c 0,-7.15 -5.795,-12.94 -12.932,-12.94 z"
   id="path35984"
   style="fill:#e64539;fill-opacity:1" />
	<path
   class="st0"
   d="m 425.797,71.276 c -7.15,0 -12.94,5.79 -12.94,12.94 h 25.864 c -10e-4,-7.15 -5.79,-12.94 -12.924,-12.94 z"
   id="path35986"
   style="fill:#e64539;fill-opacity:1" />
	<path
   class="st0"
   d="m 267.555,354.28 c -3.509,-1.7 -7.395,-2.745 -11.555,-2.745 -14.662,0 -26.544,11.887 -26.544,26.544 0,14.657 11.883,26.544 26.544,26.544 14.661,0 26.544,-11.887 26.544,-26.544 0,-3.584 -0.73,-7.001 -2.02,-10.12 -1.506,4.031 -5.317,6.934 -9.875,6.934 -5.864,0 -10.618,-4.753 -10.618,-10.618 10e-4,-4.76 3.198,-8.651 7.524,-9.995 z"
   id="path35988"
   style="fill:#e64539;fill-opacity:1" />
</g></svg>
