<?xml version="1.0" encoding="UTF-8" standalone="no"?>
<!-- Uploaded to SVGRepo https://www.svgrepo.com -->

<svg
   version="1.2"
   id="Layer_1"
   x="0px"
   y="0px"
   viewBox="0 0 512 512"
   xml:space="preserve"
   sodipodi:docname="backup_drive.svg"
   width="512"
   height="512"
   inkscape:version="1.4 (86a8ad7, 2024-10-11)"
   xmlns:inkscape="http://www.inkscape.org/namespaces/inkscape"
   xmlns:sodipodi="http://sodipodi.sourceforge.net/DTD/sodipodi-0.dtd"
   xmlns="http://www.w3.org/2000/svg"
   xmlns:svg="http://www.w3.org/2000/svg"><defs
   id="defs1"><filter
     style="color-interpolation-filters:sRGB;"
     inkscape:label="Drop Shadow"
     id="filter2"
     x="-0.070312946"
     y="-0.070312657"
     width="1.1406259"
     height="1.1406253"><feFlood
       result="flood"
       in="SourceGraphic"
       flood-opacity="1.000000"
       flood-color="rgb(58,63,94)"
       id="feFlood1" /><feGaussianBlur
       result="blur"
       in="SourceGraphic"
       stdDeviation="15.000000"
       id="feGaussianBlur1" /><feOffset
       result="offset"
       in="blur"
       dx="0.000000"
       dy="0.000000"
       id="feOffset1" /><feComposite
       result="comp1"
       operator="out"
       in="flood"
       in2="offset"
       id="feComposite1" /><feComposite
       result="comp2"
       operator="atop"
       in="comp1"
       in2="SourceGraphic"
       id="feComposite2" /></filter></defs><sodipodi:namedview
   id="namedview1"
   pagecolor="#505050"
   bordercolor="#ffffff"
   borderopacity="1"
   inkscape:showpageshadow="0"
   inkscape:pageopacity="0"
   inkscape:pagecheckerboard="1"
   inkscape:deskcolor="#505050"
   inkscape:zoom="1.5917969"
   inkscape:cx="256"
   inkscape:cy="256"
   inkscape:window-width="1920"
   inkscape:window-height="1017"
   inkscape:window-x="-8"
   inkscape:window-y="-8"
   inkscape:window-maximized="1"
   inkscape:current-layer="Layer_1" />

<path
   d="M 0,0 H 512 V 512 H 0 Z"
   fill="#b90202"
   fill-opacity="1"
   id="path902"
   style="fill:#1b1f21;fill-opacity:1"
   inkscape:label="background" /><path
   id="path4079"
   style="display:inline;fill:#e64539;fill-opacity:1;filter:url(#filter2)"
   class="st0"
   d="M 146.81826 0.00060264581 C 138.54826 0.00060264581 131.83692 6.7118091 131.83692 14.992809 L 131.83692 56.459504 L 167.31457 56.459504 L 167.31457 14.992809 C 167.31457 6.7118091 160.60206 0.00060264581 152.33106 0.00060264581 L 146.81826 0.00060264581 z M 217.77573 0.00060264581 C 209.50473 0.00060264581 202.79222 6.7118091 202.79222 14.992809 L 202.79222 56.459504 L 238.26116 56.459504 L 238.26116 14.992809 C 238.26116 6.7118091 231.54983 0.00060264581 223.27983 0.00060264581 L 217.77573 0.00060264581 z M 288.72014 0.00060264581 C 280.44914 0.00060264581 273.73881 6.7118091 273.73881 14.992809 L 273.73881 56.459504 L 309.20776 56.459504 L 309.20776 14.992809 C 309.20776 6.7118091 302.49525 0.00060264581 294.22425 0.00060264581 L 288.72014 0.00060264581 z M 359.66891 0.00060264581 C 351.39791 0.00060264581 344.6854 6.7118091 344.6854 14.992809 L 344.6854 56.459504 L 380.16305 56.459504 L 380.16305 14.992809 C 380.16305 6.7118091 373.45171 0.00060264581 365.18171 0.00060264581 L 359.66891 0.00060264581 z M 78.626979 78.628136 L 78.626979 433.38062 L 433.38169 433.38062 L 433.38169 78.628136 L 78.626979 78.628136 z M 167.74733 105.45057 L 344.25264 105.45057 C 353.80485 105.45057 361.5587 113.20007 361.5587 122.75228 L 361.5587 389.24778 C 361.5587 398.79999 353.80485 406.54949 344.25264 406.54949 L 167.74733 406.54949 C 158.19512 406.54949 150.44127 398.79999 150.44127 389.24778 L 150.44127 122.75228 C 150.44127 113.20007 158.19512 105.45057 167.74733 105.45057 z M 182.31548 128.98273 C 176.5703 128.98273 171.93358 133.62164 171.93358 139.3668 C 171.93358 145.11198 176.56995 149.74869 182.31548 149.74869 C 188.06099 149.74869 192.69955 145.11198 192.69955 139.3668 C 192.69955 133.62164 188.06064 128.98273 182.31548 128.98273 z M 331.75913 128.98273 C 326.01395 128.98273 321.37724 133.62164 321.37724 139.3668 C 321.37724 145.11198 326.01361 149.74869 331.75913 149.74869 C 337.50429 149.74869 342.14321 145.11198 342.14321 139.3668 C 342.14321 133.62164 337.50429 128.98273 331.75913 128.98273 z M 14.982944 131.8359 C 6.7129444 131.8359 0.0016091898 138.5471 0.0016091898 146.8281 L 0.0016091898 152.32133 C 0.0016091898 160.60233 6.7129444 167.31354 14.982944 167.31354 L 56.460518 167.31354 L 56.460518 131.8359 L 14.982944 131.8359 z M 455.55033 131.8359 L 455.55033 167.31354 L 497.01703 167.31354 C 505.28903 167.31354 511.99836 160.60233 511.99836 152.32133 L 511.99836 146.8281 C 511.99836 138.5471 505.28903 131.8359 497.01703 131.8359 L 455.55033 131.8359 z M 255.99999 136.73544 C 211.14613 136.73544 174.77171 173.11186 174.80632 217.96606 C 174.80632 242.74642 185.91702 264.96437 203.4294 279.84642 C 203.464 279.81142 203.49939 279.77697 203.56857 279.74204 L 238.97011 258.87169 C 246.65341 254.30323 255.34287 263.02733 250.80904 270.71062 L 235.54499 296.59794 C 242.08617 298.29381 248.93965 299.19233 255.99999 299.19233 C 300.85383 299.19233 337.22844 262.81991 337.22844 217.96606 C 337.22844 173.1122 300.85383 136.73544 255.99999 136.73544 z M 255.99999 196.26498 A 21.700171 21.700171 0 0 1 277.70107 217.96606 A 21.700171 21.700171 0 0 1 255.99999 239.66496 A 21.700171 21.700171 0 0 1 234.29891 217.96606 A 21.700171 21.700171 0 0 1 255.99999 196.26498 z M 455.55033 202.79118 L 455.55033 238.26012 L 497.01703 238.26012 C 505.28903 238.26012 511.99836 231.54879 511.99836 223.27879 L 511.99836 217.78556 C 511.99836 209.50456 505.28903 202.79118 497.01703 202.79118 L 455.55033 202.79118 z M 14.982944 202.79335 C 6.7129444 202.79235 0.0016091898 209.50356 0.0016091898 217.78556 L 0.0016091898 223.27879 C 0.0016091898 231.54879 6.7129444 238.26012 14.982944 238.26012 L 56.460518 238.26012 L 56.460518 202.79335 L 14.982944 202.79335 z M 14.982944 273.73994 C 6.7129444 273.73894 0.0016091898 280.44927 0.0016091898 288.72127 L 0.0016091898 294.2145 C 0.0016091898 302.4955 6.7129444 309.20888 14.982944 309.20888 L 56.460518 309.20888 L 56.460518 273.73994 L 14.982944 273.73994 z M 455.55033 273.73994 L 455.55033 309.2067 L 497.01703 309.2067 C 505.28903 309.2067 511.99836 302.4955 511.99836 294.2145 L 511.99836 288.72127 C 511.99836 280.45027 505.28903 273.73994 497.01703 273.73994 L 455.55033 273.73994 z M 455.55033 344.68435 L 455.55033 380.16199 L 497.01703 380.16199 C 505.28903 380.16199 511.99836 373.45078 511.99836 365.16978 L 511.99836 359.67655 C 511.99836 351.39655 505.28903 344.68435 497.01703 344.68435 L 455.55033 344.68435 z M 14.982944 344.68652 C 6.7129444 344.68552 0.0016091898 351.39773 0.0016091898 359.67873 L 0.0016091898 365.17195 C 0.0016091898 373.45295 6.7129444 380.16416 14.982944 380.16416 L 56.460518 380.16416 L 56.460518 344.68652 L 14.982944 344.68652 z M 182.31548 364.53695 C 176.5703 364.53695 171.93358 369.2083 171.93358 374.91885 C 171.93358 380.66436 176.56995 385.30074 182.31548 385.30074 C 188.06099 385.30074 192.69955 380.66436 192.69955 374.91885 C 192.69955 369.17369 188.06064 364.53695 182.31548 364.53695 z M 331.75913 364.53695 C 326.01361 364.53695 321.37724 369.17369 321.37724 374.91885 C 321.37724 380.66436 326.01361 385.30074 331.75913 385.30074 C 337.50429 385.30074 342.14321 380.66402 342.14321 374.91885 C 342.14321 369.17369 337.50429 364.53695 331.75913 364.53695 z M 131.83692 455.54925 L 131.83692 497.00725 C 131.83692 505.28825 138.54826 511.99946 146.81826 511.99946 L 152.33106 511.99946 C 160.60106 511.99946 167.31457 505.28825 167.31457 497.00725 L 167.31457 455.54925 L 131.83692 455.54925 z M 202.79222 455.54925 L 202.79222 497.00725 C 202.79222 505.28825 209.50473 511.99946 217.77573 511.99946 L 223.27983 511.99946 C 231.55083 511.99946 238.26116 505.28825 238.26116 497.00725 L 238.26116 455.54925 L 202.79222 455.54925 z M 273.73881 455.54925 L 273.73881 497.00725 C 273.73881 505.28825 280.44914 511.99946 288.72014 511.99946 L 294.22425 511.99946 C 302.49525 511.99946 309.20776 505.28825 309.20776 497.00725 L 309.20776 455.54925 L 273.73881 455.54925 z M 344.6854 455.54925 L 344.6854 497.00725 C 344.6854 505.28825 351.39674 511.99946 359.66674 511.99946 L 365.18171 511.99946 C 373.45171 511.99946 380.16305 505.28825 380.16305 497.00725 L 380.16305 455.54925 L 344.6854 455.54925 z "
   transform="matrix(0.89812276,0,0,0.89812289,26.080586,26.08149)"
   inkscape:label="foreground" /></svg>
