<?xml version="1.0" encoding="UTF-8" standalone="no"?>
<!-- Uploaded to SVGRepo https://www.svgrepo.com -->

<svg
   version="1.2"
   id="Layer_1"
   x="0px"
   y="0px"
   viewBox="0 0 512 512"
   xml:space="preserve"
   sodipodi:docname="dna_lock.svg"
   width="512"
   height="512"
   inkscape:version="1.4 (86a8ad7, 2024-10-11)"
   xmlns:inkscape="http://www.inkscape.org/namespaces/inkscape"
   xmlns:sodipodi="http://sodipodi.sourceforge.net/DTD/sodipodi-0.dtd"
   xmlns="http://www.w3.org/2000/svg"
   xmlns:svg="http://www.w3.org/2000/svg"><defs
   id="defs1"><filter
     style="color-interpolation-filters:sRGB;"
     inkscape:label="Drop Shadow"
     id="filter2"
     x="-0.070312946"
     y="-0.070312461"
     width="1.1406259"
     height="1.1406249"><feFlood
       result="flood"
       in="SourceGraphic"
       flood-opacity="1.000000"
       flood-color="rgb(58,63,94)"
       id="feFlood1" /><feGaussianBlur
       result="blur"
       in="SourceGraphic"
       stdDeviation="15.000000"
       id="feGaussianBlur1" /><feOffset
       result="offset"
       in="blur"
       dx="0.000000"
       dy="0.000000"
       id="feOffset1" /><feComposite
       result="comp1"
       operator="out"
       in="flood"
       in2="offset"
       id="feComposite1" /><feComposite
       result="comp2"
       operator="atop"
       in="comp1"
       in2="SourceGraphic"
       id="feComposite2" /></filter></defs><sodipodi:namedview
   id="namedview1"
   pagecolor="#505050"
   bordercolor="#ffffff"
   borderopacity="1"
   inkscape:showpageshadow="0"
   inkscape:pageopacity="0"
   inkscape:pagecheckerboard="1"
   inkscape:deskcolor="#505050"
   inkscape:zoom="1.5917969"
   inkscape:cx="256"
   inkscape:cy="256"
   inkscape:window-width="1920"
   inkscape:window-height="1017"
   inkscape:window-x="-8"
   inkscape:window-y="-8"
   inkscape:window-maximized="1"
   inkscape:current-layer="Layer_1" />

<path
   d="M 0,5e-7 H 512 V 512 H 0 Z"
   fill="#b90202"
   fill-opacity="1"
   id="path902"
   style="display:inline;fill:#1b1f21;fill-opacity:1"
   inkscape:label="background" /><path
   id="path4079"
   style="fill:#e64539;fill-opacity:1;filter:url(#filter2)"
   class="st0"
   d="M 146.81826 0.00046259652 C 138.54826 0.00046259652 131.83692 6.7122235 131.83692 14.993224 L 131.83692 56.460667 L 167.31457 56.460667 L 167.31457 14.993224 C 167.31457 6.7122235 160.60206 0.00046259652 152.33106 0.00046259652 L 146.81826 0.00046259652 z M 217.77573 0.00046259652 C 209.50473 0.00046259652 202.79222 6.7122235 202.79222 14.993224 L 202.79222 56.460667 L 238.26116 56.460667 L 238.26116 14.993224 C 238.26116 6.7122235 231.54983 0.00046259652 223.27983 0.00046259652 L 217.77573 0.00046259652 z M 288.72014 0.00046259652 C 280.44914 0.00046259652 273.73881 6.7122235 273.73881 14.993224 L 273.73881 56.460667 L 309.20776 56.460667 L 309.20776 14.993224 C 309.20776 6.7122235 302.49525 0.00046259652 294.22425 0.00046259652 L 288.72014 0.00046259652 z M 359.66891 0.00046259652 C 351.39791 0.00046259652 344.6854 6.7122235 344.6854 14.993224 L 344.6854 56.460667 L 380.16305 56.460667 L 380.16305 14.993224 C 380.16305 6.7122235 373.45171 0.00046259652 365.18171 0.00046259652 L 359.66891 0.00046259652 z M 78.626979 78.627185 L 78.626979 433.38055 L 433.38169 433.38055 L 433.38169 78.627185 L 78.626979 78.627185 z M 255.99999 97.749962 C 310.80195 97.749962 355.22823 142.17696 355.22823 196.97897 L 355.22823 226.01074 L 369.7942 226.01074 L 369.7942 293.32934 C 368.16589 293.27694 366.5399 293.32113 364.91205 293.50315 C 356.17915 294.482 347.91538 298.99209 340.51003 307.89846 C 335.80886 298.15645 328.61321 290.00953 320.27903 283.83313 C 311.53532 277.35189 301.53655 273.03363 291.88212 271.31056 C 280.84959 269.34236 270.06762 270.71591 262.08908 276.3248 C 255.63267 280.8647 251.20935 288.18529 249.99571 298.12633 C 247.91595 296.2943 245.85355 294.56852 243.80658 292.95349 C 243.19208 292.46805 242.57817 291.99527 241.96681 291.53047 C 227.29438 280.36719 213.53201 274.83406 201.41782 275.58614 C 187.05284 276.47763 176.38043 286.42143 170.46785 303.77713 C 162.65198 294.56533 153.15289 287.32796 142.20577 283.51377 L 142.20577 226.01074 L 156.77175 226.01074 L 156.77175 196.97897 C 156.77175 142.17696 201.19802 97.749962 255.99999 97.749962 z M 255.99999 128.3199 C 218.08077 128.3199 187.34115 159.05973 187.34115 196.97897 L 187.34115 226.05202 L 324.65882 226.05202 L 324.65882 226.01291 L 324.65882 196.97897 C 324.65882 159.05973 293.9192 128.3199 255.99999 128.3199 z M 14.982944 131.83508 C 6.7129444 131.83508 0.0016091898 138.54684 0.0016091898 146.82784 L 0.0016091898 152.32222 C 0.0016091898 160.60322 6.7129444 167.31498 14.982944 167.31498 L 56.460518 167.31498 L 56.460518 131.83508 L 14.982944 131.83508 z M 455.55033 131.83508 L 455.55033 167.31498 L 497.01703 167.31498 C 505.28903 167.31498 511.99836 160.60322 511.99836 152.32222 L 511.99836 146.82784 C 511.99836 138.54684 505.28903 131.83508 497.01703 131.83508 L 455.55033 131.83508 z M 14.982944 202.79271 C 6.7129444 202.79171 0.0016091898 209.50347 0.0016091898 217.78547 L 0.0016091898 223.27985 C 0.0016091898 231.54985 6.7129444 238.26174 14.982944 238.26174 L 56.460518 238.26174 L 56.460518 202.79271 L 14.982944 202.79271 z M 455.55033 202.79271 L 455.55033 238.25957 L 497.01703 238.25957 C 505.28903 238.25957 511.99836 231.54767 511.99836 223.27767 L 511.99836 217.78547 C 511.99836 209.50447 505.28903 202.79271 497.01703 202.79271 L 455.55033 202.79271 z M 14.982944 273.73947 C 6.7129444 273.73847 0.0016091898 280.44937 0.0016091898 288.72137 L 0.0016091898 294.21574 C 0.0016091898 302.49674 6.7129444 309.20851 14.982944 309.20851 L 56.460518 309.20851 L 56.460518 273.73947 L 14.982944 273.73947 z M 455.55033 273.73947 L 455.55033 309.20633 L 497.01703 309.20633 C 505.28903 309.20633 511.99836 302.49457 511.99836 294.21357 L 511.99836 288.72137 C 511.99836 280.45037 505.28903 273.73947 497.01703 273.73947 L 455.55033 273.73947 z M 203.40112 283.58112 L 215.33357 335.12484 C 211.21257 334.24413 206.73584 332.55546 201.95714 330.01066 L 191.86882 288.13261 L 190.93589 288.18258 C 194.65164 285.38315 198.83944 283.87144 203.40112 283.58112 z M 211.79537 284.30458 C 216.22704 285.27289 221.05661 287.16396 226.22651 290.03141 L 236.10389 331.00352 C 232.4196 333.87469 228.25942 335.43702 223.72346 335.78095 L 211.79537 284.30458 z M 285.42551 284.55659 C 286.37533 284.58019 287.33963 284.64907 288.31565 284.76733 C 288.84242 284.83083 289.37997 284.90215 289.91839 284.99545 L 291.93866 333.15 C 287.9265 331.28134 283.69883 328.72795 279.3038 325.48742 L 277.24656 285.65156 C 279.84647 284.84282 282.57605 284.48588 285.42551 284.55659 z M 298.33221 287.5004 C 302.31211 289.12677 306.52116 291.4368 310.904 294.45038 L 313.06345 336.51093 C 310.22253 337.12196 307.24308 337.23357 304.12772 336.85636 C 302.90879 336.70824 301.66123 336.47637 300.38075 336.16767 L 298.33221 287.5004 z M 269.15894 289.97493 L 270.62033 318.37449 C 266.77339 314.90794 262.82971 310.94262 258.81619 306.47978 L 258.83141 306.41243 L 258.30514 305.90406 C 258.20403 305.79045 258.10186 305.68377 258.00069 305.56949 C 257.99969 305.4148 258.00012 305.26492 258.00069 305.11108 C 261.17971 298.35171 264.92266 293.34785 269.15894 289.97493 z M 185.08819 294.21574 L 192.25157 323.94925 C 187.4881 320.55732 182.48657 316.41224 177.29415 311.48751 C 179.2803 304.28293 181.91437 298.56153 185.08819 294.21574 z M 235.97341 296.32963 C 236.51805 296.72811 237.06316 297.12837 237.61311 297.54626 C 238.08975 297.90771 238.56553 298.28649 239.04622 298.66512 C 242.41483 301.31765 245.90494 304.3767 249.46291 307.74203 C 247.67368 314.29241 245.36112 319.61999 242.59746 323.81238 L 235.97341 296.32963 z M 142.20577 298.91062 L 158.77897 339.27876 C 158.59986 339.52046 158.41563 339.76125 158.23095 339.99352 C 154.90918 344.1872 151.0346 346.83013 146.5138 348.06889 L 142.20577 337.32563 L 142.20577 298.91062 z M 319.54399 301.13531 C 324.39843 305.29995 329.43091 310.29915 334.55142 316.06507 C 330.83505 324.12783 326.33826 329.72932 321.18152 333.10872 L 319.54399 301.13531 z M 364.93597 301.85877 L 357.76607 331.88123 C 353.56678 327.43197 349.30799 322.38483 345.04205 316.70814 C 351.56024 307.63991 358.28375 303.28283 364.93597 301.85877 z M 152.24625 302.92115 C 157.09326 305.60413 162.26178 309.05124 167.69949 313.31462 C 166.84712 319.96931 165.43649 325.67338 163.55891 330.43214 L 152.24625 302.92115 z M 258.18988 316.79505 C 269.8918 328.81033 281.36364 337.17367 292.29531 341.5469 L 292.29966 341.70984 L 292.89987 341.79022 C 296.86847 343.32701 300.76408 344.34241 304.57352 344.80355 C 318.72306 346.51749 330.67213 340.12608 338.93991 326.7627 C 344.97507 340.96188 356.49291 351.67475 368.87431 359.89625 L 369.7942 358.72742 L 369.7942 414.24908 L 142.20577 414.24908 L 142.20577 350.82585 L 148.83853 356.06822 C 155.33758 354.54031 160.92099 350.95346 165.21818 345.52918 C 169.73002 339.83277 172.94366 332.18081 174.87157 322.68048 C 190.23786 342.9774 210.63658 352.6238 227.65527 351.09742 C 244.15128 349.61796 256.77585 337.42564 258.18988 316.79505 z M 369.7942 318.80031 L 369.7942 343.09158 C 368.20273 341.81243 366.60054 340.45059 364.97947 338.98112 L 369.7942 318.80031 z M 455.55033 344.68406 L 455.55033 380.16396 L 497.01703 380.16396 C 505.28903 380.16396 511.99836 373.45002 511.99836 365.16902 L 511.99836 359.67682 C 511.99836 351.39682 505.28903 344.68406 497.01703 344.68406 L 455.55033 344.68406 z M 14.982944 344.68623 C 6.7129444 344.68523 0.0016091898 351.39799 0.0016091898 359.67899 L 0.0016091898 365.1712 C 0.0016091898 373.4522 6.7129444 380.16396 14.982944 380.16396 L 56.460518 380.16396 L 56.460518 344.68623 L 14.982944 344.68623 z M 131.83692 455.54924 L 131.83692 497.00799 C 131.83692 505.28899 138.54826 512.00075 146.81826 512.00075 L 152.33106 512.00075 C 160.60106 512.00075 167.31457 505.28899 167.31457 497.00799 L 167.31457 455.54924 L 131.83692 455.54924 z M 202.79222 455.54924 L 202.79222 497.00799 C 202.79222 505.28899 209.50473 512.00075 217.77573 512.00075 L 223.27983 512.00075 C 231.55083 512.00075 238.26116 505.28899 238.26116 497.00799 L 238.26116 455.54924 L 202.79222 455.54924 z M 273.73881 455.54924 L 273.73881 497.00799 C 273.73881 505.28899 280.44914 512.00075 288.72014 512.00075 L 294.22425 512.00075 C 302.49525 512.00075 309.20776 505.28899 309.20776 497.00799 L 309.20776 455.54924 L 273.73881 455.54924 z M 344.6854 455.54924 L 344.6854 497.00799 C 344.6854 505.28899 351.39674 512.00075 359.66674 512.00075 L 365.18171 512.00075 C 373.45171 512.00075 380.16305 505.28899 380.16305 497.00799 L 380.16305 455.54924 L 344.6854 455.54924 z "
   transform="matrix(0.89812276,0,0,0.89900157,26.080586,26.107006)" /></svg>
