<?xml version="1.0" encoding="UTF-8" standalone="no"?>
<!-- Uploaded to SVGRepo https://www.svgrepo.com -->

<svg
   version="1.2"
   id="Layer_1"
   x="0px"
   y="0px"
   viewBox="0 0 512 512"
   xml:space="preserve"
   sodipodi:docname="hardened_circuitry.svg"
   width="512"
   height="512"
   inkscape:version="1.4 (86a8ad7, 2024-10-11)"
   xmlns:inkscape="http://www.inkscape.org/namespaces/inkscape"
   xmlns:sodipodi="http://sodipodi.sourceforge.net/DTD/sodipodi-0.dtd"
   xmlns="http://www.w3.org/2000/svg"
   xmlns:svg="http://www.w3.org/2000/svg"><defs
   id="defs1"><filter
     style="color-interpolation-filters:sRGB;"
     inkscape:label="Drop Shadow"
     id="filter2"
     x="-0.070312946"
     y="-0.070312647"
     width="1.1406259"
     height="1.1406253"><feFlood
       result="flood"
       in="SourceGraphic"
       flood-opacity="1.000000"
       flood-color="rgb(58,63,94)"
       id="feFlood1" /><feGaussianBlur
       result="blur"
       in="SourceGraphic"
       stdDeviation="15.000000"
       id="feGaussianBlur1" /><feOffset
       result="offset"
       in="blur"
       dx="0.000000"
       dy="0.000000"
       id="feOffset1" /><feComposite
       result="comp1"
       operator="out"
       in="flood"
       in2="offset"
       id="feComposite1" /><feComposite
       result="comp2"
       operator="atop"
       in="comp1"
       in2="SourceGraphic"
       id="feComposite2" /></filter></defs><sodipodi:namedview
   id="namedview1"
   pagecolor="#505050"
   bordercolor="#ffffff"
   borderopacity="1"
   inkscape:showpageshadow="0"
   inkscape:pageopacity="0"
   inkscape:pagecheckerboard="1"
   inkscape:deskcolor="#505050"
   inkscape:zoom="1.5917969"
   inkscape:cx="256"
   inkscape:cy="205.74233"
   inkscape:window-width="1920"
   inkscape:window-height="1017"
   inkscape:window-x="-8"
   inkscape:window-y="-8"
   inkscape:window-maximized="1"
   inkscape:current-layer="Layer_1" />
<path
   d="M 0,0 H 512 V 512 H 0 Z"
   fill="#b90202"
   fill-opacity="1"
   id="path902"
   style="fill:#1b1f21;fill-opacity:1"
   inkscape:label="background" /><path
   id="path4079"
   style="fill:#e64539;fill-opacity:1;filter:url(#filter2)"
   class="st0"
   d="M 146.81826 0.00060709964 C 138.54826 0.00060709964 131.83692 6.7118157 131.83692 14.992816 L 131.83692 56.459516 L 167.31457 56.459516 L 167.31457 14.992816 C 167.31457 6.7118157 160.60206 0.00060709964 152.33106 0.00060709964 L 146.81826 0.00060709964 z M 217.77573 0.00060709964 C 209.50473 0.00060709964 202.79222 6.7118157 202.79222 14.992816 L 202.79222 56.459516 L 238.26116 56.459516 L 238.26116 14.992816 C 238.26116 6.7118157 231.54983 0.00060709964 223.27983 0.00060709964 L 217.77573 0.00060709964 z M 288.72014 0.00060709964 C 280.44914 0.00060709964 273.73881 6.7118157 273.73881 14.992816 L 273.73881 56.459516 L 309.20776 56.459516 L 309.20776 14.992816 C 309.20776 6.7118157 302.49525 0.00060709964 294.22425 0.00060709964 L 288.72014 0.00060709964 z M 359.66891 0.00060709964 C 351.39791 0.00060709964 344.6854 6.7118157 344.6854 14.992816 L 344.6854 56.459516 L 380.16305 56.459516 L 380.16305 14.992816 C 380.16305 6.7118157 373.45171 0.00060709964 365.18171 0.00060709964 L 359.66891 0.00060709964 z M 78.626979 78.628152 L 78.626979 433.38069 L 433.38169 433.38069 L 433.38169 78.628152 L 78.626979 78.628152 z M 115.52034 104.71338 L 396.47963 104.71338 L 407.28559 115.51934 L 407.28559 396.48081 L 396.47963 407.28677 L 115.52034 407.28677 L 104.71438 396.48081 L 104.71438 115.51934 L 115.52034 104.71338 z M 126.3263 126.3253 L 126.3263 385.67485 L 169.55014 385.67485 L 169.55014 320.83909 L 234.38807 320.83909 C 234.38807 297.0654 253.83821 277.61308 277.6119 277.61308 C 301.38559 277.61308 320.83792 297.0654 320.83792 320.83909 C 320.83792 344.61277 301.38559 364.06293 277.6119 364.06293 C 262.48319 364.06293 247.35451 355.41848 240.87077 342.45101 L 191.16205 342.45101 L 191.16205 385.67485 L 385.67367 385.67485 L 385.67367 126.3253 L 191.16205 126.3253 L 191.16205 169.54913 C 206.29076 169.54913 221.41946 178.19358 227.90319 191.16105 L 284.09679 191.16105 C 290.58052 178.19358 305.7092 169.54913 320.83792 169.54913 C 344.6116 169.54913 364.06176 189.00146 364.06176 212.77515 C 364.06176 236.54884 344.6116 255.99898 320.83792 255.99898 C 297.06423 255.99898 277.6119 236.54884 277.6119 212.77515 L 234.38807 212.77515 C 234.38807 236.54884 214.93573 255.99898 191.16205 255.99898 C 167.38836 255.99898 147.93822 236.54884 147.93822 212.77515 C 147.93822 197.64644 156.58268 182.51774 169.55014 176.03401 L 169.55014 126.3253 L 126.3263 126.3253 z M 14.982944 131.83592 C 6.7129444 131.83592 0.0016091898 138.54713 0.0016091898 146.82813 L 0.0016091898 152.32136 C 0.0016091898 160.60236 6.7129444 167.31357 14.982944 167.31357 L 56.460518 167.31357 L 56.460518 131.83592 L 14.982944 131.83592 z M 455.55033 131.83592 L 455.55033 167.31357 L 497.01703 167.31357 C 505.28903 167.31357 511.99836 160.60236 511.99836 152.32136 L 511.99836 146.82813 C 511.99836 138.54713 505.28903 131.83592 497.01703 131.83592 L 455.55033 131.83592 z M 191.16205 191.16105 C 178.19458 191.16105 169.55014 199.80768 169.55014 212.77515 C 169.55014 225.74261 178.19458 234.38707 191.16205 234.38707 C 204.12951 234.38707 212.77615 225.74261 212.77615 212.77515 C 212.77615 199.80768 204.12951 191.16105 191.16205 191.16105 z M 320.83792 191.16105 C 307.87045 191.16105 299.22382 199.80768 299.22382 212.77515 C 299.22382 225.74261 307.87045 234.38707 320.83792 234.38707 C 333.80538 234.38707 342.44984 225.74261 342.44984 212.77515 C 342.44984 199.80768 333.80538 191.16105 320.83792 191.16105 z M 455.55033 202.79121 L 455.55033 238.26016 L 497.01703 238.26016 C 505.28903 238.26016 511.99836 231.54883 511.99836 223.27883 L 511.99836 217.7856 C 511.99836 209.5046 505.28903 202.79121 497.01703 202.79121 L 455.55033 202.79121 z M 14.982944 202.79339 C 6.7129444 202.79239 0.0016091898 209.5036 0.0016091898 217.7856 L 0.0016091898 223.27883 C 0.0016091898 231.54883 6.7129444 238.26016 14.982944 238.26016 L 56.460518 238.26016 L 56.460518 202.79339 L 14.982944 202.79339 z M 14.982944 273.73998 C 6.7129444 273.73898 0.0016091898 280.44932 0.0016091898 288.72132 L 0.0016091898 294.21455 C 0.0016091898 302.49555 6.7129444 309.20893 14.982944 309.20893 L 56.460518 309.20893 L 56.460518 273.73998 L 14.982944 273.73998 z M 455.55033 273.73998 L 455.55033 309.20675 L 497.01703 309.20675 C 505.28903 309.20675 511.99836 302.49555 511.99836 294.21455 L 511.99836 288.72132 C 511.99836 280.45032 505.28903 273.73998 497.01703 273.73998 L 455.55033 273.73998 z M 277.6119 299.225 C 264.64443 299.225 255.99999 307.87162 255.99999 320.83909 C 255.99999 333.80655 264.64443 342.45101 277.6119 342.45101 C 290.57937 342.45101 299.22382 333.80655 299.22382 320.83909 C 299.22382 307.87162 290.57937 299.225 277.6119 299.225 z M 455.55033 344.6844 L 455.55033 380.16205 L 497.01703 380.16205 C 505.28903 380.16205 511.99836 373.45084 511.99836 365.16984 L 511.99836 359.67661 C 511.99836 351.39661 505.28903 344.6844 497.01703 344.6844 L 455.55033 344.6844 z M 14.982944 344.68657 C 6.7129444 344.68557 0.0016091898 351.39778 0.0016091898 359.67878 L 0.0016091898 365.17201 C 0.0016091898 373.45301 6.7129444 380.16422 14.982944 380.16422 L 56.460518 380.16422 L 56.460518 344.68657 L 14.982944 344.68657 z M 131.83692 455.54933 L 131.83692 497.00733 C 131.83692 505.28833 138.54826 511.99954 146.81826 511.99954 L 152.33106 511.99954 C 160.60106 511.99954 167.31457 505.28833 167.31457 497.00733 L 167.31457 455.54933 L 131.83692 455.54933 z M 202.79222 455.54933 L 202.79222 497.00733 C 202.79222 505.28833 209.50473 511.99954 217.77573 511.99954 L 223.27983 511.99954 C 231.55083 511.99954 238.26116 505.28833 238.26116 497.00733 L 238.26116 455.54933 L 202.79222 455.54933 z M 273.73881 455.54933 L 273.73881 497.00733 C 273.73881 505.28833 280.44914 511.99954 288.72014 511.99954 L 294.22425 511.99954 C 302.49525 511.99954 309.20776 505.28833 309.20776 497.00733 L 309.20776 455.54933 L 273.73881 455.54933 z M 344.6854 455.54933 L 344.6854 497.00733 C 344.6854 505.28833 351.39674 511.99954 359.66674 511.99954 L 365.18171 511.99954 C 373.45171 511.99954 380.16305 505.28833 380.16305 497.00733 L 380.16305 455.54933 L 344.6854 455.54933 z "
   transform="matrix(0.89812276,0,0,0.89812276,26.080586,26.081486)"
   inkscape:label="foreground" /></svg>
