<?xml version="1.0" encoding="UTF-8" standalone="no"?>
<!-- Uploaded to SVGRepo https://www.svgrepo.com -->

<svg
   version="1.2"
   id="Layer_1"
   x="0px"
   y="0px"
   viewBox="0 0 512 512"
   xml:space="preserve"
   sodipodi:docname="insulated_wiring.svg"
   width="512"
   height="512"
   inkscape:version="1.4 (86a8ad7, 2024-10-11)"
   xmlns:inkscape="http://www.inkscape.org/namespaces/inkscape"
   xmlns:sodipodi="http://sodipodi.sourceforge.net/DTD/sodipodi-0.dtd"
   xmlns="http://www.w3.org/2000/svg"
   xmlns:svg="http://www.w3.org/2000/svg"><defs
   id="defs1"><filter
     style="color-interpolation-filters:sRGB;"
     inkscape:label="Drop Shadow"
     id="filter2"
     x="-0.070312946"
     y="-0.070312647"
     width="1.1406259"
     height="1.1406253"><feFlood
       result="flood"
       in="SourceGraphic"
       flood-opacity="1.000000"
       flood-color="rgb(58,63,94)"
       id="feFlood1" /><feGaussianBlur
       result="blur"
       in="SourceGraphic"
       stdDeviation="15.000000"
       id="feGaussianBlur1" /><feOffset
       result="offset"
       in="blur"
       dx="0.000000"
       dy="0.000000"
       id="feOffset1" /><feComposite
       result="comp1"
       operator="out"
       in="flood"
       in2="offset"
       id="feComposite1" /><feComposite
       result="comp2"
       operator="atop"
       in="comp1"
       in2="SourceGraphic"
       id="feComposite2" /></filter></defs><sodipodi:namedview
   id="namedview1"
   pagecolor="#505050"
   bordercolor="#ffffff"
   borderopacity="1"
   inkscape:showpageshadow="0"
   inkscape:pageopacity="0"
   inkscape:pagecheckerboard="1"
   inkscape:deskcolor="#505050"
   inkscape:zoom="1.5917969"
   inkscape:cx="256"
   inkscape:cy="256"
   inkscape:window-width="1920"
   inkscape:window-height="1017"
   inkscape:window-x="-8"
   inkscape:window-y="-8"
   inkscape:window-maximized="1"
   inkscape:current-layer="Layer_1" />

<path
   d="M 578.15287,-544.83416 H 1577.7093 V 454.72225 H 578.15287 Z"
   fill="#b90202"
   fill-opacity="1"
   id="path902"
   style="fill:#1b1f21;fill-opacity:1;stroke-width:1.95226"
   inkscape:label="background"
   transform="matrix(0.51222721,0,0,0.51222721,-296.14563,279.07888)" /><path
   id="path4079"
   style="fill:#e64539;fill-opacity:1;filter:url(#filter2)"
   class="st0"
   d="M 146.81826 0.00060709964 C 138.54826 0.00060709964 131.83692 6.7118157 131.83692 14.992816 L 131.83692 56.459516 L 167.31457 56.459516 L 167.31457 14.992816 C 167.31457 6.7118157 160.60206 0.00060709964 152.33106 0.00060709964 L 146.81826 0.00060709964 z M 217.77573 0.00060709964 C 209.50473 0.00060709964 202.79222 6.7118157 202.79222 14.992816 L 202.79222 56.459516 L 238.26116 56.459516 L 238.26116 14.992816 C 238.26116 6.7118157 231.54983 0.00060709964 223.27983 0.00060709964 L 217.77573 0.00060709964 z M 288.72014 0.00060709964 C 280.44914 0.00060709964 273.73881 6.7118157 273.73881 14.992816 L 273.73881 56.459516 L 309.20776 56.459516 L 309.20776 14.992816 C 309.20776 6.7118157 302.49525 0.00060709964 294.22425 0.00060709964 L 288.72014 0.00060709964 z M 359.66891 0.00060709964 C 351.39791 0.00060709964 344.6854 6.7118157 344.6854 14.992816 L 344.6854 56.459516 L 380.16305 56.459516 L 380.16305 14.992816 C 380.16305 6.7118157 373.45171 0.00060709964 365.18171 0.00060709964 L 359.66891 0.00060709964 z M 78.626979 78.628152 L 78.626979 433.38069 L 433.38169 433.38069 L 433.38169 78.628152 L 78.626979 78.628152 z M 271.84902 102.16683 C 274.71691 102.16683 277.5833 103.26037 279.77136 105.44842 C 284.14746 109.82452 284.14746 116.91917 279.77136 121.29527 L 255.99999 145.06664 L 263.92233 152.99116 C 268.29843 157.36726 268.29843 164.4619 263.92233 168.83801 L 216.38176 216.38293 C 212.00565 220.75903 204.90883 220.75903 200.53273 216.38293 L 192.61039 208.45624 L 152.98999 248.07664 C 139.88245 261.18418 139.88245 282.50966 152.98999 295.61721 C 166.09753 308.72475 187.42519 308.72475 200.53273 295.61721 L 295.61821 200.5339 C 317.46399 178.68811 353.00888 178.68811 374.85467 200.5339 C 396.70046 222.37969 396.70046 257.92674 374.85467 279.77253 L 335.23861 319.38858 L 343.16095 327.31527 C 347.53705 331.69137 347.53705 338.78384 343.16095 343.15995 L 295.62039 390.70487 C 291.24429 395.08097 284.14746 395.08097 279.77136 390.70487 L 271.84902 382.78035 L 248.07765 406.55173 C 243.70155 410.92784 236.60471 410.92784 232.22861 406.55173 C 227.8525 402.17563 227.8525 395.08097 232.22861 390.70487 L 255.99999 366.9335 L 248.07765 359.00898 C 243.70155 354.63288 243.70155 347.53605 248.07765 343.15995 L 295.61821 295.61721 C 299.99431 291.2411 307.09114 291.2411 311.46724 295.61721 L 319.38958 303.5439 L 359.00999 263.9235 C 372.11787 250.81562 372.11753 229.49047 359.00999 216.38293 C 345.90245 203.27539 324.57512 203.27504 311.46724 216.38293 L 216.38176 311.46624 C 194.53597 333.31203 158.9911 333.31203 137.14531 311.46624 C 115.29952 289.62045 115.29918 254.07305 137.14531 232.22761 L 176.76136 192.61156 L 168.83902 184.68705 C 164.46291 180.31095 164.46291 173.21411 168.83902 168.83801 L 216.37958 121.29527 C 220.75568 116.91917 227.85216 116.91951 232.22861 121.29527 L 240.15096 129.21979 L 263.92233 105.44842 C 266.11038 103.26037 268.98113 102.16683 271.84902 102.16683 z M 14.982944 131.83592 C 6.7129444 131.83592 0.0016091898 138.54713 0.0016091898 146.82813 L 0.0016091898 152.32136 C 0.0016091898 160.60236 6.7129444 167.31357 14.982944 167.31357 L 56.460518 167.31357 L 56.460518 131.83592 L 14.982944 131.83592 z M 455.55033 131.83592 L 455.55033 167.31357 L 497.01703 167.31357 C 505.28903 167.31357 511.99836 160.60236 511.99836 152.32136 L 511.99836 146.82813 C 511.99836 138.54713 505.28903 131.83592 497.01703 131.83592 L 455.55033 131.83592 z M 224.30627 145.06664 L 192.61039 176.76253 L 208.45724 192.61156 L 240.15096 160.9135 L 224.30627 145.06664 z M 455.55033 202.79121 L 455.55033 238.26016 L 497.01703 238.26016 C 505.28903 238.26016 511.99836 231.54883 511.99836 223.27883 L 511.99836 217.7856 C 511.99836 209.5046 505.28903 202.79121 497.01703 202.79121 L 455.55033 202.79121 z M 14.982944 202.79339 C 6.7129444 202.79239 0.0016091898 209.5036 0.0016091898 217.7856 L 0.0016091898 223.27883 C 0.0016091898 231.54883 6.7129444 238.26016 14.982944 238.26016 L 56.460518 238.26016 L 56.460518 202.79339 L 14.982944 202.79339 z M 14.982944 273.73998 C 6.7129444 273.73898 0.0016091898 280.44932 0.0016091898 288.72132 L 0.0016091898 294.21455 C 0.0016091898 302.49555 6.7129444 309.20893 14.982944 309.20893 L 56.460518 309.20893 L 56.460518 273.73998 L 14.982944 273.73998 z M 455.55033 273.73998 L 455.55033 309.20675 L 497.01703 309.20675 C 505.28903 309.20675 511.99836 302.49555 511.99836 294.21455 L 511.99836 288.72132 C 511.99836 280.45032 505.28903 273.73998 497.01703 273.73998 L 455.55033 273.73998 z M 303.54273 319.39076 L 271.84902 351.08664 L 287.6937 366.9335 L 319.38958 335.23761 L 303.54273 319.39076 z M 455.55033 344.6844 L 455.55033 380.16205 L 497.01703 380.16205 C 505.28903 380.16205 511.99836 373.45084 511.99836 365.16984 L 511.99836 359.67661 C 511.99836 351.39661 505.28903 344.6844 497.01703 344.6844 L 455.55033 344.6844 z M 14.982944 344.68657 C 6.7129444 344.68557 0.0016091898 351.39778 0.0016091898 359.67878 L 0.0016091898 365.17201 C 0.0016091898 373.45301 6.7129444 380.16422 14.982944 380.16422 L 56.460518 380.16422 L 56.460518 344.68657 L 14.982944 344.68657 z M 131.83692 455.54933 L 131.83692 497.00733 C 131.83692 505.28833 138.54826 511.99954 146.81826 511.99954 L 152.33106 511.99954 C 160.60106 511.99954 167.31457 505.28833 167.31457 497.00733 L 167.31457 455.54933 L 131.83692 455.54933 z M 202.79222 455.54933 L 202.79222 497.00733 C 202.79222 505.28833 209.50473 511.99954 217.77573 511.99954 L 223.27983 511.99954 C 231.55083 511.99954 238.26116 505.28833 238.26116 497.00733 L 238.26116 455.54933 L 202.79222 455.54933 z M 273.73881 455.54933 L 273.73881 497.00733 C 273.73881 505.28833 280.44914 511.99954 288.72014 511.99954 L 294.22425 511.99954 C 302.49525 511.99954 309.20776 505.28833 309.20776 497.00733 L 309.20776 455.54933 L 273.73881 455.54933 z M 344.6854 455.54933 L 344.6854 497.00733 C 344.6854 505.28833 351.39674 511.99954 359.66674 511.99954 L 365.18171 511.99954 C 373.45171 511.99954 380.16305 505.28833 380.16305 497.00733 L 380.16305 455.54933 L 344.6854 455.54933 z "
   inkscape:label="foreground"
   transform="matrix(0.89812276,0,0,0.89812276,26.080586,26.081486)" /></svg>
