<?xml version="1.0" encoding="UTF-8" standalone="no"?>
<!-- Uploaded to SVGRepo https://www.svgrepo.com -->

<svg
   version="1.2"
   id="Layer_1"
   x="0px"
   y="0px"
   viewBox="0 0 512 512"
   xml:space="preserve"
   sodipodi:docname="krash_barrier.svg"
   width="512"
   height="512"
   inkscape:version="1.4 (86a8ad7, 2024-10-11)"
   xmlns:inkscape="http://www.inkscape.org/namespaces/inkscape"
   xmlns:sodipodi="http://sodipodi.sourceforge.net/DTD/sodipodi-0.dtd"
   xmlns="http://www.w3.org/2000/svg"
   xmlns:svg="http://www.w3.org/2000/svg"><defs
   id="defs1"><filter
     style="color-interpolation-filters:sRGB;"
     inkscape:label="Drop Shadow"
     id="filter2"
     x="-0.070312946"
     y="-0.070312647"
     width="1.1406259"
     height="1.1406253"><feFlood
       result="flood"
       in="SourceGraphic"
       flood-opacity="1.000000"
       flood-color="rgb(58,63,94)"
       id="feFlood1" /><feGaussianBlur
       result="blur"
       in="SourceGraphic"
       stdDeviation="15.000000"
       id="feGaussianBlur1" /><feOffset
       result="offset"
       in="blur"
       dx="0.000000"
       dy="0.000000"
       id="feOffset1" /><feComposite
       result="comp1"
       operator="out"
       in="flood"
       in2="offset"
       id="feComposite1" /><feComposite
       result="comp2"
       operator="atop"
       in="comp1"
       in2="SourceGraphic"
       id="feComposite2" /></filter></defs><sodipodi:namedview
   id="namedview1"
   pagecolor="#505050"
   bordercolor="#ffffff"
   borderopacity="1"
   inkscape:showpageshadow="0"
   inkscape:pageopacity="0"
   inkscape:pagecheckerboard="1"
   inkscape:deskcolor="#505050"
   inkscape:zoom="1.5917969"
   inkscape:cx="256"
   inkscape:cy="256"
   inkscape:window-width="1920"
   inkscape:window-height="1017"
   inkscape:window-x="-8"
   inkscape:window-y="-8"
   inkscape:window-maximized="1"
   inkscape:current-layer="Layer_1" />

<path
   d="M 0,0 H 512 V 512 H 0 Z"
   fill="#b90202"
   fill-opacity="1"
   id="path902"
   style="fill:#1b1f21;fill-opacity:1"
   inkscape:label="background" /><path
   id="path4079"
   style="fill:#e64539;fill-opacity:1;filter:url(#filter2)"
   class="st0"
   d="M 146.81826 0.00060709964 C 138.54826 0.00060709964 131.83692 6.7118157 131.83692 14.992816 L 131.83692 56.459516 L 167.31457 56.459516 L 167.31457 14.992816 C 167.31457 6.7118157 160.60206 0.00060709964 152.33106 0.00060709964 L 146.81826 0.00060709964 z M 217.77572 0.00060709964 C 209.50472 0.00060709964 202.79221 6.7118157 202.79221 14.992816 L 202.79221 56.459516 L 238.26116 56.459516 L 238.26116 14.992816 C 238.26116 6.7118157 231.54983 0.00060709964 223.27983 0.00060709964 L 217.77572 0.00060709964 z M 288.72014 0.00060709964 C 280.44914 0.00060709964 273.73881 6.7118157 273.73881 14.992816 L 273.73881 56.459516 L 309.20776 56.459516 L 309.20776 14.992816 C 309.20776 6.7118157 302.49525 0.00060709964 294.22425 0.00060709964 L 288.72014 0.00060709964 z M 359.66891 0.00060709964 C 351.39791 0.00060709964 344.6854 6.7118157 344.6854 14.992816 L 344.6854 56.459516 L 380.16305 56.459516 L 380.16305 14.992816 C 380.16305 6.7118157 373.45171 0.00060709964 365.18171 0.00060709964 L 359.66891 0.00060709964 z M 78.626978 78.628152 L 78.626978 433.38069 L 433.38169 433.38069 L 433.38169 78.628152 L 78.626978 78.628152 z M 175.4435 104.95477 C 189.54112 104.95477 200.61694 116.03177 200.61754 130.1288 C 200.61754 138.688 196.58832 145.73719 190.54662 150.26847 L 190.54662 165.37376 L 217.73441 165.37376 L 147.24884 235.85932 L 109.99014 235.85932 C 107.47317 235.85932 104.95577 233.8458 104.95577 230.82495 L 104.95577 221.76525 L 160.33821 166.38063 L 160.33821 150.26847 C 154.29651 145.73719 150.26947 138.18472 150.26947 130.1288 C 150.26947 116.03177 161.34655 104.95477 175.4435 104.95477 z M 336.55647 104.95477 C 350.65413 104.95477 361.7305 116.03173 361.7305 130.1288 C 361.7305 138.68804 357.70343 145.73719 351.66176 150.26847 L 351.66176 165.37376 L 360.72363 165.37376 L 290.23807 235.85932 L 230.3236 235.85932 L 300.80916 165.37376 L 321.45335 165.37376 L 321.45335 150.26847 C 315.41165 145.73719 311.38243 138.18476 311.38243 130.1288 C 311.38243 116.03173 322.45881 104.95477 336.55647 104.95477 z M 14.982943 131.83592 C 6.7129433 131.83592 0.0016080764 138.54713 0.0016080764 146.82813 L 0.0016080764 152.32136 C 0.0016080764 160.60236 6.7129433 167.31357 14.982943 167.31357 L 56.460517 167.31357 L 56.460517 131.83592 L 14.982943 131.83592 z M 455.55033 131.83592 L 455.55033 167.31357 L 497.01703 167.31357 C 505.28903 167.31357 511.99836 160.60236 511.99836 152.32136 L 511.99836 146.82813 C 511.99836 138.54713 505.28903 131.83592 497.01703 131.83592 L 455.55033 131.83592 z M 170.40913 154.80049 L 170.40913 165.37376 L 180.47788 165.37376 L 180.47788 154.80049 C 178.96746 155.30376 176.95393 155.30284 175.4435 155.30284 C 173.93308 155.30284 171.91955 155.30376 170.40913 154.80049 z M 331.52209 154.80049 L 331.52209 165.37376 L 341.59084 165.37376 L 341.59084 154.80049 C 340.08042 155.30376 338.06689 155.30284 336.55647 155.30284 C 335.04605 155.30284 333.03251 155.30376 331.52209 154.80049 z M 109.99014 165.37376 L 146.74432 165.37376 L 104.95577 207.16014 L 104.95577 170.40813 C 104.95577 167.38734 106.96929 165.37376 109.99014 165.37376 z M 232.33517 165.37376 L 286.20839 165.37376 L 215.72066 235.86149 L 190.54662 235.86149 L 190.54662 245.93024 L 218.23893 245.93024 L 157.82211 306.34923 L 171.91836 306.34923 L 232.33735 245.93024 L 286.20839 245.93024 L 215.72066 316.41798 L 180.47788 316.41798 L 180.47788 341.59201 L 331.52209 341.59201 L 331.52209 316.41798 L 304.33431 316.41798 L 374.82205 245.93024 L 402.00983 245.93024 C 405.03068 245.93024 407.0454 248.44927 407.0442 250.96679 L 407.0442 270.60193 L 361.7305 315.91345 L 361.7305 402.00883 C 361.7305 405.02968 359.71698 407.04538 356.69613 407.04538 L 336.55647 407.04538 C 333.53562 407.04538 331.52209 405.02968 331.52209 402.00883 L 331.52209 381.87134 L 180.47788 381.87134 L 180.47788 402.00883 C 180.47788 405.02968 178.46435 407.04538 175.4435 407.04538 L 155.30384 407.04538 C 152.28299 407.04538 150.26947 405.02968 150.26947 402.00883 L 150.26947 313.39735 L 147.24884 316.41798 L 109.99014 316.41798 C 106.96929 316.41798 104.95577 314.40222 104.95577 311.38143 L 104.95577 301.81721 L 160.33821 246.43259 L 160.33821 230.82495 C 160.33821 227.8041 162.35173 225.79275 165.37258 225.79275 L 171.91836 225.79275 L 232.33517 165.37376 z M 374.82205 165.37376 L 402.00983 165.37376 C 405.03068 165.37376 407.0448 167.89213 407.0442 170.4103 L 407.0442 190.04327 L 361.22815 235.86149 L 351.66176 235.86149 L 351.66176 245.93024 L 360.22128 245.93024 L 289.73354 316.41798 L 229.81907 316.41798 L 300.30681 245.93024 L 321.45335 245.93024 L 321.45335 235.85932 L 304.33431 235.85932 L 374.82205 165.37376 z M 455.55033 202.79121 L 455.55033 238.26016 L 497.01703 238.26016 C 505.28903 238.26016 511.99836 231.54883 511.99836 223.27883 L 511.99836 217.7856 C 511.99836 209.5046 505.28903 202.79121 497.01703 202.79121 L 455.55033 202.79121 z M 14.982943 202.79339 C 6.7129433 202.79239 0.0016080764 209.5036 0.0016080764 217.7856 L 0.0016080764 223.27883 C 0.0016080764 231.54883 6.7129433 238.26016 14.982943 238.26016 L 56.460517 238.26016 L 56.460517 202.79339 L 14.982943 202.79339 z M 407.0442 204.14169 L 407.0442 230.82495 C 407.0442 233.8458 405.03068 235.85932 402.00983 235.85932 L 375.3244 235.85932 L 407.0442 204.14169 z M 170.40913 235.85932 L 170.40913 245.93024 L 180.47788 245.93024 L 180.47788 235.85932 L 170.40913 235.85932 z M 331.52209 235.85932 L 331.52209 245.93024 L 341.59301 245.93024 L 341.59301 235.85932 L 331.52209 235.85932 z M 109.99014 245.93024 L 146.74432 245.93024 L 104.95577 287.71879 L 104.95577 250.96461 C 104.95577 247.94376 106.96929 245.93024 109.99014 245.93024 z M 14.982943 273.73998 C 6.7129433 273.73898 0.0016080764 280.44932 0.0016080764 288.72132 L 0.0016080764 294.21455 C 0.0016080764 302.49555 6.7129433 309.20893 14.982943 309.20893 L 56.460517 309.20893 L 56.460517 273.73998 L 14.982943 273.73998 z M 455.55033 273.73998 L 455.55033 309.20675 L 497.01703 309.20675 C 505.28903 309.20675 511.99836 302.49555 511.99836 294.21455 L 511.99836 288.72132 C 511.99836 280.45032 505.28903 273.73998 497.01703 273.73998 L 455.55033 273.73998 z M 407.0442 284.69817 L 407.0442 311.38143 C 407.0442 314.40227 405.03068 316.41798 402.00983 316.41798 L 375.3244 316.41798 L 407.0442 284.69817 z M 341.59301 316.4158 L 341.59301 346.62638 L 341.59301 376.83479 L 341.59301 396.97446 L 351.66176 396.97446 L 351.66176 316.4158 L 341.59301 316.4158 z M 160.33821 316.41798 L 160.33821 396.97446 L 170.40913 396.97446 L 170.40913 376.83479 L 170.40913 346.62638 L 170.40913 316.41798 L 161.84961 316.41798 L 160.33821 316.41798 z M 455.55033 344.6844 L 455.55033 380.16205 L 497.01703 380.16205 C 505.28903 380.16205 511.99836 373.45084 511.99836 365.16984 L 511.99836 359.67661 C 511.99836 351.39661 505.28903 344.6844 497.01703 344.6844 L 455.55033 344.6844 z M 14.982943 344.68657 C 6.7129433 344.68557 0.0016080764 351.39778 0.0016080764 359.67878 L 0.0016080764 365.17201 C 0.0016080764 373.45301 6.7129433 380.16422 14.982943 380.16422 L 56.460517 380.16422 L 56.460517 344.68657 L 14.982943 344.68657 z M 131.83692 455.54933 L 131.83692 497.00733 C 131.83692 505.28833 138.54826 511.99954 146.81826 511.99954 L 152.33106 511.99954 C 160.60106 511.99954 167.31457 505.28833 167.31457 497.00733 L 167.31457 455.54933 L 131.83692 455.54933 z M 202.79221 455.54933 L 202.79221 497.00733 C 202.79221 505.28833 209.50472 511.99954 217.77572 511.99954 L 223.27983 511.99954 C 231.55083 511.99954 238.26116 505.28833 238.26116 497.00733 L 238.26116 455.54933 L 202.79221 455.54933 z M 273.73881 455.54933 L 273.73881 497.00733 C 273.73881 505.28833 280.44914 511.99954 288.72014 511.99954 L 294.22425 511.99954 C 302.49525 511.99954 309.20776 505.28833 309.20776 497.00733 L 309.20776 455.54933 L 273.73881 455.54933 z M 344.6854 455.54933 L 344.6854 497.00733 C 344.6854 505.28833 351.39674 511.99954 359.66674 511.99954 L 365.18171 511.99954 C 373.45171 511.99954 380.16305 505.28833 380.16305 497.00733 L 380.16305 455.54933 L 344.6854 455.54933 z "
   inkscape:label="foreground"
   transform="matrix(0.89812276,0,0,0.89812276,26.080587,26.081486)" /></svg>
