<?xml version="1.0" encoding="UTF-8" standalone="no"?>
<!-- Uploaded to SVGRepo https://www.svgrepo.com -->

<svg
   version="1.2"
   id="Layer_1"
   x="0px"
   y="0px"
   viewBox="0 0 512 512"
   xml:space="preserve"
   sodipodi:docname="range_upgrade.svg"
   width="512"
   height="512"
   inkscape:version="1.4 (86a8ad7, 2024-10-11)"
   xmlns:inkscape="http://www.inkscape.org/namespaces/inkscape"
   xmlns:sodipodi="http://sodipodi.sourceforge.net/DTD/sodipodi-0.dtd"
   xmlns="http://www.w3.org/2000/svg"
   xmlns:svg="http://www.w3.org/2000/svg"><defs
   id="defs1"><filter
     style="color-interpolation-filters:sRGB;"
     inkscape:label="Drop Shadow"
     id="filter3"
     x="-0.070312946"
     y="-0.070312439"
     width="1.1406259"
     height="1.1406249"><feFlood
       result="flood"
       in="SourceGraphic"
       flood-opacity="1.000000"
       flood-color="rgb(58,63,94)"
       id="feFlood2" /><feGaussianBlur
       result="blur"
       in="SourceGraphic"
       stdDeviation="15.000000"
       id="feGaussianBlur2" /><feOffset
       result="offset"
       in="blur"
       dx="0.000000"
       dy="0.000000"
       id="feOffset2" /><feComposite
       result="comp1"
       operator="out"
       in="flood"
       in2="offset"
       id="feComposite2" /><feComposite
       result="comp2"
       operator="atop"
       in="comp1"
       in2="SourceGraphic"
       id="feComposite3" /></filter></defs><sodipodi:namedview
   id="namedview1"
   pagecolor="#505050"
   bordercolor="#ffffff"
   borderopacity="1"
   inkscape:showpageshadow="0"
   inkscape:pageopacity="0"
   inkscape:pagecheckerboard="1"
   inkscape:deskcolor="#505050"
   inkscape:zoom="1.5917969"
   inkscape:cx="256"
   inkscape:cy="256"
   inkscape:window-width="1920"
   inkscape:window-height="1017"
   inkscape:window-x="-8"
   inkscape:window-y="-8"
   inkscape:window-maximized="1"
   inkscape:current-layer="Layer_1" />

<path
   d="M 0,0 H 512 V 512 H 0 Z"
   fill="#b90202"
   fill-opacity="1"
   id="path902"
   style="fill:#1b1f21;fill-opacity:1"
   inkscape:label="background" /><path
   id="path4079"
   style="fill:#e64539;fill-opacity:1;filter:url(#filter3)"
   class="st0"
   d="M 146.81826 -0.00066243227 C 138.54826 -0.00066243227 131.83692 6.7116517 131.83692 14.992652 L 131.83692 56.459999 L 167.31457 56.459999 L 167.31457 14.992652 C 167.31457 6.7116517 160.60206 -0.00066243227 152.33106 -0.00066243227 L 146.81826 -0.00066243227 z M 217.77572 -0.00066243227 C 209.50472 -0.00066243227 202.79221 6.7116517 202.79221 14.992652 L 202.79221 56.459999 L 238.26116 56.459999 L 238.26116 14.992652 C 238.26116 6.7116517 231.54983 -0.00066243227 223.27983 -0.00066243227 L 217.77572 -0.00066243227 z M 288.72014 -0.00066243227 C 280.44914 -0.00066243227 273.73881 6.7116517 273.73881 14.992652 L 273.73881 56.459999 L 309.20776 56.459999 L 309.20776 14.992652 C 309.20776 6.7116517 302.49525 -0.00066243227 294.22425 -0.00066243227 L 288.72014 -0.00066243227 z M 359.66891 -0.00066243227 C 351.39791 -0.00066243227 344.6854 6.7116517 344.6854 14.992652 L 344.6854 56.459999 L 380.16305 56.459999 L 380.16305 14.992652 C 380.16305 6.7116517 373.45171 -0.00066243227 365.18171 -0.00066243227 L 359.66891 -0.00066243227 z M 78.626978 78.626585 L 78.626978 433.38125 L 433.38169 433.38125 L 433.38169 78.626585 L 78.626978 78.626585 z M 14.982943 131.83597 C 6.7129433 131.83597 0.0016080764 138.54611 0.0016080764 146.82711 L 0.0016080764 152.32139 C 0.0016080764 160.60239 6.7129433 167.31471 14.982943 167.31471 L 56.460517 167.31471 L 56.460517 131.83597 L 14.982943 131.83597 z M 455.55033 131.83597 L 455.55033 167.31471 L 497.01703 167.31471 C 505.28903 167.31471 511.99836 160.60239 511.99836 152.32139 L 511.99836 146.82711 C 511.99836 138.54611 505.28903 131.83597 497.01703 131.83597 L 455.55033 131.83597 z M 255.99998 143.07497 C 313.22038 143.07497 370.44223 165.1257 414.09667 209.22412 L 382.48125 241.15759 C 312.74584 170.71709 199.27667 170.71709 129.51872 241.15759 L 97.903296 209.22412 C 141.55775 165.1257 198.77957 143.07497 255.99998 143.07497 z M 455.55033 202.79126 L 455.55033 238.2591 L 497.01703 238.2591 C 505.28903 238.2591 511.99836 231.54886 511.99836 223.27886 L 511.99836 217.78457 C 511.99836 209.50357 505.28903 202.79126 497.01703 202.79126 L 455.55033 202.79126 z M 14.982943 202.79344 C 6.7129433 202.79244 0.0016080764 209.50475 0.0016080764 217.78675 L 0.0016080764 223.27886 C 0.0016080764 231.54886 6.7129433 238.26128 14.982943 238.26128 L 56.460517 238.26128 L 56.460517 202.79344 L 14.982943 202.79344 z M 256.01086 233.41377 C 290.34199 233.41377 324.67301 246.64755 350.86583 273.1172 L 319.2504 305.05285 C 284.37142 269.82022 227.62558 269.82022 192.76914 305.05285 L 161.15806 273.1172 C 187.3507 246.64755 221.67973 233.41377 256.01086 233.41377 z M 14.982943 273.74001 C 6.7129433 273.73901 0.0016080764 280.45044 0.0016080764 288.72244 L 0.0016080764 294.21454 C 0.0016080764 302.49554 6.7129433 309.20786 14.982943 309.20786 L 56.460517 309.20786 L 56.460517 273.74001 L 14.982943 273.74001 z M 455.55033 273.74001 L 455.55033 309.20786 L 497.01703 309.20786 C 505.28903 309.20786 511.99836 302.49554 511.99836 294.21454 L 511.99836 288.72026 C 511.99836 280.44926 505.28903 273.74001 497.01703 273.74001 L 455.55033 273.74001 z M 255.99998 323.75693 C 267.44178 323.75693 278.88459 328.1679 287.61541 336.9885 L 255.99998 368.92415 L 224.38456 336.9885 C 233.11557 328.1679 244.55817 323.75693 255.99998 323.75693 z M 455.55033 344.68441 L 455.55033 380.16315 L 497.01703 380.16315 C 505.28903 380.16315 511.99836 373.45083 511.99836 365.16983 L 511.99836 359.67773 C 511.99836 351.39773 505.28903 344.68441 497.01703 344.68441 L 455.55033 344.68441 z M 14.982943 344.68659 C 6.7129433 344.68559 0.0016080764 351.39673 0.0016080764 359.67773 L 0.0016080764 365.17201 C 0.0016080764 373.45301 6.7129433 380.16315 14.982943 380.16315 L 56.460517 380.16315 L 56.460517 344.68659 L 14.982943 344.68659 z M 131.83692 455.55001 L 131.83692 497.00647 C 131.83692 505.28747 138.54826 511.99978 146.81826 511.99978 L 152.33106 511.99978 C 160.60106 511.99978 167.31457 505.28747 167.31457 497.00647 L 167.31457 455.55001 L 131.83692 455.55001 z M 202.79221 455.55001 L 202.79221 497.00647 C 202.79221 505.28747 209.50472 511.99978 217.77572 511.99978 L 223.27983 511.99978 C 231.55083 511.99978 238.26116 505.28747 238.26116 497.00647 L 238.26116 455.55001 L 202.79221 455.55001 z M 273.73881 455.55001 L 273.73881 497.00647 C 273.73881 505.28747 280.44914 511.99978 288.72014 511.99978 L 294.22425 511.99978 C 302.49525 511.99978 309.20776 505.28747 309.20776 497.00647 L 309.20776 455.55001 L 273.73881 455.55001 z M 344.6854 455.55001 L 344.6854 497.00647 C 344.6854 505.28747 351.39674 511.99978 359.66674 511.99978 L 365.18171 511.99978 C 373.45171 511.99978 380.16305 505.28747 380.16305 497.00647 L 380.16305 455.55001 L 344.6854 455.55001 z "
   transform="matrix(0.89812276,0,0,0.89688414,26.080587,26.045516)" /></svg>
