<?xml version="1.0" encoding="UTF-8" standalone="no"?>
<!-- Uploaded to SVGRepo https://www.svgrepo.com -->

<svg
   version="1.2"
   id="Layer_1"
   x="0px"
   y="0px"
   viewBox="0 0 512 512"
   xml:space="preserve"
   sodipodi:docname="aerie.svg"
   width="512"
   height="512"
   inkscape:version="1.4 (86a8ad7, 2024-10-11)"
   xmlns:inkscape="http://www.inkscape.org/namespaces/inkscape"
   xmlns:sodipodi="http://sodipodi.sourceforge.net/DTD/sodipodi-0.dtd"
   xmlns="http://www.w3.org/2000/svg"
   xmlns:svg="http://www.w3.org/2000/svg"><defs
   id="defs1"><filter
     style="color-interpolation-filters:sRGB;"
     inkscape:label="Drop Shadow"
     id="filter2"
     x="-0.070312996"
     y="-0.07031242"
     width="1.140626"
     height="1.1406248"><feFlood
       result="flood"
       in="SourceGraphic"
       flood-opacity="1.000000"
       flood-color="rgb(58,63,94)"
       id="feFlood1" /><feGaussianBlur
       result="blur"
       in="SourceGraphic"
       stdDeviation="15.000000"
       id="feGaussianBlur1" /><feOffset
       result="offset"
       in="blur"
       dx="0.000000"
       dy="0.000000"
       id="feOffset1" /><feComposite
       result="comp1"
       operator="out"
       in="flood"
       in2="offset"
       id="feComposite1" /><feComposite
       result="comp2"
       operator="atop"
       in="comp1"
       in2="SourceGraphic"
       id="feComposite2" /></filter></defs><sodipodi:namedview
   id="namedview1"
   pagecolor="#505050"
   bordercolor="#ffffff"
   borderopacity="1"
   inkscape:showpageshadow="0"
   inkscape:pageopacity="0"
   inkscape:pagecheckerboard="1"
   inkscape:deskcolor="#505050"
   inkscape:zoom="1.5917969"
   inkscape:cx="256"
   inkscape:cy="256"
   inkscape:window-width="1920"
   inkscape:window-height="1017"
   inkscape:window-x="-8"
   inkscape:window-y="-8"
   inkscape:window-maximized="1"
   inkscape:current-layer="Layer_1" />

<path
   d="M 0,0 H 512 V 512 H 0 Z"
   fill="#b90202"
   fill-opacity="1"
   id="path902"
   style="fill:#1b1f21;fill-opacity:1"
   inkscape:label="background" /><path
   id="path4079"
   style="fill:#e64539;fill-opacity:1;filter:url(#filter2)"
   class="st0"
   d="m 146.81813,-2.9587605e-4 c -8.27,0 -14.9825,6.71198197605 -14.9825,14.99298187605 v 41.467095 h 35.47913 V 14.992686 c 0,-8.2809999 -6.7115,-14.99298187605 -14.9825,-14.99298187605 z m 70.95616,0 c -8.271,0 -14.98041,6.71198197605 -14.98041,14.99298187605 v 41.467095 h 35.46655 V 14.992686 c 0,-8.2809999 -6.7104,-14.99298187605 -14.9804,-14.99298187605 z m 70.94567,0 c -8.271,0 -14.9804,6.71198197605 -14.9804,14.99298187605 v 41.467095 h 35.46655 V 14.992686 c 0,-8.2809999 -6.7094,-14.99298187605 -14.9804,-14.99298187605 z m 70.94777,0 c -8.271,0 -14.9825,6.71198197605 -14.9825,14.99298187605 v 41.467095 h 35.47913 V 14.992686 c 0,-8.2809999 -6.7125,-14.99298187605 -14.9825,-14.99298187605 z M 78.627422,78.627422 V 433.38096 H 433.38096 V 78.627422 Z M 300.46107,116.16753 c 17.06058,0 31.19265,9.2797 36.44987,22.21796 17.74901,2.01776 36.457,7.55805 51.0361,20.14021 -38.13229,-5.03845 -78.85931,9.09589 -72.7341,31.95469 9.79451,33.81558 -9.09495,66.58719 -34.42452,93.3733 l 13.09553,28.12835 c 12.78667,0.76929 24.23922,8.09923 24.09654,25.1176 -15.99582,-17.22882 -36.54853,-16.07335 -51.42607,-8.56473 4.6312,15.76455 9.37604,34.27936 13.06199,56.70119 -37.51104,17.09148 -74.54598,12.33817 -108.33064,-5.88942 7.77437,-35.0795 16.89337,-61.22324 26.0464,-80.20229 -21.83566,-64.50641 -8.95442,-170.90992 48.95415,-150.35543 17.75496,-11.12977 20.09166,-32.62143 54.17475,-32.62143 z m 6.52052,13.04103 c -5.82914,0 -10.55233,4.72258 -10.55233,10.55232 0,5.83033 4.722,10.55233 10.55233,10.55233 5.83092,0 10.57329,-4.722 10.57329,-10.55233 0,-5.82974 -4.74237,-10.55232 -10.57329,-10.55232 z m -291.999387,2.62707 c -8.2700001,0 -14.98040225,6.71198 -14.98040225,14.99298 v 5.49317 c 0,8.281 6.71040215,14.99298 14.98040225,14.99298 h 41.477578 v -35.47913 z m 440.568487,0 v 35.47913 h 41.4671 c 8.272,0 14.9804,-6.71198 14.9804,-14.99298 v -5.49317 c 0,-8.281 -6.7084,-14.99298 -14.9804,-14.99298 z m 0,70.95616 v 35.46864 h 41.4671 c 8.272,0 14.9804,-6.7125 14.9804,-14.9825 v -5.49316 c 0,-8.281 -6.7084,-14.99298 -14.9804,-14.99298 z m -440.568487,0.002 c -8.2700001,-0.001 -14.98040225,6.71099 -14.98040225,14.99299 v 5.49316 c 0,8.27 6.71040215,14.9804 14.98040225,14.9804 h 41.477578 v -35.46655 z m 0,70.94568 c -8.2700001,-10e-4 -14.98040225,6.7105 -14.98040225,14.9825 v 5.49316 c 0,8.281 6.71040215,14.99298 14.98040225,14.99298 h 41.477578 v -35.46864 z m 440.568487,0 v 35.46655 h 41.4671 c 8.272,0 14.9804,-6.71198 14.9804,-14.99298 v -5.49317 c 0,-8.271 -6.7084,-14.9804 -14.9804,-14.9804 z m -183.10475,18.51322 c -4.3839,4.21565 -8.87221,8.25877 -13.37858,12.09335 1.76688,5.57469 3.67086,11.55718 5.63154,18.00164 4.15382,-4.44097 10.51689,-7.72182 17.42507,-9.3258 z M 14.982203,344.68523 c -8.2700001,-10e-4 -14.98040225,6.71199 -14.98040225,14.99299 v 5.49316 c 0,8.281 6.71040215,14.99298 14.98040225,14.99298 h 41.477578 v -35.47913 z m 440.568487,0 v 35.47704 h 41.4671 c 8.272,0 14.9804,-6.71199 14.9804,-14.99299 v -5.49316 c 0,-8.28 -6.7084,-14.99089 -14.9804,-14.99089 z M 131.83563,455.55069 v 41.45662 c 0,8.281 6.7125,14.99298 14.9825,14.99298 h 5.51413 c 8.27,0 14.9825,-6.71198 14.9825,-14.99298 v -41.45662 z m 70.95825,0 v 41.45662 c 0,8.281 6.70941,14.99298 14.98041,14.99298 h 5.50574 c 8.271,0 14.9804,-6.71198 14.9804,-14.99298 v -41.45662 z m 70.94568,0 v 41.45662 c 0,8.281 6.7094,14.99298 14.9804,14.99298 h 5.50575 c 8.271,0 14.9804,-6.71198 14.9804,-14.99298 v -41.45662 z m 70.94567,0 v 41.45662 c 0,8.281 6.7125,14.99298 14.9825,14.99298 h 5.51413 c 8.27,0 14.98041,-6.71198 14.98041,-14.99298 v -41.45662 z"
   transform="matrix(0.87671822,0,0,0.87671107,31.56015,31.561986)"
   inkscape:label="path1" /></svg>
