<?xml version="1.0" encoding="UTF-8" standalone="no"?>
<!-- Uploaded to SVGRepo https://www.svgrepo.com -->

<svg
   version="1.2"
   id="Layer_1"
   x="0px"
   y="0px"
   viewBox="0 0 512 512"
   xml:space="preserve"
   sodipodi:docname="combat_recorder.svg"
   width="512"
   height="512"
   inkscape:version="1.4 (86a8ad7, 2024-10-11)"
   xmlns:inkscape="http://www.inkscape.org/namespaces/inkscape"
   xmlns:sodipodi="http://sodipodi.sourceforge.net/DTD/sodipodi-0.dtd"
   xmlns="http://www.w3.org/2000/svg"
   xmlns:svg="http://www.w3.org/2000/svg"><defs
   id="defs1"><filter
     style="color-interpolation-filters:sRGB;"
     inkscape:label="Drop Shadow"
     id="filter2"
     x="-0.070312996"
     y="-0.07031242"
     width="1.140626"
     height="1.1406248"><feFlood
       result="flood"
       in="SourceGraphic"
       flood-opacity="1.000000"
       flood-color="rgb(58,63,94)"
       id="feFlood1" /><feGaussianBlur
       result="blur"
       in="SourceGraphic"
       stdDeviation="15.000000"
       id="feGaussianBlur1" /><feOffset
       result="offset"
       in="blur"
       dx="0.000000"
       dy="0.000000"
       id="feOffset1" /><feComposite
       result="comp1"
       operator="out"
       in="flood"
       in2="offset"
       id="feComposite1" /><feComposite
       result="comp2"
       operator="atop"
       in="comp1"
       in2="SourceGraphic"
       id="feComposite2" /></filter></defs><sodipodi:namedview
   id="namedview1"
   pagecolor="#505050"
   bordercolor="#ffffff"
   borderopacity="1"
   inkscape:showpageshadow="0"
   inkscape:pageopacity="0"
   inkscape:pagecheckerboard="1"
   inkscape:deskcolor="#505050"
   inkscape:zoom="1.5917969"
   inkscape:cx="256"
   inkscape:cy="256"
   inkscape:window-width="1920"
   inkscape:window-height="1017"
   inkscape:window-x="-8"
   inkscape:window-y="-8"
   inkscape:window-maximized="1"
   inkscape:current-layer="Layer_1" />

<path
   d="M 0,0 H 512 V 512 H 0 Z"
   fill="#b90202"
   fill-opacity="1"
   id="path902"
   style="fill:#1b1f21;fill-opacity:1"
   inkscape:label="background" /><path
   id="path4079"
   style="fill:#e64539;fill-opacity:1;filter:url(#filter2)"
   class="st0"
   d="m 146.81813,-2.9587605e-4 c -8.27,0 -14.9825,6.71198197605 -14.9825,14.99298187605 v 41.467095 h 35.47913 V 14.992686 c 0,-8.2809999 -6.7115,-14.99298187605 -14.9825,-14.99298187605 z m 70.95616,0 c -8.271,0 -14.98041,6.71198197605 -14.98041,14.99298187605 v 41.467095 h 35.46655 V 14.992686 c 0,-8.2809999 -6.7104,-14.99298187605 -14.9804,-14.99298187605 z m 70.94567,0 c -8.271,0 -14.9804,6.71198197605 -14.9804,14.99298187605 v 41.467095 h 35.46655 V 14.992686 c 0,-8.2809999 -6.7094,-14.99298187605 -14.9804,-14.99298187605 z m 70.94777,0 c -8.271,0 -14.9825,6.71198197605 -14.9825,14.99298187605 v 41.467095 h 35.47913 V 14.992686 c 0,-8.2809999 -6.7125,-14.99298187605 -14.9825,-14.99298187605 z M 78.627422,78.627422 V 433.38096 H 433.38096 V 78.627422 Z M 14.982203,131.83563 c -8.2700001,0 -14.98040225,6.71198 -14.98040225,14.99298 v 5.49317 c 0,8.281 6.71040215,14.99298 14.98040225,14.99298 h 41.477578 v -35.47913 z m 440.568487,0 v 35.47913 h 41.4671 c 8.272,0 14.9804,-6.71198 14.9804,-14.99298 v -5.49317 c 0,-8.281 -6.7084,-14.99298 -14.9804,-14.99298 z M 256,181.99953 c 43.61503,0 87.23013,3.6072 130.83164,10.8207 l 3.93537,0.64995 0.97493,3.86828 c 0.1251,0.49907 0.24173,0.98947 0.36481,1.48651 h 7.25643 l 10.82069,42.96199 h -10.75989 c 1.77379,23.51774 -0.7851,45.69378 -7.68414,73.08843 l -0.72543,2.88286 -2.71933,1.19927 c -33.37399,14.72318 -58.09766,14.72318 -91.47165,0 -15.07213,-6.64951 -22.31293,-19.06577 -27.61468,-28.41349 -2.65088,-4.6742 -4.93898,-8.62684 -7.04886,-10.9423 -2.10921,-2.31546 -3.41299,-3.08833 -6.15989,-3.08833 -2.74691,0 -4.04792,0.77287 -6.1578,3.08833 -2.10988,2.31546 -4.40008,6.2681 -7.05096,10.9423 -5.30175,9.34772 -12.54255,21.76398 -27.61467,28.41349 -33.374,14.72318 -58.09767,14.72318 -91.47166,0 l -2.42999,-1.07138 -0.86591,-2.50966 c -9.50393,-27.51501 -12.45919,-49.93992 -9.98414,-73.58952 h -8.60875 l 10.82069,-42.96409 h 7.15999 c 0.18529,-0.60388 0.36416,-1.20286 0.55351,-1.81148 l 1.1175,-3.57685 3.70054,-0.61431 c 11.96547,-1.97937 23.92955,-3.67733 35.89636,-5.11368 0.0859,-0.17041 0.16781,-0.33906 0.25369,-0.50948 l 0.77576,0.38788 c 9.64053,-1.14488 19.27899,-2.12108 28.92087,-2.91431 0.0223,-0.0548 0.0434,-0.11018 0.065,-0.16564 h 2.08824 c 20.94327,-1.66288 41.8871,-2.50547 62.83173,-2.50547 z m 0,12.16883 c -8.67416,3e-5 -17.34992,0.15737 -26.02544,0.45287 -15.58404,37.08522 -26.11157,75.61834 -27.9753,116.63119 2.66238,-1.02992 5.41116,-2.17227 8.26491,-3.43009 11.32641,-4.99744 16.70971,-14.0632 21.93911,-23.28514 2.61503,-4.61063 5.06963,-9.21518 8.6402,-13.13537 3.57124,-3.91951 8.88773,-7.06144 15.15652,-7.06144 6.26945,0 11.58595,3.14193 15.15651,7.06144 3.57125,3.92019 6.02449,8.52542 8.64021,13.13537 5.23007,9.22194 10.61411,18.2856 21.9412,23.28305 30.57908,13.49039 49.05229,13.78294 78.88141,1.1196 9.5702,-39.2492 9.63225,-65.66276 0.22434,-104.6888 C 339.22153,197.57787 297.61064,194.16836 256,194.16836 Z m -69.77786,3.1701 c -5.71494,0.51665 -11.4327,1.09778 -17.14831,1.7402 -16.99739,36.13713 -24.78047,74.37551 -26.00447,114.33747 5.80691,1.94759 11.24517,3.30094 16.5361,4.05698 4.3638,-41.83381 12.8727,-82.02424 26.61668,-120.13465 z m -31.28587,3.45315 c -8.00673,1.04344 -16.01298,2.20811 -24.02106,3.49298 -11.84779,39.24041 -12.94187,65.19956 0.14886,104.39736 1.58106,-37.2678 8.83727,-73.44312 23.8743,-107.88825 z m 300.61442,2.00018 v 35.46864 h 41.4671 c 8.272,0 14.9804,-6.7125 14.9804,-14.9825 v -5.49316 c 0,-8.281 -6.7084,-14.99298 -14.9804,-14.99298 z m -440.568487,0.002 c -8.2700001,-0.001 -14.98040225,6.71099 -14.98040225,14.99299 v 5.49316 c 0,8.27 6.71040215,14.9804 14.98040225,14.9804 h 41.477578 v -35.46655 z m 317.691457,0.97913 c 13.92535,8.1e-4 27.39054,2.88914 40.02042,8.58988 0.35025,0.1581 0.63023,0.43808 0.78833,0.78833 11.48053,25.43616 11.48032,54.61496 0,80.05133 -0.1581,0.35025 -0.43808,0.63023 -0.78833,0.78833 -12.62988,5.70054 -26.09399,8.59135 -40.02881,8.59198 -13.92556,-6.7e-4 -27.39054,-2.89144 -40.02042,-8.59198 -0.35026,-0.1581 -0.63023,-0.43808 -0.78833,-0.78833 -11.48033,-25.43637 -11.48033,-54.61517 0,-80.05133 0.1581,-0.35025 0.43807,-0.63023 0.78833,-0.78833 12.62988,-5.70074 26.09399,-8.58925 40.02881,-8.58988 z m -1.58086,3.16591 c -5.12407,0.083 -10.18236,0.57268 -15.15233,1.46344 -1.74642,6.51331 -3.08851,13.36736 -4.02133,20.41277 6.28226,-0.68958 12.70934,-1.06868 19.17366,-1.1217 z m 3.15333,0 v 20.75451 c 6.46473,0.053 12.89308,0.43191 19.17575,1.1217 -0.93765,-7.09923 -2.28541,-13.93121 -4.02343,-20.41277 -4.97059,-0.89119 -10.02741,-1.38019 -15.15232,-1.46344 z m -21.74832,2.14904 c -6.16011,1.34613 -12.17767,3.31652 -18.01212,5.9062 -2.58927,5.8355 -4.55419,11.87094 -5.89991,18.01003 6.39494,-1.64089 13.14829,-2.91797 20.10665,-3.80748 0.88446,-6.92221 2.15208,-13.67071 3.80538,-20.10875 z m 40.34121,0 c 1.64656,6.40797 2.92028,13.13525 3.80957,20.10875 6.95753,0.88951 13.71004,2.16659 20.10456,3.80748 -1.34571,-6.13908 -3.31275,-12.17453 -5.90201,-18.01003 -5.83486,-2.58989 -11.85159,-4.56006 -18.01212,-5.9062 z M 331.0928,230.8865 c -6.57511,0.0538 -13.13945,0.44 -19.57202,1.16573 -0.72993,6.41722 -1.12467,12.96922 -1.1783,19.54686 h 20.75032 z m 3.15333,0 v 20.71259 h 20.74822 c -0.0187,-2.16585 -0.0731,-4.33599 -0.16563,-6.51003 -0.037,-0.86996 0.63941,-1.60677 1.50957,-1.64376 0.87458,-0.04 1.60467,0.63962 1.64166,1.50957 0.0944,2.21841 0.14879,4.4338 0.16773,6.64422 h 20.77758 c -0.0849,-5.07256 -0.58062,-10.13969 -1.48442,-15.15023 -6.50552,-1.74327 -13.35981,-3.07533 -20.40437,-4.00037 0.22222,2.03445 0.41282,4.08634 0.57028,6.1578 0.066,0.86827 -0.58469,1.62597 -1.45296,1.69197 -0.0406,0.003 -0.0816,0.004 -0.12161,0.004 -0.81655,0 -1.50728,-0.62946 -1.57037,-1.45716 -0.17387,-2.28756 -0.39159,-4.55217 -0.64576,-6.79307 -6.43215,-0.72573 -12.99503,-1.1121 -19.56992,-1.16573 z m -25.94367,1.56199 c -7.04478,0.92504 -13.89886,2.25919 -20.40438,4.00246 -0.90359,5.01054 -1.39968,10.07558 -1.48441,15.14814 h 20.77758 c 0.0519,-6.43994 0.42206,-12.85573 1.11121,-19.1506 z m -21.88879,22.30602 c 0.0847,5.07256 0.58082,10.13759 1.48441,15.14813 6.50763,1.7437 13.36589,3.07952 20.41277,4.00456 -0.69357,-6.32325 -1.06915,-12.73946 -1.1217,-19.15269 z m 23.92671,0 c 0.0549,6.54673 0.44794,13.09852 1.1825,19.54686 6.43151,0.72552 12.99565,1.11209 19.56992,1.16572 V 254.7546 Z m 23.90575,0 v 20.71258 c 6.57805,-0.0538 13.14531,-0.44145 19.5804,-1.16782 0.72616,-6.388 1.11859,-12.9318 1.16992,-19.54476 z m 23.90365,0 c -0.0494,6.47293 -0.42082,12.88222 -1.10702,19.15059 7.04246,-0.92503 13.89446,-2.25961 20.39808,-4.00246 0.9038,-5.01054 1.39948,-10.07557 1.48442,-15.14813 z m -69.564,18.59499 c 1.34571,6.13907 3.31043,12.17411 5.89991,18.01003 5.83445,2.58968 11.85412,4.56006 18.01422,5.90619 -0.52012,-2.02877 -1.01165,-4.11619 -1.46345,-6.23746 -0.18143,-0.85167 0.36229,-1.69086 1.21395,-1.87229 0.85103,-0.18017 1.68876,0.36228 1.87019,1.21395 0.55271,2.59493 1.16437,5.13931 1.81778,7.57931 4.97143,0.89139 10.02867,1.3802 15.15442,1.46344 v -20.75242 c -6.46263,-0.053 -12.8889,-0.43233 -19.16946,-1.12169 0.29811,2.2491 0.63612,4.48473 1.01896,6.69872 0.14822,0.85797 -0.42705,1.67354 -1.28524,1.82197 -0.0908,0.0156 -0.18132,0.021 -0.27046,0.021 -0.75307,0 -1.41885,-0.53905 -1.5515,-1.3062 -0.43498,-2.5161 -0.81512,-5.05911 -1.14267,-7.61914 -6.95878,-0.8895 -13.7113,-2.16429 -20.10665,-3.80538 z m 88.16737,0 c -6.392,1.64025 -13.14117,2.91586 -20.09617,3.80538 -0.88699,6.93692 -2.16237,13.67722 -3.81587,20.11084 6.16032,-1.34613 12.17537,-3.31651 18.01003,-5.90619 2.58926,-5.83571 4.55629,-11.87096 5.90201,-18.01003 z m -361.770947,0.38997 c -8.2700001,-10e-4 -14.98040225,6.7105 -14.98040225,14.9825 v 5.49316 c 0,8.281 6.71040215,14.99298 14.98040225,14.99298 h 41.477578 v -35.46864 z m 440.568487,0 v 35.46655 h 41.4671 c 8.272,0 14.9804,-6.71198 14.9804,-14.99298 v -5.49317 c 0,-8.271 -6.7084,-14.9804 -14.9804,-14.9804 z m -102.12462,3.79699 c -6.28455,0.69021 -12.71311,1.07078 -19.17994,1.12379 v 20.75242 c 5.12511,-0.0832 10.18361,-0.57226 15.15442,-1.46344 1.74516,-6.50763 3.0904,-13.35286 4.02552,-20.41277 z M 14.982203,344.68523 c -8.2700001,-10e-4 -14.98040225,6.71199 -14.98040225,14.99299 v 5.49316 c 0,8.281 6.71040215,14.99298 14.98040225,14.99298 h 41.477578 v -35.47913 z m 440.568487,0 v 35.47704 h 41.4671 c 8.272,0 14.9804,-6.71199 14.9804,-14.99299 v -5.49316 c 0,-8.28 -6.7084,-14.99089 -14.9804,-14.99089 z M 131.83563,455.55069 v 41.45662 c 0,8.281 6.7125,14.99298 14.9825,14.99298 h 5.51413 c 8.27,0 14.9825,-6.71198 14.9825,-14.99298 v -41.45662 z m 70.95825,0 v 41.45662 c 0,8.281 6.70941,14.99298 14.98041,14.99298 h 5.50574 c 8.271,0 14.9804,-6.71198 14.9804,-14.99298 v -41.45662 z m 70.94568,0 v 41.45662 c 0,8.281 6.7094,14.99298 14.9804,14.99298 h 5.50575 c 8.271,0 14.9804,-6.71198 14.9804,-14.99298 v -41.45662 z m 70.94567,0 v 41.45662 c 0,8.281 6.7125,14.99298 14.9825,14.99298 h 5.51413 c 8.27,0 14.98041,-6.71198 14.98041,-14.99298 v -41.45662 z"
   inkscape:label="path1"
   transform="matrix(0.87671822,0,0,0.87671107,31.56015,31.561986)" />&gt;</svg>
