<?xml version="1.0" encoding="UTF-8" standalone="no"?>
<!-- Uploaded to SVGRepo https://www.svgrepo.com -->

<svg
   version="1.2"
   id="Layer_1"
   x="0px"
   y="0px"
   viewBox="0 0 512 512"
   xml:space="preserve"
   sodipodi:docname="defense_sequencer.svg"
   width="512"
   height="512"
   inkscape:version="1.4 (86a8ad7, 2024-10-11)"
   xmlns:inkscape="http://www.inkscape.org/namespaces/inkscape"
   xmlns:sodipodi="http://sodipodi.sourceforge.net/DTD/sodipodi-0.dtd"
   xmlns="http://www.w3.org/2000/svg"
   xmlns:svg="http://www.w3.org/2000/svg"><defs
   id="defs1"><filter
     style="color-interpolation-filters:sRGB;"
     inkscape:label="Drop Shadow"
     id="filter2"
     x="-0.070312996"
     y="-0.070312418"
     width="1.140626"
     height="1.1406248"><feFlood
       result="flood"
       in="SourceGraphic"
       flood-opacity="1.000000"
       flood-color="rgb(58,63,94)"
       id="feFlood1" /><feGaussianBlur
       result="blur"
       in="SourceGraphic"
       stdDeviation="15.000000"
       id="feGaussianBlur1" /><feOffset
       result="offset"
       in="blur"
       dx="0.000000"
       dy="0.000000"
       id="feOffset1" /><feComposite
       result="comp1"
       operator="out"
       in="flood"
       in2="offset"
       id="feComposite1" /><feComposite
       result="comp2"
       operator="atop"
       in="comp1"
       in2="SourceGraphic"
       id="feComposite2" /></filter></defs><sodipodi:namedview
   id="namedview1"
   pagecolor="#505050"
   bordercolor="#ffffff"
   borderopacity="1"
   inkscape:showpageshadow="0"
   inkscape:pageopacity="0"
   inkscape:pagecheckerboard="1"
   inkscape:deskcolor="#505050"
   inkscape:zoom="1.5917969"
   inkscape:cx="256"
   inkscape:cy="256"
   inkscape:window-width="1920"
   inkscape:window-height="1017"
   inkscape:window-x="-8"
   inkscape:window-y="-8"
   inkscape:window-maximized="1"
   inkscape:current-layer="Layer_1" />

<path
   d="M 0,0 H 512 V 512 H 0 Z"
   fill="#b90202"
   fill-opacity="1"
   id="path902"
   style="fill:#1b1f21;fill-opacity:1"
   inkscape:label="background" /><path
   id="path4079"
   style="fill:#e64539;fill-opacity:1;filter:url(#filter2)"
   class="st0"
   d="m 146.81813,-2.9587605e-4 c -8.27,0 -14.9825,6.71198197605 -14.9825,14.99298187605 v 41.467095 h 35.47913 V 14.992686 c 0,-8.2809999 -6.7115,-14.99298187605 -14.9825,-14.99298187605 z m 70.95616,0 c -8.271,0 -14.98041,6.71198197605 -14.98041,14.99298187605 v 41.467095 h 35.46655 V 14.992686 c 0,-8.2809999 -6.7104,-14.99298187605 -14.9804,-14.99298187605 z m 70.94567,0 c -8.271,0 -14.9804,6.71198197605 -14.9804,14.99298187605 v 41.467095 h 35.46655 V 14.992686 c 0,-8.2809999 -6.7094,-14.99298187605 -14.9804,-14.99298187605 z m 70.94777,0 c -8.271,0 -14.9825,6.71198197605 -14.9825,14.99298187605 v 41.467095 h 35.47913 V 14.992686 c 0,-8.2809999 -6.7125,-14.99298187605 -14.9825,-14.99298187605 z M 78.627422,78.627422 V 433.38096 H 433.38096 V 78.627422 Z m 111.741848,23.549318 -17.66828,53.24804 -77.604561,38.75616 c 0.914801,-13.54742 3.392919,-28.00287 7.631721,-40.71231 5.26534,-15.6773 13.2413,-27.96831 21.65607,-32.36773 z m 131.28242,0.0713 66.06263,18.85287 c 2.02513,1.04748 3.98089,2.51471 5.86636,4.47001 6.21506,6.07539 11.7317,16.06054 15.71213,27.96691 4.18992,12.63961 6.70294,27.23472 7.61075,40.71231 l -77.51441,-38.82535 z m -120.73848,8.03008 h 7.40109 l 41.41049,51.7804 -0.0692,42.59718 h 12.64057 l 0.0692,-42.66637 41.41048,-51.64202 h 7.33191 l 18.01632,54.01541 64.80465,32.40127 -9.84576,37.3619 -62.01195,31.00493 -66.06053,-11.10374 -66.06053,11.10374 -62.02663,-31.00493 -9.83108,-37.3619 64.87384,-32.40127 z M 14.982203,131.83563 c -8.2700001,0 -14.98040225,6.71198 -14.98040225,14.99298 v 5.49317 c 0,8.281 6.71040215,14.99298 14.98040225,14.99298 h 41.477578 v -35.47913 z m 440.568487,0 v 35.47913 h 41.4671 c 8.272,0 14.9804,-6.71198 14.9804,-14.99298 v -5.49317 c 0,-8.281 -6.7084,-14.99298 -14.9804,-14.99298 z m 0,70.95616 v 35.46864 h 41.4671 c 8.272,0 14.9804,-6.7125 14.9804,-14.9825 v -5.49316 c 0,-8.281 -6.7084,-14.99298 -14.9804,-14.99298 z m -440.568487,0.002 c -8.2700001,-0.001 -14.98040225,6.71099 -14.98040225,14.99299 v 5.49316 c 0,8.27 6.71040215,14.9804 14.98040225,14.9804 h 41.477578 v -35.46655 z m 117.180497,47.39217 55.7619,28.00255 61.731,-10.26508 v 10.26508 l -102.09527,30.5877 z m 247.7291,0 -15.43118,58.59025 -102.16445,-30.5877 v -10.26508 l 61.731,10.26508 z m -364.909597,23.5536 c -8.2700001,-10e-4 -14.98040225,6.7105 -14.98040225,14.9825 v 5.49316 c 0,8.281 6.71040215,14.99298 14.98040225,14.99298 h 41.477578 v -35.46864 z m 440.568487,0 v 35.46655 h 41.4671 c 8.272,0 14.9804,-6.71198 14.9804,-14.99298 v -5.49317 c 0,-8.271 -6.7084,-14.9804 -14.9804,-14.9804 z M 249.6556,291.17721 v 32.47256 l -46.57867,23.2537 24.51167,-49.02125 z m 12.64057,0 22.13619,6.70501 24.58086,49.09253 -46.71705,-23.32498 z m -51.18706,11.59225 -42.66846,85.40612 -17.66619,-67.24933 z m 89.80274,0.0713 60.33464,18.0855 -17.66618,67.17804 z m -51.25625,34.91513 0.0692,30.16837 -70.39007,26.39654 14.31577,-28.56235 z m 12.64057,0 56.14348,28.07174 14.24659,28.49317 -70.32088,-26.39654 z m -247.313967,6.92935 c -8.2700001,-0.001 -14.98040225,6.71199 -14.98040225,14.99299 v 5.49316 c 0,8.281 6.71040215,14.99298 14.98040225,14.99298 h 41.477578 v -35.47913 z m 440.568487,0 v 35.47704 h 41.4671 c 8.272,0 14.9804,-6.71199 14.9804,-14.99299 v -5.49316 c 0,-8.28 -6.7084,-14.99089 -14.9804,-14.99089 z m -205.8259,36.64695 v 28.49107 l -56.98214,-7.12434 z m 12.64057,0 57.05342,21.29754 -57.05342,7.12225 z M 131.83563,455.5507 v 41.45662 c 0,8.281 6.7125,14.99298 14.9825,14.99298 h 5.51413 c 8.27,0 14.9825,-6.71198 14.9825,-14.99298 V 455.5507 Z m 70.95825,0 v 41.45662 c 0,8.281 6.70941,14.99298 14.98041,14.99298 h 5.50574 c 8.271,0 14.9804,-6.71198 14.9804,-14.99298 V 455.5507 Z m 70.94568,0 v 41.45662 c 0,8.281 6.7094,14.99298 14.9804,14.99298 h 5.50575 c 8.271,0 14.9804,-6.71198 14.9804,-14.99298 V 455.5507 Z m 70.94567,0 v 41.45662 c 0,8.281 6.7125,14.99298 14.9825,14.99298 h 5.51413 c 8.27,0 14.98041,-6.71198 14.98041,-14.99298 V 455.5507 Z"
   transform="matrix(0.87671822,0,0,0.87671105,31.56015,31.561987)"
   inkscape:label="path1" /></svg>
