<?xml version="1.0" encoding="UTF-8" standalone="no"?>
<!-- Uploaded to SVGRepo https://www.svgrepo.com -->

<svg
   version="1.2"
   id="Layer_1"
   x="0px"
   y="0px"
   viewBox="0 0 512 512"
   xml:space="preserve"
   sodipodi:docname="feline_instinct.svg"
   width="512"
   height="512"
   inkscape:version="1.4 (86a8ad7, 2024-10-11)"
   xmlns:inkscape="http://www.inkscape.org/namespaces/inkscape"
   xmlns:sodipodi="http://sodipodi.sourceforge.net/DTD/sodipodi-0.dtd"
   xmlns="http://www.w3.org/2000/svg"
   xmlns:svg="http://www.w3.org/2000/svg"><defs
   id="defs1"><filter
     style="color-interpolation-filters:sRGB;"
     inkscape:label="Drop Shadow"
     id="filter2"
     x="-0.070312996"
     y="-0.07031242"
     width="1.140626"
     height="1.1406248"><feFlood
       result="flood"
       in="SourceGraphic"
       flood-opacity="1.000000"
       flood-color="rgb(58,63,94)"
       id="feFlood1" /><feGaussianBlur
       result="blur"
       in="SourceGraphic"
       stdDeviation="15.000000"
       id="feGaussianBlur1" /><feOffset
       result="offset"
       in="blur"
       dx="0.000000"
       dy="0.000000"
       id="feOffset1" /><feComposite
       result="comp1"
       operator="out"
       in="flood"
       in2="offset"
       id="feComposite1" /><feComposite
       result="comp2"
       operator="atop"
       in="comp1"
       in2="SourceGraphic"
       id="feComposite2" /></filter></defs><sodipodi:namedview
   id="namedview1"
   pagecolor="#505050"
   bordercolor="#ffffff"
   borderopacity="1"
   inkscape:showpageshadow="0"
   inkscape:pageopacity="0"
   inkscape:pagecheckerboard="1"
   inkscape:deskcolor="#505050"
   inkscape:zoom="1.5917969"
   inkscape:cx="256"
   inkscape:cy="256"
   inkscape:window-width="1920"
   inkscape:window-height="1017"
   inkscape:window-x="-8"
   inkscape:window-y="-8"
   inkscape:window-maximized="1"
   inkscape:current-layer="Layer_1" />

<path
   d="M 0,0 H 512 V 512 H 0 Z"
   fill="#b90202"
   fill-opacity="1"
   id="path902"
   style="fill:#1b1f21;fill-opacity:1"
   inkscape:label="background" /><path
   id="path4079"
   style="fill:#e64539;fill-opacity:1;filter:url(#filter2)"
   class="st0"
   d="m 146.81813,-2.9587605e-4 c -8.27,0 -14.9825,6.71198197605 -14.9825,14.99298187605 v 41.467095 h 35.47913 V 14.992686 c 0,-8.2809999 -6.7115,-14.99298187605 -14.9825,-14.99298187605 z m 70.95616,0 c -8.271,0 -14.98041,6.71198197605 -14.98041,14.99298187605 v 41.467095 h 35.46655 V 14.992686 c 0,-8.2809999 -6.7104,-14.99298187605 -14.9804,-14.99298187605 z m 70.94567,0 c -8.271,0 -14.9804,6.71198197605 -14.9804,14.99298187605 v 41.467095 h 35.46655 V 14.992686 c 0,-8.2809999 -6.7094,-14.99298187605 -14.9804,-14.99298187605 z m 70.94777,0 c -8.271,0 -14.9825,6.71198197605 -14.9825,14.99298187605 v 41.467095 h 35.47913 V 14.992686 c 0,-8.2809999 -6.7125,-14.99298187605 -14.9825,-14.99298187605 z M 78.627422,78.627422 V 433.38096 H 433.38096 V 78.627422 Z m 78.145488,17.286692 h 0.002 c 7.95201,0.07375 15.63147,4.275656 22.24731,13.449866 0.41299,0.57188 0.79916,1.12276 1.15315,1.6752 8.57953,-9.43501 20.01044,-12.541725 32.91495,-7.3948 4.9478,1.97308 7.92841,4.08692 9.3866,6.62115 5.23475,-6.45225 12.86126,-8.85895 23.08806,-5.99216 5.13686,1.44142 8.47113,3.73899 10.43282,7.01741 1.96102,-3.28311 5.29058,-5.57599 10.43282,-7.01741 10.23953,-2.86946 17.87561,-0.45656 23.10902,6.01312 1.45484,-2.54094 4.40643,-4.66434 9.36564,-6.64211 12.9045,-5.146925 24.35571,-2.04021 32.93592,7.3948 0.35332,-0.55244 0.7394,-1.10332 1.15104,-1.6752 42.3466,-58.716577 128.34286,86.29373 49.15124,213.01104 14.31979,-105.17897 -14.41888,-147.36499 -35.13528,-171.86263 3.51039,29.61573 -2.66031,70.15543 -23.59125,114.85324 2.60598,-66.71618 -14.07394,-104.12364 -25.30839,-126.64887 1.71363,26.97691 -6.06434,66.159 -21.62042,106.45206 -4.272,-50.4917 -15.61226,-84.93815 -20.49034,-107.33264 -4.87874,22.39516 -16.21766,56.84363 -20.49034,107.33264 -15.54333,-40.26155 -23.34102,-79.41427 -21.64348,-106.38916 -11.23512,22.53193 -27.86976,59.93346 -25.26646,126.58597 C 167.66679,220.66714 161.49741,180.12812 165.00847,150.51239 144.29208,175.01137 115.529,217.19194 129.85012,322.37293 63.032704,215.45552 113.83164,95.515877 156.77291,95.914114 Z M 14.982203,131.83563 c -8.2700001,0 -14.98040225,6.71198 -14.98040225,14.99298 v 5.49317 c 0,8.281 6.71040215,14.99298 14.98040225,14.99298 h 41.477578 v -35.47913 z m 440.568487,0 v 35.47913 h 41.4671 c 8.272,0 14.9804,-6.71198 14.9804,-14.99298 v -5.49317 c 0,-8.281 -6.7084,-14.99298 -14.9804,-14.99298 z m 0,70.95616 v 35.46864 h 41.4671 c 8.272,0 14.9804,-6.7125 14.9804,-14.9825 v -5.49316 c 0,-8.281 -6.7084,-14.99298 -14.9804,-14.99298 z m -440.568487,0.002 c -8.2700001,-0.001 -14.98040225,6.71099 -14.98040225,14.99299 v 5.49316 c 0,8.27 6.71040215,14.9804 14.98040225,14.9804 h 41.477578 v -35.46655 z m 150.045137,63.43137 h 0.002 c 10.52514,73.27034 38.62766,104.43117 51.18287,121.99855 -6.13179,-23.38004 -2.55665,-63.23162 9.53127,-109.6578 9.34115,53.33501 25.52107,86.91818 30.25433,106.97621 4.73259,-20.05736 20.91108,-53.63651 30.25223,-106.97621 12.08792,46.42618 15.68613,86.27852 9.55434,109.65989 12.55588,-17.56804 40.63818,-48.72887 51.16399,-121.99855 25.6642,99.8745 -12.33869,168.67001 -49.57056,145.27321 -5.06847,-3.18522 -7.42356,-6.09489 -7.7722,-9.3237 -5.52637,7.50484 -13.63006,10.1547 -24.45086,6.66308 -4.71114,-1.52055 -7.63897,-3.79886 -9.17694,-6.95661 -1.53865,3.15708 -4.46647,5.43606 -9.17694,6.95661 -10.8208,3.49162 -18.92448,0.84176 -24.45087,-6.66308 -0.34863,3.22814 -2.70372,6.13915 -7.77219,9.3237 -37.23187,23.39614 -75.23476,-45.40081 -49.57056,-145.2753 z m -150.045137,7.51431 c -8.2700001,-10e-4 -14.98040225,6.7105 -14.98040225,14.9825 v 5.49316 c 0,8.281 6.71040215,14.99298 14.98040225,14.99298 h 41.477578 v -35.46864 z m 440.568487,0 v 35.46655 h 41.4671 c 8.272,0 14.9804,-6.71198 14.9804,-14.99298 v -5.49317 c 0,-8.271 -6.7084,-14.9804 -14.9804,-14.9804 z M 14.982203,344.68523 c -8.2700001,-10e-4 -14.98040225,6.71199 -14.98040225,14.99299 v 5.49316 c 0,8.281 6.71040215,14.99298 14.98040225,14.99298 h 41.477578 v -35.47913 z m 440.568487,0 v 35.47704 h 41.4671 c 8.272,0 14.9804,-6.71199 14.9804,-14.99299 v -5.49316 c 0,-8.28 -6.7084,-14.99089 -14.9804,-14.99089 z M 131.83563,455.55069 v 41.45662 c 0,8.281 6.7125,14.99298 14.9825,14.99298 h 5.51413 c 8.27,0 14.9825,-6.71198 14.9825,-14.99298 v -41.45662 z m 70.95825,0 v 41.45662 c 0,8.281 6.70941,14.99298 14.98041,14.99298 h 5.50574 c 8.271,0 14.9804,-6.71198 14.9804,-14.99298 v -41.45662 z m 70.94568,0 v 41.45662 c 0,8.281 6.7094,14.99298 14.9804,14.99298 h 5.50575 c 8.271,0 14.9804,-6.71198 14.9804,-14.99298 v -41.45662 z m 70.94567,0 v 41.45662 c 0,8.281 6.7125,14.99298 14.9825,14.99298 h 5.51413 c 8.27,0 14.98041,-6.71198 14.98041,-14.99298 v -41.45662 z"
   inkscape:label="path1"
   transform="matrix(0.87671822,0,0,0.87671107,31.56015,31.561986)" /></svg>
