<?xml version="1.0" encoding="UTF-8" standalone="no"?>
<!-- Uploaded to SVGRepo https://www.svgrepo.com -->

<svg
   version="1.2"
   id="Layer_1"
   x="0px"
   y="0px"
   viewBox="0 0 512 512"
   xml:space="preserve"
   sodipodi:docname="hangry_hnagry_dragon.svg"
   width="512"
   height="512"
   inkscape:version="1.4 (86a8ad7, 2024-10-11)"
   xmlns:inkscape="http://www.inkscape.org/namespaces/inkscape"
   xmlns:sodipodi="http://sodipodi.sourceforge.net/DTD/sodipodi-0.dtd"
   xmlns="http://www.w3.org/2000/svg"
   xmlns:svg="http://www.w3.org/2000/svg"><defs
   id="defs1"><filter
     style="color-interpolation-filters:sRGB;"
     inkscape:label="Drop Shadow"
     id="filter2"
     x="-0.070312996"
     y="-0.07031242"
     width="1.140626"
     height="1.1406248"><feFlood
       result="flood"
       in="SourceGraphic"
       flood-opacity="1.000000"
       flood-color="rgb(58,63,94)"
       id="feFlood1" /><feGaussianBlur
       result="blur"
       in="SourceGraphic"
       stdDeviation="15.000000"
       id="feGaussianBlur1" /><feOffset
       result="offset"
       in="blur"
       dx="0.000000"
       dy="0.000000"
       id="feOffset1" /><feComposite
       result="comp1"
       operator="out"
       in="flood"
       in2="offset"
       id="feComposite1" /><feComposite
       result="comp2"
       operator="atop"
       in="comp1"
       in2="SourceGraphic"
       id="feComposite2" /></filter></defs><sodipodi:namedview
   id="namedview1"
   pagecolor="#505050"
   bordercolor="#ffffff"
   borderopacity="1"
   inkscape:showpageshadow="0"
   inkscape:pageopacity="0"
   inkscape:pagecheckerboard="1"
   inkscape:deskcolor="#505050"
   inkscape:zoom="1.5917969"
   inkscape:cx="256"
   inkscape:cy="256"
   inkscape:window-width="1920"
   inkscape:window-height="1017"
   inkscape:window-x="-8"
   inkscape:window-y="-8"
   inkscape:window-maximized="1"
   inkscape:current-layer="Layer_1" />

<path
   d="M 0,0 H 512 V 512 H 0 Z"
   fill="#b90202"
   fill-opacity="1"
   id="path902"
   style="fill:#1b1f21;fill-opacity:1"
   inkscape:label="background" /><path
   id="path4079"
   style="fill:#e64539;fill-opacity:1;filter:url(#filter2)"
   class="st0"
   d="m 146.81813,-2.9587605e-4 c -8.27,0 -14.9825,6.71198197605 -14.9825,14.99298187605 v 41.467095 h 35.47913 V 14.992686 c 0,-8.2809999 -6.7115,-14.99298187605 -14.9825,-14.99298187605 z m 70.95616,0 c -8.271,0 -14.98041,6.71198197605 -14.98041,14.99298187605 v 41.467095 h 35.46655 V 14.992686 c 0,-8.2809999 -6.7104,-14.99298187605 -14.9804,-14.99298187605 z m 70.94567,0 c -8.271,0 -14.9804,6.71198197605 -14.9804,14.99298187605 v 41.467095 h 35.46655 V 14.992686 c 0,-8.2809999 -6.7094,-14.99298187605 -14.9804,-14.99298187605 z m 70.94777,0 c -8.271,0 -14.9825,6.71198197605 -14.9825,14.99298187605 v 41.467095 h 35.47913 V 14.992686 c 0,-8.2809999 -6.7125,-14.99298187605 -14.9825,-14.99298187605 z M 78.627422,78.627422 V 433.38096 H 433.38096 V 78.627422 Z M 215.78249,114.98294 c 10.53388,18.69165 22.8041,33.54657 50.33583,46.89946 -11.01269,-1.66388 -23.22388,0.52196 -29.92726,4.88514 -17.65622,-18.42232 -23.5807,-35.71445 -20.40857,-51.7846 z m -95.52863,3.73619 c 32.54729,26.52622 70.51119,47.62853 115.75899,61.45424 11.79076,-1.31673 26.513,-11.6714 40.57812,-5.56654 24.599,11.19224 74.81422,58.7743 82.35552,55.84157 12.38928,-6.40412 21.24784,-26.57388 20.23036,-48.3 18.37444,20.76849 19.75218,65.77669 18.55515,85.52771 -0.59851,9.81566 -2.99336,20.65051 -13.64694,28.49107 -2.45392,-10.17477 -2.9332,-10.47533 -7.42207,-19.75232 -2.63347,4.96768 -6.76275,9.09749 -11.85013,12.80829 -1.13718,-8.13981 -2.99156,-12.26903 -6.4031,-18.31404 -4.06991,7.96026 -4.66954,8.61844 -10.23574,14.24449 -1.01747,-6.28442 -3.58997,-13.70678 -9.03646,-18.79417 -2.87288,2.81303 -5.74576,5.14743 -14.12498,9.51659 0.77807,-17.2971 -45.06862,-14.42253 -56.91924,-4.24776 11.61121,13.64616 22.98157,24.11929 40.69764,12.74749 2.39406,6.22456 2.21574,11.67071 2.45515,18.19453 6.52382,-0.65837 10.23351,-2.21444 18.01422,-6.4639 -0.41896,4.66842 -0.95716,11.7903 -2.21404,16.33902 5.86545,-0.35911 12.26883,-2.03391 18.43355,-7.06144 2.15465,9.69595 1.79681,11.13265 1.79681,17.17766 9.6361,-1.13718 11.13126,-1.1974 18.67256,-4.9082 0.0598,14.78334 -6.58359,30.40387 -21.24722,32.55852 2.45391,12.03017 -0.83788,24.6597 -5.80556,36.09135 -3.53125,-14.8432 -10.0552,-30.94455 -20.46938,-44.17175 -26.51425,-13.94542 -48.41812,-32.43789 -64.03938,-51.11158 -7.00264,16.10008 -21.48834,25.49594 -35.61331,35.19189 -2.87288,2.15466 -5.86453,4.24959 -8.91696,6.3444 1.13718,-2.63347 2.27403,-5.26758 3.41121,-7.9609 5.08739,-14.72349 12.02974,-31.84051 6.04458,-46.56399 -27.11276,13.10749 -68.08185,22.20529 -99.9588,19.69152 12.92195,-6.46397 62.4924,-25.19776 73.20584,-46.08597 -14.24468,4.90783 -45.90595,11.07218 -78.60885,-0.41932 28.92627,-1.79555 46.96427,-12.56771 61.90921,-23.16144 -23.44386,-8.02011 -46.91155,-18.61511 -61.85051,-39.68287 18.65574,6.04501 44.73895,13.76526 66.33939,15.14184 -29.034,-23.64137 -51.49496,-56.98895 -60.09563,-84.79599 z m -105.271657,13.1165 c -8.2700001,0 -14.98040225,6.71198 -14.98040225,14.99298 v 5.49317 c 0,8.281 6.71040215,14.99298 14.98040225,14.99298 h 41.477578 v -35.47913 z m 440.568487,0 v 35.47913 h 41.4671 c 8.272,0 14.9804,-6.71198 14.9804,-14.99298 v -5.49317 c 0,-8.281 -6.7084,-14.99298 -14.9804,-14.99298 z m -175.5485,62.40402 c -6.28442,5.8056 -13.8253,13.82478 -10.53346,18.55305 7.12234,10.35432 34.89408,16.09969 46.50529,14.36399 -16.69859,-10.83313 -28.01157,-20.40806 -35.97183,-32.91704 z m 175.5485,8.55214 v 35.46864 h 41.4671 c 8.272,0 14.9804,-6.7125 14.9804,-14.9825 v -5.49316 c 0,-8.281 -6.7084,-14.99298 -14.9804,-14.99298 z m -440.568487,0.002 c -8.2700001,-0.001 -14.98040225,6.71099 -14.98040225,14.99299 v 5.49316 c 0,8.27 6.71040215,14.9804 14.98040225,14.9804 h 41.477578 v -35.46655 z m 0,70.94568 c -8.2700001,-10e-4 -14.98040225,6.7105 -14.98040225,14.9825 v 5.49316 c 0,8.281 6.71040215,14.99298 14.98040225,14.99298 h 41.477578 v -35.46864 z m 440.568487,0 v 35.46655 h 41.4671 c 8.272,0 14.9804,-6.71198 14.9804,-14.99298 v -5.49317 c 0,-8.271 -6.7084,-14.9804 -14.9804,-14.9804 z m -244.6764,20.03327 c -0.53867,4.96768 -1.85544,10.65388 -3.83054,16.51933 -7.5413,2.51377 -17.53641,1.49483 -26.39444,-1.6773 1.25688,-2.03496 2.57441,-4.12894 4.01084,-6.28359 8.73834,-2.03496 17.59551,-4.84764 26.21414,-8.55844 z m -40.69973,11.43082 c -23.24636,39.68159 -20.00682,69.24936 -13.35133,91.8134 h -21.62461 c -8.17573,-29.14772 9.83387,-69.01037 28.87265,-90.91605 z m 5.08851,12.86909 c 8.49893,3.35169 18.07466,5.26639 27.2918,4.18907 -2.87288,6.88293 -5.98557,13.64612 -8.73874,19.93053 -9.3967,0.41897 -19.09292,-0.89814 -26.81377,-4.9082 2.03495,-5.98516 4.72947,-12.38832 8.26071,-19.2114 z m 66.67485,3.95005 c 14.18482,31.12282 36.568,55.96146 70.8031,74.99426 h -49.8557 c -24.23989,-19.33206 -40.04084,-36.92822 -44.23045,-57.27776 8.19967,-5.5662 16.10086,-11.43208 23.28305,-17.7165 z M 14.982203,344.68523 c -8.2700001,-10e-4 -14.98040225,6.71199 -14.98040225,14.99299 v 5.49316 c 0,8.281 6.71040215,14.99298 14.98040225,14.99298 h 41.477578 v -35.47913 z m 440.568487,0 v 35.47704 h 41.4671 c 8.272,0 14.9804,-6.71199 14.9804,-14.99299 v -5.49316 c 0,-8.28 -6.7084,-14.99089 -14.9804,-14.99089 z m -291.42071,3.19317 c 13.28705,6.22456 26.87302,8.43972 46.44449,2.81367 2.33421,6.76323 5.80691,13.16619 10.11623,19.33091 -20.94806,5.62604 -36.03079,6.04587 -58.35543,-2.45306 -0.17956,-6.10486 0.29842,-12.62904 1.79471,-19.69152 z m 63.80247,31.36135 c 5.20708,6.04501 11.25099,11.91185 18.01422,17.7773 h -77.86664 c -1.79555,-5.56619 -3.41155,-11.37243 -4.48888,-17.59699 23.16256,7.72085 41.53784,6.34351 64.3413,-0.18031 z m -96.09682,76.31094 v 41.45662 c 0,8.281 6.7125,14.99298 14.9825,14.99298 h 5.51413 c 8.27,0 14.9825,-6.71198 14.9825,-14.99298 v -41.45662 z m 70.95825,0 v 41.45662 c 0,8.281 6.70941,14.99298 14.98041,14.99298 h 5.50574 c 8.271,0 14.9804,-6.71198 14.9804,-14.99298 v -41.45662 z m 70.94568,0 v 41.45662 c 0,8.281 6.7094,14.99298 14.9804,14.99298 h 5.50575 c 8.271,0 14.9804,-6.71198 14.9804,-14.99298 v -41.45662 z m 70.94567,0 v 41.45662 c 0,8.281 6.7125,14.99298 14.9825,14.99298 h 5.51413 c 8.27,0 14.98041,-6.71198 14.98041,-14.99298 v -41.45662 z"
   transform="matrix(0.87671822,0,0,0.87671107,31.56015,31.561986)"
   inkscape:label="path1" /></svg>
