<?xml version="1.0" encoding="UTF-8" standalone="no"?>
<!-- Uploaded to SVGRepo https://www.svgrepo.com -->

<svg
   version="1.2"
   id="Layer_1"
   x="0px"
   y="0px"
   viewBox="0 0 512 512"
   xml:space="preserve"
   sodipodi:docname="perfume_shoppe.svg"
   width="512"
   height="512"
   inkscape:version="1.4 (86a8ad7, 2024-10-11)"
   xmlns:inkscape="http://www.inkscape.org/namespaces/inkscape"
   xmlns:sodipodi="http://sodipodi.sourceforge.net/DTD/sodipodi-0.dtd"
   xmlns="http://www.w3.org/2000/svg"
   xmlns:svg="http://www.w3.org/2000/svg"><defs
   id="defs1"><filter
     style="color-interpolation-filters:sRGB;"
     inkscape:label="Drop Shadow"
     id="filter2"
     x="-0.070312996"
     y="-0.07031242"
     width="1.140626"
     height="1.1406248"><feFlood
       result="flood"
       in="SourceGraphic"
       flood-opacity="1.000000"
       flood-color="rgb(58,63,94)"
       id="feFlood1" /><feGaussianBlur
       result="blur"
       in="SourceGraphic"
       stdDeviation="15.000000"
       id="feGaussianBlur1" /><feOffset
       result="offset"
       in="blur"
       dx="0.000000"
       dy="0.000000"
       id="feOffset1" /><feComposite
       result="comp1"
       operator="out"
       in="flood"
       in2="offset"
       id="feComposite1" /><feComposite
       result="comp2"
       operator="atop"
       in="comp1"
       in2="SourceGraphic"
       id="feComposite2" /></filter></defs><sodipodi:namedview
   id="namedview1"
   pagecolor="#505050"
   bordercolor="#ffffff"
   borderopacity="1"
   inkscape:showpageshadow="0"
   inkscape:pageopacity="0"
   inkscape:pagecheckerboard="1"
   inkscape:deskcolor="#505050"
   inkscape:zoom="1.5917969"
   inkscape:cx="256"
   inkscape:cy="256"
   inkscape:window-width="1920"
   inkscape:window-height="1017"
   inkscape:window-x="-8"
   inkscape:window-y="-8"
   inkscape:window-maximized="1"
   inkscape:current-layer="Layer_1" />

<path
   d="M 0,0 H 512 V 512 H 0 Z"
   fill="#b90202"
   fill-opacity="1"
   id="path902"
   style="fill:#1b1f21;fill-opacity:1"
   inkscape:label="background" /><path
   id="path4079"
   style="fill:#e64539;fill-opacity:1;filter:url(#filter2)"
   class="st0"
   d="m 146.81813,-2.9587605e-4 c -8.27,0 -14.9825,6.71198197605 -14.9825,14.99298187605 v 41.467095 h 35.47913 V 14.992686 c 0,-8.2809999 -6.7115,-14.99298187605 -14.9825,-14.99298187605 z m 70.95616,0 c -8.271,0 -14.98041,6.71198197605 -14.98041,14.99298187605 v 41.467095 h 35.46655 V 14.992686 c 0,-8.2809999 -6.7104,-14.99298187605 -14.9804,-14.99298187605 z m 70.94567,0 c -8.271,0 -14.9804,6.71198197605 -14.9804,14.99298187605 v 41.467095 h 35.46655 V 14.992686 c 0,-8.2809999 -6.7094,-14.99298187605 -14.9804,-14.99298187605 z m 70.94777,0 c -8.271,0 -14.9825,6.71198197605 -14.9825,14.99298187605 v 41.467095 h 35.47913 V 14.992686 c 0,-8.2809999 -6.7125,-14.99298187605 -14.9825,-14.99298187605 z M 78.627422,78.627422 V 433.38096 H 433.38096 V 78.627422 Z m 226.739758,29.499548 12.03045,1.58085 c 24.0392,3.16108 42.05715,11.55888 55.1392,23.0063 -2.90782,-6.72988 -6.81817,-13.10206 -12.37429,-18.88642 17.72955,6.90497 33.96935,39.0128 39.46481,66.84467 5.68056,26.77693 1.4809,55.13605 -4.79498,76.06983 -16.26627,54.25424 -53.40307,79.51646 -91.15717,87.37695 -37.75347,7.86048 -75.90482,-0.61093 -97.88104,-12.59864 -18.56751,-10.12796 -34.64241,-5.50269 -44.48834,4.71532 -9.8453,10.21613 -13.118,25.90755 -3.85989,40.19025 5.36102,8.2732 5.02126,17.25846 0.32498,22.65825 -4.69628,5.39791 -13.37724,6.53881 -19.6475,1.84503 -17.50505,-13.10581 -26.45042,-37.57832 -28.13883,-64.94932 -0.21011,-3.42122 -0.30703,-6.89323 -0.28514,-10.40137 h -0.002 c 0.14758,-24.56324 6.01195,-50.9121 18.01842,-74.02143 20.73742,-39.91401 61.9914,-50.85299 100.70101,-56.11832 19.35418,-2.63142 38.33669,-3.95501 54.3278,-6.67147 15.9905,-2.71584 28.71616,-6.94483 36.06199,-14.04741 7.02254,-6.78928 9.75137,-12.49145 10.06591,-18.26581 -3.82518,-9.29751 -10.18217,-17.19701 -19.68104,-24.13638 5.97635,1.68341 10.57041,3.18519 14.24239,4.83483 -3.12231,-5.94571 -7.28004,-12.25142 -11.50419,-18.81933 z M 14.982203,131.83563 c -8.2700001,0 -14.98040225,6.71198 -14.98040225,14.99298 v 5.49317 c 0,8.281 6.71040215,14.99298 14.98040225,14.99298 h 41.477578 v -35.47913 z m 440.568487,0 v 35.47913 h 41.4671 c 8.272,0 14.9804,-6.71198 14.9804,-14.99298 v -5.49317 c 0,-8.281 -6.7084,-14.99298 -14.9804,-14.99298 z m -156.92207,65.09399 c -4.46678,1.16187 -9.15094,2.11024 -13.99918,2.93318 -16.82844,2.85904 -35.82517,4.16169 -54.69471,6.72808 -37.73784,5.13339 -73.90827,14.88879 -92.23064,50.15342 -11.07409,21.31586 -16.58211,46.11091 -16.74157,68.91195 l -0.002,-0.002 c -0.0225,3.25675 0.0628,6.4727 0.25789,9.6319 1.55896,25.27925 10.19646,46.55823 23.64996,56.62991 2.0092,1.50331 3.35426,0.99091 4.4092,-0.22224 1.05495,-1.21191 2.19168,-3.79261 -1.27894,-9.14549 -12.03711,-18.57251 -7.91743,-40.5142 5.19964,-54.12653 13.11706,-13.61046 35.57309,-19.01003 57.98642,-6.78469 19.00461,10.36496 55.5895,18.66655 90.1969,11.46017 17.0223,-3.54441 33.61601,-10.58542 47.89746,-22.85953 -25.66196,11.89391 -60.59829,18.20353 -81.37011,10.04913 17.61011,-12.78814 72.60052,-31.83227 79.81441,-53.41577 -17.96781,15.33326 -46.92534,23.42987 -72.83055,22.79453 29.46526,-14.95181 46.56174,-37.17539 55.43902,-52.91887 -7.72666,8.1619 -27.442,22.85638 -52.48487,20.80902 18.33676,-12.70059 34.91271,-32.97396 40.06236,-50.62097 -11.89141,8.5765 -15.72043,11.45463 -34.73692,16.07275 10.26178,-9.03612 15.48135,-16.41765 15.45633,-26.07785 z m 156.92207,5.86217 v 35.46864 h 41.4671 c 8.272,0 14.9804,-6.7125 14.9804,-14.9825 v -5.49316 c 0,-8.281 -6.7084,-14.99298 -14.9804,-14.99298 z m -440.568487,0.002 c -8.2700001,-0.001 -14.98040225,6.71099 -14.98040225,14.99299 v 5.49316 c 0,8.27 6.71040215,14.9804 14.98040225,14.9804 h 41.477578 v -35.46655 z m 0,70.94568 c -8.2700001,-10e-4 -14.98040225,6.7105 -14.98040225,14.9825 v 5.49316 c 0,8.281 6.71040215,14.99298 14.98040225,14.99298 h 41.477578 v -35.46864 z m 440.568487,0 v 35.46655 h 41.4671 c 8.272,0 14.9804,-6.71198 14.9804,-14.99298 v -5.49317 c 0,-8.271 -6.7084,-14.9804 -14.9804,-14.9804 z M 14.982203,344.68523 c -8.2700001,-10e-4 -14.98040225,6.71199 -14.98040225,14.99299 v 5.49316 c 0,8.281 6.71040215,14.99298 14.98040225,14.99298 h 41.477578 v -35.47913 z m 440.568487,0 v 35.47704 h 41.4671 c 8.272,0 14.9804,-6.71199 14.9804,-14.99299 v -5.49316 c 0,-8.28 -6.7084,-14.99089 -14.9804,-14.99089 z M 131.83563,455.55069 v 41.45662 c 0,8.281 6.7125,14.99298 14.9825,14.99298 h 5.51413 c 8.27,0 14.9825,-6.71198 14.9825,-14.99298 v -41.45662 z m 70.95825,0 v 41.45662 c 0,8.281 6.70941,14.99298 14.98041,14.99298 h 5.50574 c 8.271,0 14.9804,-6.71198 14.9804,-14.99298 v -41.45662 z m 70.94568,0 v 41.45662 c 0,8.281 6.7094,14.99298 14.9804,14.99298 h 5.50575 c 8.271,0 14.9804,-6.71198 14.9804,-14.99298 v -41.45662 z m 70.94567,0 v 41.45662 c 0,8.281 6.7125,14.99298 14.9825,14.99298 h 5.51413 c 8.27,0 14.98041,-6.71198 14.98041,-14.99298 v -41.45662 z"
   transform="matrix(0.87671151,0,0,0.87671151,31.560037,31.561873)"
   inkscape:label="path1" /></svg>
