<?xml version="1.0" encoding="UTF-8" standalone="no"?>
<!-- Uploaded to SVGRepo https://www.svgrepo.com -->

<svg
   version="1.2"
   id="Layer_1"
   x="0px"
   y="0px"
   viewBox="0 0 512 512"
   xml:space="preserve"
   sodipodi:docname="swamp_mist.svg"
   width="512"
   height="512"
   inkscape:version="1.4 (86a8ad7, 2024-10-11)"
   xmlns:inkscape="http://www.inkscape.org/namespaces/inkscape"
   xmlns:sodipodi="http://sodipodi.sourceforge.net/DTD/sodipodi-0.dtd"
   xmlns="http://www.w3.org/2000/svg"
   xmlns:svg="http://www.w3.org/2000/svg"><defs
   id="defs1"><filter
     style="color-interpolation-filters:sRGB;"
     inkscape:label="Drop Shadow"
     id="filter2"
     x="-0.070312996"
     y="-0.070312419"
     width="1.140626"
     height="1.1406248"><feFlood
       result="flood"
       in="SourceGraphic"
       flood-opacity="1.000000"
       flood-color="rgb(58,63,94)"
       id="feFlood1" /><feGaussianBlur
       result="blur"
       in="SourceGraphic"
       stdDeviation="15.000000"
       id="feGaussianBlur1" /><feOffset
       result="offset"
       in="blur"
       dx="0.000000"
       dy="0.000000"
       id="feOffset1" /><feComposite
       result="comp1"
       operator="out"
       in="flood"
       in2="offset"
       id="feComposite1" /><feComposite
       result="comp2"
       operator="atop"
       in="comp1"
       in2="SourceGraphic"
       id="feComposite2" /></filter></defs><sodipodi:namedview
   id="namedview1"
   pagecolor="#505050"
   bordercolor="#ffffff"
   borderopacity="1"
   inkscape:showpageshadow="0"
   inkscape:pageopacity="0"
   inkscape:pagecheckerboard="1"
   inkscape:deskcolor="#505050"
   inkscape:zoom="1.5917969"
   inkscape:cx="256"
   inkscape:cy="256"
   inkscape:window-width="1920"
   inkscape:window-height="1017"
   inkscape:window-x="-8"
   inkscape:window-y="-8"
   inkscape:window-maximized="1"
   inkscape:current-layer="Layer_1" />

<path
   d="M 0,0 H 512 V 512 H 0 Z"
   fill="#b90202"
   fill-opacity="1"
   id="path902"
   style="fill:#1b1f21;fill-opacity:1"
   inkscape:label="background" /><path
   id="path4079"
   style="fill:#e64539;fill-opacity:1;filter:url(#filter2)"
   class="st0"
   d="m 615.9394,-147.05054 c -8.27,0 -14.9825,6.71199 -14.9825,14.99299 v 41.467093 h 35.47913 v -41.467093 c 0,-8.281 -6.7115,-14.99299 -14.9825,-14.99299 z m 70.95616,0 c -8.271,0 -14.98041,6.71199 -14.98041,14.99299 v 41.467093 h 35.46655 v -41.467093 c 0,-8.281 -6.7104,-14.99299 -14.9804,-14.99299 z m 70.94567,0 c -8.271,0 -14.9804,6.71199 -14.9804,14.99299 v 41.467093 h 35.46655 v -41.467093 c 0,-8.281 -6.7094,-14.99299 -14.9804,-14.99299 z m 70.94777,0 c -8.271,0 -14.9825,6.71199 -14.9825,14.99299 v 41.467093 h 35.47913 v -41.467093 c 0,-8.281 -6.7125,-14.99299 -14.9825,-14.99299 z M 547.74869,-68.422817 V 286.33072 H 902.50223 V -68.422817 Z m 177.39983,10.413957 15.50456,35.47284 c 27.68153,3.49221 52.741,15.4762897 72.47831,33.26299 L 823.49712,0.36123968 832.59229,9.4606097 822.2643,19.78859 c 18.30517,19.97898 30.62008,45.53309 34.07648,73.79919 l 35.73911,15.61987 -35.57347,15.55069 c -3.223,29.03034 -15.77338,55.2701 -34.58806,75.65049 l 10.67393,10.67603 -9.09727,9.09936 -10.74731,-10.74941 c -19.89016,17.78809 -45.12791,29.71728 -72.9857,33.04285 l -14.61349,33.43282 -14.4835,-33.1351 c -29.52265,-2.89733 -56.2411,-15.43489 -76.96299,-34.42033 l -11.82918,11.82707 -9.09726,-9.09726 11.86691,-11.86901 c -18.46354,-20.4871 -30.67538,-46.70964 -33.62571,-75.6484 l -32.85415,-14.3577 33.0114,-14.42899 c 3.18924,-28.17589 15.16929,-53.71064 33.1288,-73.7929 L 612.77559,9.4606097 621.87285,0.36123968 633.33092,11.81722 c 20.56766,-18.9881903 47.10438,-31.59631 76.45352,-34.67403 z M 484.10347,-15.2146 c -8.27,0 -14.9804,6.7119797 -14.9804,14.99297968 V 5.2715497 c 0,8.2810003 6.7104,14.9929803 14.9804,14.9929803 h 41.47758 V -15.2146 Z m 440.56849,0 v 35.47913 h 41.4671 c 8.272,0 14.9804,-6.71198 14.9804,-14.9929803 v -5.49317002 c 0,-8.28099998 -6.7084,-14.99297968 -14.9804,-14.99297968 z m -214.29418,5.2310797 c -26.0902,2.88667 -49.65532,14.06185 -68.00201,30.8476803 l 12.70347,12.70347 c -3.20854,2.85324 -6.2367,5.89952 -9.06792,9.12871 L 633.36027,30.04529 c -15.39269,17.42867 -25.8187,39.34515 -29.08231,63.55926 l 35.70137,15.6052 -35.8712,15.67858 c 3.07635,24.91776 13.73021,47.46688 29.5918,65.27219 l 11.86481,-11.86691 c 2.80988,3.2464 5.82204,6.31492 9.01131,9.18952 l -11.82288,11.82078 c 18.10274,16.42481 41.2291,27.4138 66.8237,30.41577 l 15.57375,-35.62799 15.43118,35.30931 c 24.03645,-3.33179 45.79069,-13.7273 63.11057,-29.02362 l -11.96754,-11.96545 c 3.22782,-2.83053 6.27896,-5.85937 9.1329,-9.06791 l 12.01368,12.01577 c 16.69057,-18.24115 27.83675,-41.63922 30.80155,-67.55123 L 810.2653,109.20765 843.51152,94.67593 C 840.34499,69.47379 829.43288,46.70558 813.21945,28.83554 l -12.81039,12.81039 c -2.87254,-3.18855 -5.94033,-6.20212 -9.18742,-9.0113 L 804.07396,19.7844 C 786.50413,4.1328097 764.31456,-6.4469003 739.78717,-9.6816003 L 725.14852,23.80783 Z M 725.9096,37.66024 c 40.51909,0 73.2268,32.70911 73.2268,73.22891 0,40.51841 -32.70911,73.22679 -73.2289,73.22679 -40.51911,0 -73.2289,-32.70907 -73.2289,-73.22679 0,-40.51911 32.70912,-73.22681 73.2289,-73.22681 z M 924.67196,55.74156 V 91.2102 h 41.4671 c 8.272,0 14.9804,-6.7125 14.9804,-14.9825 v -5.49316 c 0,-8.281 -6.7084,-14.99298 -14.9804,-14.99298 z m -440.56849,0.002 c -8.27,-0.001 -14.9804,6.71099 -14.9804,14.99299 v 5.49316 c 0,8.27 6.7104,14.9804 14.9804,14.9804 h 41.47758 V 55.74356 Z m 240.7054,10.30912 v 0.002 c -24.62998,0 -44.73364,20.10367 -44.73364,44.73364 0,24.62998 20.10366,44.73363 44.73364,44.73363 24.62859,0 44.73364,-20.10365 44.73364,-44.73363 0,-8.46474 -2.37587,-16.39663 -6.49326,-23.15935 0.0155,0.33256 0.0273,0.669 0.0273,1.00638 0,6.14716 -2.64212,11.6765 -6.85178,15.51505 0.46821,2.16403 0.71915,4.40321 0.71915,6.70082 0,17.53402 -14.3529,31.88759 -31.88761,31.88759 -17.53403,0 -31.88551,-14.35357 -31.88551,-31.88759 0,-16.98733 13.47152,-30.98637 30.25643,-31.84358 2.88768,-5.58464 8.20172,-9.70743 14.55269,-10.96536 -4.16765,-1.29099 -8.59025,-1.9897 -13.17101,-1.9897 z m -3.4175,26.13027 c -8.79661,1.68689 -15.35151,9.34435 -15.35151,18.66837 0,10.5799 8.4386,19.0206 19.01851,19.0206 10.57989,0 19.0185,-8.4407 19.0185,-19.0206 0,-0.44272 -0.0186,-0.88082 -0.0482,-1.31459 -0.64101,0.0592 -1.2916,0.0944 -1.94777,0.0944 -10.38436,0 -19.00262,-7.54368 -20.68951,-17.44813 z m -237.2879,34.50629 c -8.27,-0.001 -14.9804,6.7105 -14.9804,14.98249 v 5.49316 c 0,8.281 6.7104,14.99298 14.9804,14.99298 h 41.47758 v -35.46863 z m 440.56849,0 v 35.46654 h 41.4671 c 8.272,0 14.9804,-6.71198 14.9804,-14.99298 v -5.49317 c 0,-8.27099 -6.7084,-14.98039 -14.9804,-14.98039 z M 484.10347,197.6349 c -8.27,-10e-4 -14.9804,6.71199 -14.9804,14.99299 v 5.49316 c 0,8.281 6.7104,14.99298 14.9804,14.99298 h 41.47758 V 197.6349 Z m 440.56849,0 v 35.47704 h 41.4671 c 8.272,0 14.9804,-6.71199 14.9804,-14.99299 v -5.49316 c 0,-8.28 -6.7084,-14.99089 -14.9804,-14.99089 z M 600.9569,308.50045 v 41.45662 c 0,8.281 6.7125,14.99298 14.9825,14.99298 h 5.51413 c 8.27,0 14.9825,-6.71198 14.9825,-14.99298 v -41.45662 z m 70.95825,0 v 41.45662 c 0,8.281 6.70941,14.99298 14.98041,14.99298 h 5.50574 c 8.271,0 14.9804,-6.71198 14.9804,-14.99298 v -41.45662 z m 70.94568,0 v 41.45662 c 0,8.281 6.7094,14.99298 14.9804,14.99298 h 5.50575 c 8.271,0 14.9804,-6.71198 14.9804,-14.99298 v -41.45662 z m 70.94567,0 v 41.45662 c 0,8.281 6.7125,14.99298 14.9825,14.99298 h 5.51413 c 8.27,0 14.98041,-6.71198 14.98041,-14.99298 v -41.45662 z"
   inkscape:label="path1"
   transform="matrix(0.87671777,0,0,0.87671777,-379.7267,160.48366)" />
   </svg>
