<?xml version="1.0" encoding="UTF-8" standalone="no"?>
<svg
   viewBox="0 0 512 512"
   style="height: 512px; width: 512px;"
   version="1.1"
   id="svg21"
   sodipodi:docname="cycle_armor.svg"
   xml:space="preserve"
   inkscape:version="1.4 (86a8ad7, 2024-10-11)"
   xmlns:inkscape="http://www.inkscape.org/namespaces/inkscape"
   xmlns:sodipodi="http://sodipodi.sourceforge.net/DTD/sodipodi-0.dtd"
   xmlns="http://www.w3.org/2000/svg"
   xmlns:svg="http://www.w3.org/2000/svg"><defs
     id="defs1"><filter
       style="color-interpolation-filters:sRGB;"
       inkscape:label="Drop Shadow"
       id="filter3"
       x="-0.070312292"
       y="-0.11448682"
       width="1.1406246"
       height="1.2289736"><feFlood
         result="flood"
         in="SourceGraphic"
         flood-opacity="1.000000"
         flood-color="rgb(58,63,94)"
         id="feFlood2" /><feGaussianBlur
         result="blur"
         in="SourceGraphic"
         stdDeviation="15.000000"
         id="feGaussianBlur2" /><feOffset
         result="offset"
         in="blur"
         dx="0.000000"
         dy="0.000000"
         id="feOffset2" /><feComposite
         result="comp1"
         operator="out"
         in="flood"
         in2="offset"
         id="feComposite2" /><feComposite
         result="comp2"
         operator="atop"
         in="comp1"
         in2="SourceGraphic"
         id="feComposite3" /></filter><filter
       style="color-interpolation-filters:sRGB;"
       inkscape:label="Drop Shadow"
       id="filter18"
       x="-0.4"
       y="-0.35999731"
       width="1.8"
       height="1.7199946"><feFlood
         result="flood"
         in="SourceGraphic"
         flood-opacity="1.000000"
         flood-color="rgb(58,63,94)"
         id="feFlood17" /><feGaussianBlur
         result="blur"
         in="SourceGraphic"
         stdDeviation="3.000000"
         id="feGaussianBlur17" /><feOffset
         result="offset"
         in="blur"
         dx="0.000000"
         dy="0.000000"
         id="feOffset17" /><feComposite
         result="comp1"
         operator="out"
         in="flood"
         in2="offset"
         id="feComposite17" /><feComposite
         result="comp2"
         operator="atop"
         in="comp1"
         in2="SourceGraphic"
         id="feComposite18" /></filter><filter
       style="color-interpolation-filters:sRGB;"
       inkscape:label="Drop Shadow"
       id="filter20"
       x="-0.06966005"
       y="-0.092923423"
       width="1.1393201"
       height="1.1858468"><feFlood
         result="flood"
         in="SourceGraphic"
         flood-opacity="1.000000"
         flood-color="rgb(58,63,94)"
         id="feFlood18" /><feGaussianBlur
         result="blur"
         in="SourceGraphic"
         stdDeviation="15.000000"
         id="feGaussianBlur18" /><feOffset
         result="offset"
         in="blur"
         dx="0.000000"
         dy="0.000000"
         id="feOffset18" /><feComposite
         result="comp1"
         operator="out"
         in="flood"
         in2="offset"
         id="feComposite19" /><feComposite
         result="comp2"
         operator="atop"
         in="comp1"
         in2="SourceGraphic"
         id="feComposite20" /></filter></defs><sodipodi:namedview
     id="namedview1"
     pagecolor="#505050"
     bordercolor="#ffffff"
     borderopacity="1"
     inkscape:showpageshadow="0"
     inkscape:pageopacity="0"
     inkscape:pagecheckerboard="1"
     inkscape:deskcolor="#505050"
     inkscape:zoom="1"
     inkscape:cx="255.5"
     inkscape:cy="255.5"
     inkscape:window-width="1920"
     inkscape:window-height="1017"
     inkscape:window-x="-8"
     inkscape:window-y="-8"
     inkscape:window-maximized="1"
     inkscape:current-layer="svg21" /><path
     d="M0 0h512v512H0z"
     fill="#1b1f21"
     fill-opacity="1"
     id="path15"
     inkscape:label="background" /><path
     id="path363"
     style="height:512px;width:512px;display:inline;fill:#e64539;fill-opacity:1;filter:url(#filter20)"
     class="st0"
     inkscape:label="bicycle"
     d="M 102.29939 98.777166 L 102.29939 117.31104 L 133.43244 117.31104 C 138.30844 117.31104 142.89825 119.64602 145.76625 123.58602 C 147.68224 126.22202 148.68116 129.36662 148.68116 132.55761 C 148.68116 134.13361 148.43638 135.71543 147.93638 137.25743 L 100.7392 282.75477 C 100.7902 282.74777 100.8347 282.73337 100.88473 282.73337 C 107.41773 282.73337 113.43875 284.84986 118.39775 288.37486 L 153.72768 179.46373 L 244.85185 318.21739 C 246.57085 320.83439 249.46699 322.395 252.59499 322.395 L 321.22383 322.395 A 11.336917 11.336917 0 0 1 327.74921 314.87017 C 336.92652 311.19812 345.63395 307.531 353.88497 303.86969 L 265.87047 303.86969 L 297.69694 211.67329 L 377.80137 292.63166 C 383.85177 289.60835 389.50298 286.59194 394.91632 283.57873 L 304.4449 192.13354 L 314.13773 164.06092 L 295.20364 162.11123 L 288.05119 182.82594 L 162.45101 152.57249 L 165.56068 142.9781 C 166.66868 139.56611 167.21075 136.04861 167.21075 132.55761 C 167.21075 125.50762 165.00471 118.53141 160.75172 112.69041 C 154.39573 103.95742 144.24443 98.777166 133.43244 98.777166 L 102.29939 98.777166 z M 275.03896 124.77381 C 271.16996 124.77381 268.03632 127.91145 268.03632 131.77645 L 268.03632 140.58325 C 268.03632 144.18125 270.75028 147.18465 274.32628 147.55165 L 336.67586 153.96146 C 340.33786 154.33546 343.67001 151.81014 344.29701 148.18514 L 346.91658 132.97281 C 347.26658 130.93681 346.70337 128.84639 345.37137 127.27139 C 344.04337 125.68939 342.07967 124.77381 340.01667 124.77381 L 275.03896 124.77381 z M 172.31078 174.00201 L 281.97953 200.42456 L 250.17232 292.56745 L 172.31078 174.00201 z M 100.88473 211.45499 C 45.160738 211.46799 0.0092437836 256.6182 -0.00075621635 312.3362 C 0.0092437836 368.0662 45.160738 413.20983 100.88473 413.22383 C 156.60973 413.20983 201.75894 368.0672 201.76594 312.3362 C 201.76194 275.2232 181.67093 242.88524 151.82293 225.36824 L 141.9653 255.7501 C 144.9393 257.9131 147.77959 260.24348 150.38259 262.84048 C 163.07459 275.55848 170.87543 292.9562 170.88543 312.3362 C 170.87543 331.7162 163.07359 349.12734 150.38259 361.83834 C 137.66559 374.52934 120.26573 382.33204 100.88473 382.33904 C 81.504738 382.33204 64.102734 374.52934 51.384734 361.83834 C 38.694734 349.12734 30.891042 331.7162 30.884042 312.3362 C 30.891042 292.9552 38.693734 275.55848 51.384734 262.84048 C 64.095734 250.15648 81.490194 242.35165 100.86119 242.33765 L 110.72096 211.95579 C 107.48296 211.64179 104.20373 211.45499 100.88473 211.45499 z M 411.11527 211.45499 C 391.07729 211.46199 372.45092 217.37664 356.75494 227.45063 L 379.1668 250.10005 C 388.74079 245.16705 399.56228 242.33765 411.11527 242.33765 C 430.49525 242.34465 447.89514 250.14736 460.61313 262.83834 C 470.20477 272.45039 477.00045 284.7383 479.75267 298.5321 C 489.72369 303.20314 500.51449 307.88501 511.99434 312.57162 C 511.99453 312.49272 512.00076 312.41517 512.00076 312.3362 C 511.99076 256.61826 466.84021 211.46899 411.11527 211.45499 z M 326.19117 258.03366 C 319.72517 268.12766 314.95675 279.39535 312.41275 291.51235 L 344.26277 291.51235 C 345.42077 287.78035 346.94664 284.20883 348.68864 280.77083 L 326.19117 258.03366 z M 422.06438 280.33852 A 10.302537 10.302537 0 0 0 418.35546 281.87302 C 398.40975 295.16329 371.55992 308.58836 337.82941 322.08468 A 10.302537 10.302537 0 0 0 331.34898 331.65552 C 331.34898 382.82822 346.18519 422.87437 371.22035 451.78328 C 388.85829 472.1617 412.24455 486.19294 424.07186 486.19294 C 435.90947 486.19294 459.29786 472.1514 476.9255 451.78328 C 501.96067 422.88467 516.79474 382.83852 516.79474 331.65552 A 10.302537 10.302537 0 0 0 510.3143 322.08468 C 476.5941 308.59866 449.7258 295.16329 429.79039 281.87302 A 10.302537 10.302537 0 0 0 422.06438 280.33852 z M 100.88473 292.00031 C 89.211738 292.00031 79.748411 301.44721 79.748411 313.13021 C 79.748411 324.80621 89.211738 334.26653 100.88473 334.26653 C 112.55473 334.26653 122.01678 324.80621 122.01678 313.13021 C 122.01678 301.44721 112.55473 292.00031 100.88473 292.00031 z M 312.82152 334.75235 C 314.97031 344.21091 318.45784 353.1547 323.05154 361.39747 C 321.86298 352.85438 321.07629 343.98766 320.77012 334.75235 L 312.82152 334.75235 z "
     transform="matrix(0.91260259,0,0,0.91260259,22.373737,22.373281)" /></svg>
