<?xml version="1.0" encoding="UTF-8" standalone="no"?>
<svg
   viewBox="0 0 512 512"
   style="height: 512px; width: 512px;"
   version="1.1"
   id="svg21"
   sodipodi:docname="reinforced_frame.svg"
   xml:space="preserve"
   inkscape:version="1.4 (86a8ad7, 2024-10-11)"
   xmlns:inkscape="http://www.inkscape.org/namespaces/inkscape"
   xmlns:sodipodi="http://sodipodi.sourceforge.net/DTD/sodipodi-0.dtd"
   xmlns="http://www.w3.org/2000/svg"
   xmlns:svg="http://www.w3.org/2000/svg"><defs
     id="defs1"><filter
       style="color-interpolation-filters:sRGB;"
       inkscape:label="Drop Shadow"
       id="filter2"
       x="-0.070312292"
       y="-0.11448682"
       width="1.1406246"
       height="1.2289736"><feFlood
         result="flood"
         in="SourceGraphic"
         flood-opacity="1.000000"
         flood-color="rgb(58,63,94)"
         id="feFlood1" /><feGaussianBlur
         result="blur"
         in="SourceGraphic"
         stdDeviation="15.000000"
         id="feGaussianBlur1" /><feOffset
         result="offset"
         in="blur"
         dx="0.000000"
         dy="0.000000"
         id="feOffset1" /><feComposite
         result="comp1"
         operator="out"
         in="flood"
         in2="offset"
         id="feComposite1" /><feComposite
         result="comp2"
         operator="atop"
         in="comp1"
         in2="SourceGraphic"
         id="feComposite2" /></filter><filter
       style="color-interpolation-filters:sRGB;"
       inkscape:label="Drop Shadow"
       id="filter4"
       x="-0.070312727"
       y="-0.070313873"
       width="1.1406255"
       height="1.1406277"><feFlood
         result="flood"
         in="SourceGraphic"
         flood-opacity="1.000000"
         flood-color="rgb(58,63,94)"
         id="feFlood2" /><feGaussianBlur
         result="blur"
         in="SourceGraphic"
         stdDeviation="15.000000"
         id="feGaussianBlur2" /><feOffset
         result="offset"
         in="blur"
         dx="0.000000"
         dy="0.000000"
         id="feOffset2" /><feComposite
         result="comp1"
         operator="out"
         in="flood"
         in2="offset"
         id="feComposite3" /><feComposite
         result="comp2"
         operator="atop"
         in="comp1"
         in2="SourceGraphic"
         id="feComposite4" /></filter></defs><sodipodi:namedview
     id="namedview1"
     pagecolor="#505050"
     bordercolor="#ffffff"
     borderopacity="1"
     inkscape:showpageshadow="0"
     inkscape:pageopacity="0"
     inkscape:pagecheckerboard="1"
     inkscape:deskcolor="#505050"
     inkscape:zoom="1.5917969"
     inkscape:cx="256"
     inkscape:cy="256"
     inkscape:window-width="1920"
     inkscape:window-height="1017"
     inkscape:window-x="-8"
     inkscape:window-y="-8"
     inkscape:window-maximized="1"
     inkscape:current-layer="svg21" /><path
     d="M0 0h512v512H0z"
     fill="#1b1f21"
     fill-opacity="1"
     id="path15"
     inkscape:label="background" /><path
     id="path363"
     style="height:512px;width:512px;fill:#e64539;fill-opacity:1;filter:url(#filter2)"
     class="st0"
     d="M 102.29939 98.777166 L 102.29939 117.31104 L 133.43244 117.31104 C 138.30844 117.31104 142.89825 119.64602 145.76625 123.58602 C 147.68224 126.22202 148.68116 129.36662 148.68116 132.55761 C 148.68116 134.13361 148.43638 135.71543 147.93638 137.25743 L 100.7392 282.75477 C 100.7902 282.74777 100.8347 282.73337 100.88473 282.73337 C 107.41773 282.73337 113.43875 284.84986 118.39775 288.37486 L 153.72768 179.46373 L 244.85185 318.21739 C 246.57085 320.83439 249.46699 322.395 252.59499 322.395 L 379.51137 322.395 C 379.99574 321.39081 379.73823 319.02424 379.73823 319.02424 C 379.73823 319.02424 379.98007 315.04146 379.98007 313.13021 C 379.98007 309.88521 381.36299 306.80769 382.31499 303.86969 L 265.87047 303.86969 L 297.69694 211.67329 L 384.27111 299.16988 C 384.29741 299.11958 384.3344 299.07658 384.361 299.02648 C 386.54535 292.99495 390.11093 287.6605 394.66164 283.31977 L 304.4449 192.13354 L 314.13773 164.06092 L 295.20364 162.11123 L 288.05119 182.82594 L 162.45101 152.57249 L 165.56068 142.9781 C 166.66868 139.56611 167.21075 136.04861 167.21075 132.55761 C 167.21075 125.50762 165.00471 118.53141 160.75172 112.69041 C 154.39573 103.95742 144.24443 98.777166 133.43244 98.777166 L 102.29939 98.777166 z M 275.03896 124.77381 C 271.16996 124.77381 268.03632 127.91145 268.03632 131.77645 L 268.03632 140.58325 C 268.03632 144.18125 270.75028 147.18465 274.32628 147.55165 L 336.67586 153.96146 C 340.33786 154.33546 343.67001 151.81014 344.29701 148.18514 L 346.91658 132.97281 C 347.26658 130.93681 346.70337 128.84639 345.37137 127.27139 C 344.04337 125.68939 342.07967 124.77381 340.01667 124.77381 L 275.03896 124.77381 z M 172.31078 174.00201 L 281.97953 200.42456 L 250.17232 292.56745 L 172.31078 174.00201 z M 100.88473 211.45499 C 45.160734 211.46799 0.0092437836 256.6182 -0.00075621635 312.3362 C 0.0092437836 368.0662 45.160734 413.20983 100.88473 413.22383 C 156.60973 413.20983 201.75894 368.0672 201.76594 312.3362 C 201.76194 275.2232 181.67093 242.88524 151.82293 225.36824 L 141.9653 255.7501 C 144.9393 257.9131 147.77959 260.24348 150.38259 262.84048 C 163.07459 275.55848 170.87543 292.9562 170.88543 312.3362 C 170.87543 331.7162 163.07359 349.12734 150.38259 361.83834 C 137.66559 374.52934 120.26573 382.33204 100.88473 382.33904 C 81.504734 382.33204 64.102734 374.52934 51.384734 361.83834 C 38.694734 349.12734 30.891042 331.7162 30.884042 312.3362 C 30.891042 292.9552 38.693734 275.55848 51.384734 262.84048 C 64.095734 250.15648 81.490192 242.35165 100.86119 242.33765 L 110.72096 211.95579 C 107.48296 211.64179 104.20373 211.45499 100.88473 211.45499 z M 411.11527 211.45499 C 391.07729 211.46199 372.45092 217.37664 356.75494 227.45063 L 379.1668 250.10005 C 388.74079 245.16705 399.56228 242.33765 411.11527 242.33765 C 430.49525 242.34465 447.89514 250.14736 460.61313 262.83834 C 473.30411 275.55633 481.10996 292.95408 481.11596 312.33406 C 481.1144 317.37825 480.57327 322.28638 479.56647 327.01563 C 482.01005 326.89592 484.02609 326.77337 487.33957 326.70745 C 493.51704 326.70745 498.92835 331.2158 500.55513 337.71862 L 504.04146 351.66825 C 509.16259 339.58261 511.99825 326.29215 512.00076 312.3362 C 511.99076 256.61826 466.84021 211.46899 411.11527 211.45499 z M 326.19117 258.03366 C 319.72517 268.12766 314.95675 279.39535 312.41275 291.51235 L 344.26277 291.51235 C 345.42077 287.78035 346.94664 284.20883 348.68864 280.77083 L 326.19117 258.03366 z M 100.88473 292.00031 C 89.211734 292.00031 79.748411 301.44721 79.748411 313.13021 C 79.748411 324.80621 89.211734 334.26653 100.88473 334.26653 C 112.55473 334.26653 122.01678 324.80621 122.01678 313.13021 C 122.01678 301.44721 112.55473 292.00031 100.88473 292.00031 z M 312.82152 334.75235 C 316.57768 351.28622 324.39163 366.26905 335.14992 378.61514 L 345.37779 337.71862 C 345.44206 337.46123 345.5993 337.2614 345.67528 337.01023 C 345.39263 336.25938 345.09635 335.51503 344.83847 334.75235 L 312.82152 334.75235 z "
     inkscape:label="bicycle"
     transform="matrix(0.91260259,0,0,0.91260259,22.373737,22.373281)" /><path
     d="m 513.25178,445.86 -73.03,-292.13 c -3.8,-15.19 -16.44,-25.72 -30.87,-25.72 h -60.25 c 3.57,-10.05 5.88,-20.72 5.88,-32 0,-53.02 -42.98,-96 -96,-96 -53.02,0 -96,42.98 -96,96 0,11.28 2.3,21.95 5.88,32 h -60.25 c -14.429992,0 -27.079992,10.54 -30.869992,25.72 L 4.691787,445.86 c -8.33,33.31 14.660001,66.14 46.310001,66.14 H 466.95178 c 31.64,0 54.63,-32.83 46.3,-66.14 z M 258.97178,128 c -17.64,0 -32,-14.36 -32,-32 0,-17.64 14.36,-32 32,-32 17.64,0 32,14.36 32,32 0,17.64 -14.36,32 -32,32 z"
     id="path2051"
     style="display:inline;fill:#e64539;fill-opacity:1;filter:url(#filter4)"
     transform="matrix(0.36501464,0,0,0.36501464,314.4141,278.72889)"
     inkscape:label="weight" /></svg>
