<svg version="1.2" id="Layer_1" x="0px" y="0px" viewBox="-421 153 512 512" xml:space="preserve" sodipodi:docname="holo_projector_palm.svg" width="512" height="512" inkscape:version="1.2.2 (b0a8486541, 2022-12-01)" xmlns:inkscape="http://www.inkscape.org/namespaces/inkscape" xmlns:sodipodi="http://sodipodi.sourceforge.net/DTD/sodipodi-0.dtd" xmlns="http://www.w3.org/2000/svg" xmlns:svg="http://www.w3.org/2000/svg"><defs id="defs7"><filter inkscape:label="Drop Shadow" id="filter980" x="-0.19212002" y="-0.15482707" width="1.3740387" height="1.3014526" color-interpolation-filters="sRGB"><feFlood flood-opacity="1" flood-color="rgb(58,63,94)" result="flood" id="feFlood970"/><feComposite in="flood" in2="SourceGraphic" operator="out" result="composite1" id="feComposite972"/><feGaussianBlur in="composite1" stdDeviation="15" result="blur" id="feGaussianBlur974"/><feOffset dx="0" dy="0" result="offset" id="feOffset976"/><feComposite in="offset" in2="SourceGraphic" operator="atop" result="composite2" id="feComposite978"/></filter><filter inkscape:label="Drop Shadow" id="filter1066" x="-0.059353573" y="-0.047838673" width="1.1187071" height="1.0956773" color-interpolation-filters="sRGB"><feFlood flood-opacity="1" flood-color="rgb(58,63,94)" result="flood" id="feFlood1056"/><feComposite in="flood" in2="SourceGraphic" operator="out" result="composite1" id="feComposite1058"/><feGaussianBlur in="composite1" stdDeviation="9.78793" result="blur" id="feGaussianBlur1060"/><feOffset dx="0" dy="0" result="offset" id="feOffset1062"/><feComposite in="offset" in2="SourceGraphic" operator="atop" result="composite2" id="feComposite1064"/></filter></defs><sodipodi:namedview id="namedview5" pagecolor="#505050" bordercolor="#eeeeee" borderopacity="1" inkscape:pageshadow="0" inkscape:pageopacity="0" inkscape:pagecheckerboard="0" showgrid="false" showguides="true" inkscape:guide-bbox="true" inkscape:zoom="1.4142136" inkscape:cx="277.89296" inkscape:cy="246.78026" inkscape:window-width="1716" inkscape:window-height="1402" inkscape:window-x="3160" inkscape:window-y="684" inkscape:window-maximized="1" inkscape:current-layer="Layer_1" inkscape:showpageshadow="2" inkscape:deskcolor="#505050"/><g id="g439" transform="translate(-421,153)" fill="#1b1f21" fill-opacity="1"><g id="g8" fill="#1b1f21" fill-opacity="1"/><g id="g10" fill="#1b1f21" fill-opacity="1"/><g id="g12" fill="#1b1f21" fill-opacity="1"/><g id="g14" fill="#1b1f21" fill-opacity="1"/><g id="g16" fill="#1b1f21" fill-opacity="1"/><g id="g18" fill="#1b1f21" fill-opacity="1"/><g id="g20" fill="#1b1f21" fill-opacity="1"/><g id="g22" fill="#1b1f21" fill-opacity="1"/><g id="g24" fill="#1b1f21" fill-opacity="1"/><g id="g26" fill="#1b1f21" fill-opacity="1"/><g id="g28" fill="#1b1f21" fill-opacity="1"/><g id="g30" fill="#1b1f21" fill-opacity="1"/><g id="g32" fill="#1b1f21" fill-opacity="1"/><g id="g34" fill="#1b1f21" fill-opacity="1"/><g id="g36" fill="#1b1f21" fill-opacity="1"/><g id="g1182" transform="translate(131.26512,78.461363)" fill="#1b1f21" fill-opacity="1"><g id="g14-6" fill="#1b1f21" fill-opacity="1"/><g id="g16-7" fill="#1b1f21" fill-opacity="1"/><g id="g18-5" fill="#1b1f21" fill-opacity="1"/><g id="g20-3" fill="#1b1f21" fill-opacity="1"/><g id="g22-5" fill="#1b1f21" fill-opacity="1"/><g id="g24-6" fill="#1b1f21" fill-opacity="1"/><g id="g26-2" fill="#1b1f21" fill-opacity="1"/><g id="g28-9" fill="#1b1f21" fill-opacity="1"/><g id="g30-1" fill="#1b1f21" fill-opacity="1"/><g id="g32-27" fill="#1b1f21" fill-opacity="1"/><g id="g34-09" fill="#1b1f21" fill-opacity="1"/><g id="g36-3" fill="#1b1f21" fill-opacity="1"/><g id="g38" fill="#1b1f21" fill-opacity="1"/><g id="g40" fill="#1b1f21" fill-opacity="1"/><g id="g42" fill="#1b1f21" fill-opacity="1"/><g id="g541" transform="translate(26.047449,-8.0026715)" fill="#1b1f21" fill-opacity="1"><g id="g20-6" fill="#1b1f21" fill-opacity="1"/><g id="g22-7" fill="#1b1f21" fill-opacity="1"/><g id="g24-5" fill="#1b1f21" fill-opacity="1"/><g id="g26-3" fill="#1b1f21" fill-opacity="1"/><g id="g28-5" fill="#1b1f21" fill-opacity="1"/><g id="g30-6" fill="#1b1f21" fill-opacity="1"/><g id="g32-2" fill="#1b1f21" fill-opacity="1"/><g id="g34-9" fill="#1b1f21" fill-opacity="1"/><g id="g36-1" fill="#1b1f21" fill-opacity="1"/><g id="g38-2" fill="#1b1f21" fill-opacity="1"/><g id="g40-7" fill="#1b1f21" fill-opacity="1"/><g id="g42-0" fill="#1b1f21" fill-opacity="1"/><g id="g44" fill="#1b1f21" fill-opacity="1"/><g id="g46" fill="#1b1f21" fill-opacity="1"/><g id="g48" fill="#1b1f21" fill-opacity="1"/><g id="g319" transform="translate(-157.31257,-70.458691)" fill="#1b1f21" fill-opacity="1"><g id="g949" fill="#1b1f21" fill-opacity="1"><path d="M 0,0 H 512 V 512 H 0 Z" fill="#1b1f21" fill-opacity="1" id="path902"/><g id="g1524" transform="matrix(0.65299367,0.65095314,-0.65095314,0.65299367,760.96027,405.16803)" fill="#1b1f21" fill-opacity="1"><g class="" id="g1513" fill="#1b1f21" fill-opacity="1"/></g><g id="g1741" transform="matrix(0.73148951,-0.72519164,0.72519164,0.73148951,174.72172,-127.52936)" fill="#1b1f21" fill-opacity="1"><g class="" id="g1730" fill="#1b1f21" fill-opacity="1"/></g></g><g id="g10-6" fill="#1b1f21" fill-opacity="1"/><g id="g12-7" fill="#1b1f21" fill-opacity="1"/><g id="g14-9" fill="#1b1f21" fill-opacity="1"/><g id="g16-5" fill="#1b1f21" fill-opacity="1"/><g id="g18-3" fill="#1b1f21" fill-opacity="1"/><g id="g20-5" fill="#1b1f21" fill-opacity="1"/><g id="g22-6" fill="#1b1f21" fill-opacity="1"/><g id="g24-2" fill="#1b1f21" fill-opacity="1"/><g id="g26-9" fill="#1b1f21" fill-opacity="1"/><g id="g28-1" fill="#1b1f21" fill-opacity="1"/><g id="g30-2" fill="#1b1f21" fill-opacity="1"/><g id="g32-7" fill="#1b1f21" fill-opacity="1"/><g id="g34-0" fill="#1b1f21" fill-opacity="1"/><g id="g36-9" fill="#1b1f21" fill-opacity="1"/><g id="g38-3" fill="#1b1f21" fill-opacity="1"/></g></g></g><g id="g1551" transform="matrix(0.51222721,0,0,0.51222721,124.85437,126.07888)" fill="#1b1f21" fill-opacity="1"><g id="g1478" fill="#1b1f21" fill-opacity="1"><g id="g1476" fill="#1b1f21" fill-opacity="1"/></g><g id="g1484" fill="#1b1f21" fill-opacity="1"><g id="g1482" fill="#1b1f21" fill-opacity="1"/></g><g id="g1490" fill="#1b1f21" fill-opacity="1"><g id="g1488" fill="#1b1f21" fill-opacity="1"/></g><g id="g1492" fill="#1b1f21" fill-opacity="1"/><g id="g1494" fill="#1b1f21" fill-opacity="1"/><g id="g1496" fill="#1b1f21" fill-opacity="1"/><g id="g1498" fill="#1b1f21" fill-opacity="1"/><g id="g1500" fill="#1b1f21" fill-opacity="1"/><g id="g1502" fill="#1b1f21" fill-opacity="1"/><g id="g1504" fill="#1b1f21" fill-opacity="1"/><g id="g1506" fill="#1b1f21" fill-opacity="1"/><g id="g1508" fill="#1b1f21" fill-opacity="1"/><g id="g1510" fill="#1b1f21" fill-opacity="1"/><g id="g1512" fill="#1b1f21" fill-opacity="1"/><g id="g1514" fill="#1b1f21" fill-opacity="1"/><g id="g1516" fill="#1b1f21" fill-opacity="1"/><g id="g1518" fill="#1b1f21" fill-opacity="1"/><g id="g1520" fill="#1b1f21" fill-opacity="1"/></g></g><path id="path2" d="M 333.42969 7.1855469 L 253.22266 7.2539062 L 253.2207 7.2539062 L 175.58398 7.1894531 C 175.58398 7.1894531 186.92931 87.591797 253.4043 87.591797 C 321.56512 87.591797 333.42969 7.1855469 333.42969 7.1855469 z M 156.67188 106.63672 C 102.00253 106.63672 58.109375 150.52793 58.109375 205.19727 L 58.109375 446.20703 C 58.109375 465.07176 73.125021 480.85742 92.759766 480.85742 C 112.3945 480.85742 127.41016 465.84176 127.41016 446.20703 L 127.41016 224.83203 C 127.41016 219.44217 132.03186 214.82227 137.42188 214.82227 C 142.81174 214.82227 147.42969 219.44217 147.42969 224.83203 L 147.42969 498.23242 L 245.99023 498.23242 L 245.99023 481.62695 C 245.99023 476.2371 250.61209 471.61719 256.00195 471.61719 C 261.39195 471.61719 266.00977 476.2371 266.00977 481.62695 L 266.00977 498.23242 L 364.56836 498.23242 L 364.56836 224.83203 C 364.56836 219.44217 369.19008 214.82227 374.58008 214.82227 C 379.96994 214.82227 384.58984 219.44217 384.58984 224.83203 L 384.58984 446.5918 C 384.58984 465.45653 399.6055 481.24219 419.24023 481.24219 C 438.87496 481.24219 453.89063 466.22653 453.89062 446.5918 L 453.89062 205.19727 C 452.35076 150.52793 407.3052 106.63672 353.79102 106.63672 L 156.67188 106.63672 z M 255.99805 178.65234 C 283.85302 178.65234 306.51562 201.31456 306.51562 229.16992 C 306.51562 257.02528 283.85263 279.6875 255.99805 279.6875 C 228.14334 279.6875 205.48047 257.02489 205.48047 229.16992 C 205.48047 201.31495 228.14334 178.65234 255.99805 178.65234 z M 255.99805 194.31641 C 252.40036 198.85408 247.37539 207.71657 246.21484 222.66797 L 265.78125 222.66797 C 264.6211 207.71657 259.5956 198.85369 255.99805 194.31641 z M 240.25977 195.12305 C 229.30523 200.20672 221.19895 210.42399 219.05078 222.66797 L 233.17969 222.66797 C 233.98077 210.78578 236.91834 201.75748 240.25977 195.12305 z M 271.73633 195.12305 C 275.07763 201.75787 278.01532 210.78578 278.81641 222.66797 L 292.94531 222.66797 C 290.79675 210.42399 282.69047 200.20672 271.73633 195.12305 z M 219.05078 235.67188 C 221.19934 247.91573 229.30562 258.13469 240.25977 263.21875 C 236.91834 256.58393 233.98077 247.55394 233.17969 235.67188 L 219.05078 235.67188 z M 246.2207 235.67188 C 247.39527 250.52306 252.44483 259.43739 256.01953 263.99609 C 259.61604 259.45064 264.62343 250.59354 265.78125 235.67188 L 246.2207 235.67188 z M 278.81641 235.67188 C 278.01532 247.55394 275.07802 256.58432 271.73633 263.21875 C 282.69086 258.13469 290.79675 247.91573 292.94531 235.67188 L 278.81641 235.67188 z M 193.79883 262.3418 L 206.80273 262.3418 L 206.80273 284.86523 L 193.79883 284.86523 L 193.79883 262.3418 z M 305.19336 262.3418 L 318.19727 262.3418 L 318.19727 284.86523 L 305.19336 284.86523 L 305.19336 262.3418 z M 193.79883 296.33398 L 206.80273 296.33398 L 206.80273 318.85742 L 193.79883 318.85742 L 193.79883 296.33398 z M 221.65039 296.33398 L 234.6543 296.33398 L 234.6543 318.85742 L 221.65039 318.85742 L 221.65039 296.33398 z M 249.49609 296.33398 L 262.5 296.33398 L 262.5 318.85742 L 249.49609 318.85742 L 249.49609 296.33398 z M 277.3418 296.33398 L 290.3457 296.33398 L 290.3457 318.85742 L 277.3418 318.85742 L 277.3418 296.33398 z M 305.19336 296.33398 L 318.19727 296.33398 L 318.19727 318.85742 L 305.19336 318.85742 L 305.19336 296.33398 z M 193.79883 330.32812 L 206.80273 330.32812 L 206.80273 352.85156 L 193.79883 352.85156 L 193.79883 330.32812 z M 221.65039 330.32812 L 234.6543 330.32812 L 234.6543 352.85156 L 221.65039 352.85156 L 221.65039 330.32812 z M 249.49609 330.32812 L 262.5 330.32812 L 262.5 352.85156 L 249.49609 352.85156 L 249.49609 330.32812 z M 277.3418 330.32812 L 290.3457 330.32812 L 290.3457 352.85156 L 277.3418 352.85156 L 277.3418 330.32812 z M 305.19336 330.32812 L 318.19727 330.32812 L 318.19727 352.85156 L 305.19336 352.85156 L 305.19336 330.32812 z M 184.58008 365.04492 L 327.41992 365.04492 L 327.41992 378.04883 L 184.58008 378.04883 L 184.58008 365.04492 z" transform="translate(-421,153)" fill="#e64539" fill-opacity="1" stroke-width="3.85001" filter="url(#filter1066)"/><g id="g2623" transform="matrix(0.3880947,0,0,0.3880947,-267.37744,341.84037)"/><g id="g366" transform="matrix(0.64942552,0,0,0.64942552,-256.69109,316.54748)"><g id="g309"><g id="g307"/></g><g id="g311"/><g id="g313"/><g id="g315"/><g id="g317"/><g id="g319-3"/><g id="g321"/><g id="g323"/><g id="g325"/><g id="g327"/><g id="g329"/><g id="g331"/><g id="g333"/><g id="g335"/><g id="g337"/><g id="g339"/></g><g id="g314" transform="matrix(0.35542189,0,0,0.35542189,-255.98765,318.01253)"><g id="g249"><g id="g247"/></g><g id="g255"><g id="g253"/></g><g id="g257"/><g id="g259"/><g id="g261"/><g id="g263"/><g id="g265"/><g id="g267"/><g id="g269"/><g id="g271"/><g id="g273"/><g id="g275"/><g id="g277"/><g id="g279"/><g id="g281"/><g id="g283"/><g id="g285"/></g><g id="g1111" transform="matrix(3.7238325,0,0,3.7238325,-258.09581,310.31844)" fill="#000000"/><g id="g1846" transform="matrix(0.38944421,0,0,0.38944421,-264.69752,331.65254)" fill="#000000"><g id="g1719"><g id="g1717"/></g><g id="g1725"><g id="g1723"/></g><g id="g1731"><g id="g1729"/></g><g id="g1737"><g id="g1735"/></g><g id="g1743"><g id="g1741-6"/></g><g id="g1749"><g id="g1747"/></g><g id="g1755"><g id="g1753"/></g><g id="g1761"><g id="g1759"/></g><g id="g1767"><g id="g1765"/></g><g id="g1773"><g id="g1771"/></g><g id="g1779"><g id="g1777"/></g><g id="g1785"><g id="g1783"/></g><g id="g1791"><g id="g1789"/></g><g id="g1797"><g id="g1795"/></g></g></svg>