<svg version="1.2" id="Layer_1" x="0px" y="0px" viewBox="-421 153 512 512" xml:space="preserve" sodipodi:docname="vampyres.svg" width="512" height="512" inkscape:version="1.1.1 (3bf5ae0d25, 2021-09-20)" xmlns:inkscape="http://www.inkscape.org/namespaces/inkscape" xmlns:sodipodi="http://sodipodi.sourceforge.net/DTD/sodipodi-0.dtd" xmlns="http://www.w3.org/2000/svg" xmlns:svg="http://www.w3.org/2000/svg"><defs id="defs7"><filter inkscape:label="Drop Shadow" id="filter1002" x="-0.16178222" y="-0.19286147" width="1.314974" height="1.3755066" color-interpolation-filters="sRGB"><feFlood flood-opacity="1" flood-color="rgb(58,63,94)" result="flood" id="feFlood992"/><feComposite in="flood" in2="SourceGraphic" operator="out" result="composite1" id="feComposite994"/><feGaussianBlur in="composite1" stdDeviation="15" result="blur" id="feGaussianBlur996"/><feOffset dx="0" dy="0" result="offset" id="feOffset998"/><feComposite in="offset" in2="SourceGraphic" operator="atop" result="composite2" id="feComposite1000"/></filter><filter inkscape:label="Drop Shadow" id="filter1070" x="-0.063227865" y="-0.075384346" width="1.1264557" height="1.1507687" color-interpolation-filters="sRGB"><feFlood flood-opacity="1" flood-color="rgb(58,63,94)" result="flood" id="feFlood1060"/><feComposite in="flood" in2="SourceGraphic" operator="out" result="composite1" id="feComposite1062"/><feGaussianBlur in="composite1" stdDeviation="12.3821" result="blur" id="feGaussianBlur1064"/><feOffset dx="0" dy="0" result="offset" id="feOffset1066"/><feComposite in="offset" in2="SourceGraphic" operator="atop" result="composite2" id="feComposite1068"/></filter></defs><sodipodi:namedview id="namedview5" pagecolor="#505050" bordercolor="#eeeeee" borderopacity="1" inkscape:pageshadow="0" inkscape:pageopacity="0" inkscape:pagecheckerboard="0" showgrid="false" showguides="true" inkscape:guide-bbox="true" inkscape:zoom="1.4142136" inkscape:cx="220.26376" inkscape:cy="223.09218" inkscape:window-width="1716" inkscape:window-height="1414" inkscape:window-x="3160" inkscape:window-y="587" inkscape:window-maximized="1" inkscape:current-layer="Layer_1"/><g id="g439" transform="translate(-421,153)" fill="#1b1f21" fill-opacity="1"><g id="g8" fill="#1b1f21" fill-opacity="1"/><g id="g10" fill="#1b1f21" fill-opacity="1"/><g id="g12" fill="#1b1f21" fill-opacity="1"/><g id="g14" fill="#1b1f21" fill-opacity="1"/><g id="g16" fill="#1b1f21" fill-opacity="1"/><g id="g18" fill="#1b1f21" fill-opacity="1"/><g id="g20" fill="#1b1f21" fill-opacity="1"/><g id="g22" fill="#1b1f21" fill-opacity="1"/><g id="g24" fill="#1b1f21" fill-opacity="1"/><g id="g26" fill="#1b1f21" fill-opacity="1"/><g id="g28" fill="#1b1f21" fill-opacity="1"/><g id="g30" fill="#1b1f21" fill-opacity="1"/><g id="g32" fill="#1b1f21" fill-opacity="1"/><g id="g34" fill="#1b1f21" fill-opacity="1"/><g id="g36" fill="#1b1f21" fill-opacity="1"/><g id="g1182" transform="translate(131.26512,78.461363)" fill="#1b1f21" fill-opacity="1"><g id="g14-6" fill="#1b1f21" fill-opacity="1"/><g id="g16-7" fill="#1b1f21" fill-opacity="1"/><g id="g18-5" fill="#1b1f21" fill-opacity="1"/><g id="g20-3" fill="#1b1f21" fill-opacity="1"/><g id="g22-5" fill="#1b1f21" fill-opacity="1"/><g id="g24-6" fill="#1b1f21" fill-opacity="1"/><g id="g26-2" fill="#1b1f21" fill-opacity="1"/><g id="g28-9" fill="#1b1f21" fill-opacity="1"/><g id="g30-1" fill="#1b1f21" fill-opacity="1"/><g id="g32-27" fill="#1b1f21" fill-opacity="1"/><g id="g34-09" fill="#1b1f21" fill-opacity="1"/><g id="g36-3" fill="#1b1f21" fill-opacity="1"/><g id="g38" fill="#1b1f21" fill-opacity="1"/><g id="g40" fill="#1b1f21" fill-opacity="1"/><g id="g42" fill="#1b1f21" fill-opacity="1"/><g id="g541" transform="translate(26.047449,-8.0026715)" fill="#1b1f21" fill-opacity="1"><g id="g20-6" fill="#1b1f21" fill-opacity="1"/><g id="g22-7" fill="#1b1f21" fill-opacity="1"/><g id="g24-5" fill="#1b1f21" fill-opacity="1"/><g id="g26-3" fill="#1b1f21" fill-opacity="1"/><g id="g28-5" fill="#1b1f21" fill-opacity="1"/><g id="g30-6" fill="#1b1f21" fill-opacity="1"/><g id="g32-2" fill="#1b1f21" fill-opacity="1"/><g id="g34-9" fill="#1b1f21" fill-opacity="1"/><g id="g36-1" fill="#1b1f21" fill-opacity="1"/><g id="g38-2" fill="#1b1f21" fill-opacity="1"/><g id="g40-7" fill="#1b1f21" fill-opacity="1"/><g id="g42-0" fill="#1b1f21" fill-opacity="1"/><g id="g44" fill="#1b1f21" fill-opacity="1"/><g id="g46" fill="#1b1f21" fill-opacity="1"/><g id="g48" fill="#1b1f21" fill-opacity="1"/><g id="g319" transform="translate(-157.31257,-70.458691)" fill="#1b1f21" fill-opacity="1"><g id="g949" fill="#1b1f21" fill-opacity="1"><path d="M 0,0 H 512 V 512 H 0 Z" fill="#1b1f21" fill-opacity="1" id="path902"/><g id="g1524" transform="matrix(0.65299367,0.65095314,-0.65095314,0.65299367,760.96027,405.16803)" fill="#1b1f21" fill-opacity="1"><g class="" id="g1513" fill="#1b1f21" fill-opacity="1"/></g><g id="g1741" transform="matrix(0.73148951,-0.72519164,0.72519164,0.73148951,174.72172,-127.52936)" fill="#1b1f21" fill-opacity="1"><g class="" id="g1730" fill="#1b1f21" fill-opacity="1"/></g></g><g id="g10-6" fill="#1b1f21" fill-opacity="1"/><g id="g12-7" fill="#1b1f21" fill-opacity="1"/><g id="g14-9" fill="#1b1f21" fill-opacity="1"/><g id="g16-5" fill="#1b1f21" fill-opacity="1"/><g id="g18-3" fill="#1b1f21" fill-opacity="1"/><g id="g20-5" fill="#1b1f21" fill-opacity="1"/><g id="g22-6" fill="#1b1f21" fill-opacity="1"/><g id="g24-2" fill="#1b1f21" fill-opacity="1"/><g id="g26-9" fill="#1b1f21" fill-opacity="1"/><g id="g28-1" fill="#1b1f21" fill-opacity="1"/><g id="g30-2" fill="#1b1f21" fill-opacity="1"/><g id="g32-7" fill="#1b1f21" fill-opacity="1"/><g id="g34-0" fill="#1b1f21" fill-opacity="1"/><g id="g36-9" fill="#1b1f21" fill-opacity="1"/><g id="g38-3" fill="#1b1f21" fill-opacity="1"/></g></g></g><g id="g1551" transform="matrix(0.51222721,0,0,0.51222721,124.85437,126.07888)" fill="#1b1f21" fill-opacity="1"><g id="g1478" fill="#1b1f21" fill-opacity="1"><g id="g1476" fill="#1b1f21" fill-opacity="1"/></g><g id="g1484" fill="#1b1f21" fill-opacity="1"><g id="g1482" fill="#1b1f21" fill-opacity="1"/></g><g id="g1490" fill="#1b1f21" fill-opacity="1"><g id="g1488" fill="#1b1f21" fill-opacity="1"/></g><g id="g1492" fill="#1b1f21" fill-opacity="1"/><g id="g1494" fill="#1b1f21" fill-opacity="1"/><g id="g1496" fill="#1b1f21" fill-opacity="1"/><g id="g1498" fill="#1b1f21" fill-opacity="1"/><g id="g1500" fill="#1b1f21" fill-opacity="1"/><g id="g1502" fill="#1b1f21" fill-opacity="1"/><g id="g1504" fill="#1b1f21" fill-opacity="1"/><g id="g1506" fill="#1b1f21" fill-opacity="1"/><g id="g1508" fill="#1b1f21" fill-opacity="1"/><g id="g1510" fill="#1b1f21" fill-opacity="1"/><g id="g1512" fill="#1b1f21" fill-opacity="1"/><g id="g1514" fill="#1b1f21" fill-opacity="1"/><g id="g1516" fill="#1b1f21" fill-opacity="1"/><g id="g1518" fill="#1b1f21" fill-opacity="1"/><g id="g1520" fill="#1b1f21" fill-opacity="1"/></g></g><g id="g2623" transform="matrix(0.3880947,0,0,0.3880947,-267.37744,341.84037)"/><g id="g366" transform="matrix(0.64942552,0,0,0.64942552,-256.69109,316.54748)"><g id="g309"><g id="g307"/></g><g id="g311"/><g id="g313"/><g id="g315"/><g id="g317"/><g id="g319-3"/><g id="g321"/><g id="g323"/><g id="g325"/><g id="g327"/><g id="g329"/><g id="g331"/><g id="g333"/><g id="g335"/><g id="g337"/><g id="g339"/></g><g id="g314" transform="matrix(0.35542189,0,0,0.35542189,-255.98765,318.01253)"><g id="g249"><g id="g247"/></g><g id="g255"><g id="g253"/></g><g id="g257"/><g id="g259"/><g id="g261"/><g id="g263"/><g id="g265"/><g id="g267"/><g id="g269"/><g id="g271"/><g id="g273"/><g id="g275"/><g id="g277"/><g id="g279"/><g id="g281"/><g id="g283"/><g id="g285"/></g><g id="g1080" transform="translate(-573.05531,60.341662)"><g class="" id="g1069" transform="matrix(0.41690601,0,0,0.41690601,301.32764,264.20163)" fill="#000000"/></g><g id="g1093" transform="translate(-466.98929,152.97265)" filter="url(#filter1070)"><g class="" id="g1082" transform="translate(45.989933,0.02787598)" fill="#e64539" fill-opacity="1"><path d="m 169.57,106.12 c -1.882,-14.48 -28.184,-30.424 -41.092,-30.424 -2.54,0 -4.56,0.612 -5.773,1.974 -21.81,24.385 14.225,81.262 14.225,81.262 0,0 35.746,-28.785 32.64,-52.812 z m 128.832,60.524 c 0,0 34.315,-54.186 13.544,-77.36 -1.155,-1.292 -3.083,-1.88 -5.496,-1.88 -12.308,0 -37.352,15.183 -39.142,28.98 -2.967,22.78 31.094,50.26 31.094,50.26 z m -53.724,-50.352 c -1.79,-13.798 -26.845,-28.98 -39.14,-28.98 -2.414,0 -4.343,0.588 -5.497,1.88 -20.782,23.22 13.544,77.36 13.544,77.36 0,0 34.06,-27.387 31.094,-50.26 z M 58.128,58.896 a 16.546,16.546 0 0 0 -1.664,0.08 c -87.75,8.937 11.373,286.056 40.55,304.484 0,0 -16.984,-151.636 2.795,-244.236 C 107.047,85.117 75.803,58.896 58.126,58.896 Z m 397.394,0.08 a 16.465,16.465 0 0 0 -1.663,-0.08 c -17.678,0 -48.968,26.198 -41.682,60.328 19.778,92.6 2.794,244.236 2.794,244.236 29.223,-18.416 128.312,-295.535 40.55,-304.483 z m -72.013,16.72 c -12.92,0 -39.258,15.945 -41.094,30.424 -3.106,23.97 32.652,52.823 32.652,52.823 0,0 36.024,-56.888 14.225,-81.26 -1.224,-1.375 -3.244,-1.987 -5.784,-1.987 z m -148.3,348.98 c -2.032,-11.37 -25.598,-35.353 -25.598,-35.353 0,0 -20.54,23.97 -20.32,33.727 0,2.147 -1.155,23.092 2.03,26 2.876,2.645 12.84,4.043 22.62,4.043 9.468,0 18.75,-1.305 21.268,-4.042 2.31,-2.47 0.335,-22.733 0,-24.373 z m -60.04,-24.35 c -12.065,-20.69 -19.155,-51.01 -23.092,-73.733 -3.094,-17.966 -4.19,-31.174 -4.19,-31.174 -15.127,11.81 -44.292,137.675 2.54,137.675 a 30.02,30.02 0 0 0 4.952,-0.428 c 4.62,-0.762 10.46,-4.295 15.01,-9.236 5.935,-6.43 9.456,-15.17 4.78,-23.103 z m 188.85,-104.93 c 0,0 -1.006,12.03 -3.777,28.738 -3.81,22.965 -10.98,54.74 -23.485,76.204 -3.764,6.466 -2.136,13.417 1.744,19.236 4.618,6.86 12.308,12.135 18.035,13.082 a 30.124,30.124 0 0 0 4.953,0.427 c 46.912,-0.046 17.677,-125.91 2.563,-137.734 z m -41.406,127.7 c 0.22,-9.757 -20.32,-33.726 -20.32,-33.726 0,0 -23.532,23.935 -25.518,35.307 -0.254,1.444 -2.563,21.592 0,24.386 2.564,2.794 11.812,4.04 21.268,4.04 9.78,0 19.744,-1.396 22.62,-4.04 4.387,-4.088 1.962,-25.286 1.985,-26.002 z m -143.726,5.496 0.243,0.115 v -0.44 z" fill="#e64539" stroke="#ffffff" stroke-opacity="1" stroke-width="0" fill-opacity="1" id="path1080"/></g></g></svg>