<svg version="1.1" id="Capa_1" x="0px" y="0px" width="512" height="512" viewBox="0 0 512.00001 512.00001" xml:space="preserve" sodipodi:docname="big_knucks.svg" inkscape:version="1.1.1 (3bf5ae0d25, 2021-09-20)" xmlns:inkscape="http://www.inkscape.org/namespaces/inkscape" xmlns:sodipodi="http://sodipodi.sourceforge.net/DTD/sodipodi-0.dtd" xmlns="http://www.w3.org/2000/svg" xmlns:svg="http://www.w3.org/2000/svg"><defs id="defs40"><filter inkscape:label="Drop Shadow" id="filter1080" x="-0.18715565" y="-0.18918669" width="1.3643736" height="1.3683517" color-interpolation-filters="sRGB"><feFlood flood-opacity="1" flood-color="rgb(58,63,94)" result="flood" id="feFlood1070"/><feComposite in="flood" in2="SourceGraphic" operator="out" result="composite1" id="feComposite1072"/><feGaussianBlur in="composite1" stdDeviation="15" result="blur" id="feGaussianBlur1074"/><feOffset dx="0" dy="0" result="offset" id="feOffset1076"/><feComposite in="offset" in2="SourceGraphic" operator="atop" result="composite2" id="feComposite1078"/></filter><filter inkscape:label="Drop Shadow" id="filter1112" x="-0.079632867" y="-0.080507803" width="1.1592657" height="1.1610156" color-interpolation-filters="sRGB"><feFlood flood-opacity="1" flood-color="rgb(58,63,94)" result="flood" id="feFlood1102"/><feComposite in="flood" in2="SourceGraphic" operator="out" result="composite1" id="feComposite1104"/><feGaussianBlur in="composite1" stdDeviation="13.4805" result="blur" id="feGaussianBlur1106"/><feOffset dx="0" dy="0" result="offset" id="feOffset1108"/><feComposite in="offset" in2="SourceGraphic" operator="atop" result="composite2" id="feComposite1110"/></filter></defs><sodipodi:namedview id="namedview38" pagecolor="#505050" bordercolor="#eeeeee" borderopacity="1" inkscape:pageshadow="0" inkscape:pageopacity="0" inkscape:pagecheckerboard="0" showgrid="false" showguides="true" inkscape:guide-bbox="true" inkscape:zoom="0.92520568" inkscape:cx="339.92442" inkscape:cy="155.10065" inkscape:window-width="1716" inkscape:window-height="1414" inkscape:window-x="3160" inkscape:window-y="587" inkscape:window-maximized="1" inkscape:current-layer="g5"/><g id="g5" transform="matrix(1.1551802,0,0,1.1551802,-17.36047,-61.694481)"><g id="g1914" transform="matrix(0.86566581,0,0,0.86566581,379.47367,-79.040067)" fill="#1b1f21" fill-opacity="1"><g id="g439" transform="translate(-421,153)" fill="#1b1f21" fill-opacity="1"><g id="g8" fill="#1b1f21" fill-opacity="1"/><g id="g10" fill="#1b1f21" fill-opacity="1"/><g id="g12" fill="#1b1f21" fill-opacity="1"/><g id="g14" fill="#1b1f21" fill-opacity="1"/><g id="g16" fill="#1b1f21" fill-opacity="1"/><g id="g18" fill="#1b1f21" fill-opacity="1"/><g id="g20" fill="#1b1f21" fill-opacity="1"/><g id="g22" fill="#1b1f21" fill-opacity="1"/><g id="g24" fill="#1b1f21" fill-opacity="1"/><g id="g26" fill="#1b1f21" fill-opacity="1"/><g id="g28" fill="#1b1f21" fill-opacity="1"/><g id="g30" fill="#1b1f21" fill-opacity="1"/><g id="g32" fill="#1b1f21" fill-opacity="1"/><g id="g34" fill="#1b1f21" fill-opacity="1"/><g id="g36" fill="#1b1f21" fill-opacity="1"/><g id="g1182" transform="translate(131.26512,78.461363)" fill="#1b1f21" fill-opacity="1"><g id="g14-6" fill="#1b1f21" fill-opacity="1"/><g id="g16-7" fill="#1b1f21" fill-opacity="1"/><g id="g18-5" fill="#1b1f21" fill-opacity="1"/><g id="g20-3" fill="#1b1f21" fill-opacity="1"/><g id="g22-5" fill="#1b1f21" fill-opacity="1"/><g id="g24-6" fill="#1b1f21" fill-opacity="1"/><g id="g26-2" fill="#1b1f21" fill-opacity="1"/><g id="g28-9" fill="#1b1f21" fill-opacity="1"/><g id="g30-1" fill="#1b1f21" fill-opacity="1"/><g id="g32-27" fill="#1b1f21" fill-opacity="1"/><g id="g34-09" fill="#1b1f21" fill-opacity="1"/><g id="g36-3" fill="#1b1f21" fill-opacity="1"/><g id="g38" fill="#1b1f21" fill-opacity="1"/><g id="g40" fill="#1b1f21" fill-opacity="1"/><g id="g42" fill="#1b1f21" fill-opacity="1"/><g id="g541" transform="translate(26.047449,-8.0026715)" fill="#1b1f21" fill-opacity="1"><g id="g20-6" fill="#1b1f21" fill-opacity="1"/><g id="g22-7" fill="#1b1f21" fill-opacity="1"/><g id="g24-5" fill="#1b1f21" fill-opacity="1"/><g id="g26-3" fill="#1b1f21" fill-opacity="1"/><g id="g28-5" fill="#1b1f21" fill-opacity="1"/><g id="g30-6" fill="#1b1f21" fill-opacity="1"/><g id="g32-2" fill="#1b1f21" fill-opacity="1"/><g id="g34-9" fill="#1b1f21" fill-opacity="1"/><g id="g36-1" fill="#1b1f21" fill-opacity="1"/><g id="g38-2" fill="#1b1f21" fill-opacity="1"/><g id="g40-7" fill="#1b1f21" fill-opacity="1"/><g id="g42-0" fill="#1b1f21" fill-opacity="1"/><g id="g44" fill="#1b1f21" fill-opacity="1"/><g id="g46" fill="#1b1f21" fill-opacity="1"/><g id="g48" fill="#1b1f21" fill-opacity="1"/><g id="g319" transform="translate(-157.31257,-70.458691)" fill="#1b1f21" fill-opacity="1"><g id="g949" fill="#1b1f21" fill-opacity="1"><path d="M 0,0 H 512 V 512 H 0 Z" fill="#1b1f21" fill-opacity="1" id="path902"/><g id="g1524" transform="matrix(0.65299367,0.65095314,-0.65095314,0.65299367,760.96027,405.16803)" fill="#1b1f21" fill-opacity="1"><g class="" id="g1513" fill="#1b1f21" fill-opacity="1"/></g><g id="g1741" transform="matrix(0.73148951,-0.72519164,0.72519164,0.73148951,174.72172,-127.52936)" fill="#1b1f21" fill-opacity="1"><g class="" id="g1730" fill="#1b1f21" fill-opacity="1"/></g></g><g id="g10-6" fill="#1b1f21" fill-opacity="1"/><g id="g12-7" fill="#1b1f21" fill-opacity="1"/><g id="g14-9" fill="#1b1f21" fill-opacity="1"/><g id="g16-5" fill="#1b1f21" fill-opacity="1"/><g id="g18-3" fill="#1b1f21" fill-opacity="1"/><g id="g20-5" fill="#1b1f21" fill-opacity="1"/><g id="g22-6" fill="#1b1f21" fill-opacity="1"/><g id="g24-2" fill="#1b1f21" fill-opacity="1"/><g id="g26-9" fill="#1b1f21" fill-opacity="1"/><g id="g28-1" fill="#1b1f21" fill-opacity="1"/><g id="g30-2" fill="#1b1f21" fill-opacity="1"/><g id="g32-7" fill="#1b1f21" fill-opacity="1"/><g id="g34-0" fill="#1b1f21" fill-opacity="1"/><g id="g36-9" fill="#1b1f21" fill-opacity="1"/><g id="g38-3" fill="#1b1f21" fill-opacity="1"/></g></g></g><g id="g1551" transform="matrix(0.51222721,0,0,0.51222721,124.85437,126.07888)" fill="#1b1f21" fill-opacity="1"><g id="g1478" fill="#1b1f21" fill-opacity="1"><g id="g1476" fill="#1b1f21" fill-opacity="1"/></g><g id="g1484" fill="#1b1f21" fill-opacity="1"><g id="g1482" fill="#1b1f21" fill-opacity="1"/></g><g id="g1490" fill="#1b1f21" fill-opacity="1"><g id="g1488" fill="#1b1f21" fill-opacity="1"/></g><g id="g1492" fill="#1b1f21" fill-opacity="1"/><g id="g1494" fill="#1b1f21" fill-opacity="1"/><g id="g1496" fill="#1b1f21" fill-opacity="1"/><g id="g1498" fill="#1b1f21" fill-opacity="1"/><g id="g1500" fill="#1b1f21" fill-opacity="1"/><g id="g1502" fill="#1b1f21" fill-opacity="1"/><g id="g1504" fill="#1b1f21" fill-opacity="1"/><g id="g1506" fill="#1b1f21" fill-opacity="1"/><g id="g1508" fill="#1b1f21" fill-opacity="1"/><g id="g1510" fill="#1b1f21" fill-opacity="1"/><g id="g1512" fill="#1b1f21" fill-opacity="1"/><g id="g1514" fill="#1b1f21" fill-opacity="1"/><g id="g1516" fill="#1b1f21" fill-opacity="1"/><g id="g1518" fill="#1b1f21" fill-opacity="1"/><g id="g1520" fill="#1b1f21" fill-opacity="1"/></g></g><g id="g2623" transform="matrix(0.3880947,0,0,0.3880947,-267.37744,341.84037)" fill="#1b1f21" fill-opacity="1"/><g id="g366" transform="matrix(0.64942552,0,0,0.64942552,-256.69109,316.54748)" fill="#1b1f21" fill-opacity="1"><g id="g309" fill="#1b1f21" fill-opacity="1"><g id="g307" fill="#1b1f21" fill-opacity="1"/></g><g id="g311" fill="#1b1f21" fill-opacity="1"/><g id="g313" fill="#1b1f21" fill-opacity="1"/><g id="g315" fill="#1b1f21" fill-opacity="1"/><g id="g317" fill="#1b1f21" fill-opacity="1"/><g id="g319-3" fill="#1b1f21" fill-opacity="1"/><g id="g321" fill="#1b1f21" fill-opacity="1"/><g id="g323" fill="#1b1f21" fill-opacity="1"/><g id="g325" fill="#1b1f21" fill-opacity="1"/><g id="g327" fill="#1b1f21" fill-opacity="1"/><g id="g329" fill="#1b1f21" fill-opacity="1"/><g id="g331" fill="#1b1f21" fill-opacity="1"/><g id="g333" fill="#1b1f21" fill-opacity="1"/><g id="g335" fill="#1b1f21" fill-opacity="1"/><g id="g337" fill="#1b1f21" fill-opacity="1"/><g id="g339" fill="#1b1f21" fill-opacity="1"/></g><g id="g314" transform="matrix(0.35542189,0,0,0.35542189,-255.98765,318.01253)" fill="#1b1f21" fill-opacity="1"><g id="g249" fill="#1b1f21" fill-opacity="1"><g id="g247" fill="#1b1f21" fill-opacity="1"/></g><g id="g255" fill="#1b1f21" fill-opacity="1"><g id="g253" fill="#1b1f21" fill-opacity="1"/></g><g id="g257" fill="#1b1f21" fill-opacity="1"/><g id="g259" fill="#1b1f21" fill-opacity="1"/><g id="g261" fill="#1b1f21" fill-opacity="1"/><g id="g263" fill="#1b1f21" fill-opacity="1"/><g id="g265" fill="#1b1f21" fill-opacity="1"/><g id="g267" fill="#1b1f21" fill-opacity="1"/><g id="g269" fill="#1b1f21" fill-opacity="1"/><g id="g271" fill="#1b1f21" fill-opacity="1"/><g id="g273" fill="#1b1f21" fill-opacity="1"/><g id="g275" fill="#1b1f21" fill-opacity="1"/><g id="g277" fill="#1b1f21" fill-opacity="1"/><g id="g279" fill="#1b1f21" fill-opacity="1"/><g id="g281" fill="#1b1f21" fill-opacity="1"/><g id="g283" fill="#1b1f21" fill-opacity="1"/><g id="g285" fill="#1b1f21" fill-opacity="1"/></g></g><g id="_x35_1_20_" fill="#e64539" fill-opacity="1" filter="url(#filter1112)"><path id="path2" d="M 204.21875 19.078125 C 209.36825 46.309703 237.7448 64.491408 250.91797 70.570312 C 271.77706 80.197589 331.37247 94.905317 352.98242 57.162109 C 358.74677 71.931088 354.85692 194.78071 320.79297 226.01562 C 303.53227 209.55893 278.61688 199.22656 250.91797 199.22656 C 228.17363 199.22656 207.3161 206.19265 191.02344 217.79297 C 169.51514 183.27156 128.82236 159.96289 82.123047 159.96289 C 59.732189 159.96289 38.731281 165.34499 20.542969 174.72852 L 20.542969 186.79688 C 20.527949 186.79287 20.476573 186.7832 20.476562 186.7832 L 20.476562 483.27344 C 20.476562 483.27344 106.89209 487.74366 113.80469 387.91992 C 113.80269 387.91392 113.80078 387.90814 113.80078 387.90234 C 134.82275 418.43029 201.80079 441.66692 243.07422 440.29688 C 307.90409 438.14703 394.04839 435.30537 467.02344 365.34766 C 473.76738 358.63721 479.17693 350.71118 482.85156 341.94336 L 482.85156 341.93945 C 509.73551 286.01481 452.28218 102.18417 418.73242 19.078125 L 204.21875 19.078125 z M 262.24023 222.13867 L 274.73633 222.13867 C 278.18824 222.13867 280.98438 224.93481 280.98438 228.38672 L 280.98438 284.61719 L 262.22852 284.61719 C 260.03007 284.61719 257.95244 285.06666 255.99219 285.76172 L 255.99219 228.38672 C 255.99219 224.93481 258.78832 222.13867 262.24023 222.13867 z M 224.75781 234.63477 L 237.25195 234.63477 C 240.70386 234.63477 243.5 237.4309 243.5 240.88281 L 243.5 303.36133 C 243.5 306.81324 240.70386 309.60938 237.25195 309.60938 L 224.75781 309.60938 C 221.3059 309.60938 218.50977 306.81324 218.50977 303.36133 L 218.50977 240.88281 C 218.50977 237.4309 221.3059 234.63477 224.75781 234.63477 z M 299.72266 234.63477 L 312.21875 234.63477 C 315.67067 234.63477 318.4668 237.4309 318.4668 240.88281 L 318.4668 286.92188 C 314.53849 285.52003 310.37541 284.61719 305.9707 284.61719 L 293.47461 284.61719 L 293.47461 240.88281 C 293.47461 237.4309 296.27075 234.63477 299.72266 234.63477 z M 187.27344 247.13086 L 199.76953 247.13086 C 203.22143 247.13086 206.01758 249.927 206.01758 253.37891 L 206.01758 303.36133 C 206.01758 306.81324 203.22143 309.60938 199.76953 309.60938 L 187.27344 309.60938 C 183.82154 309.60938 181.02539 306.81324 181.02539 303.36133 L 181.02539 253.37891 C 181.02539 249.927 183.82154 247.13086 187.27344 247.13086 z M 262.18945 297.11328 L 305.97852 297.11328 C 319.77445 297.11328 330.96218 308.29978 330.9668 322.09961 L 330.97461 356.54883 A 37.500494 37.500494 0 0 1 319.99219 383.06641 L 305.9707 397.09375 L 305.9707 422.06836 L 206.01367 422.06836 L 206.01367 397.07812 L 195.66602 386.72656 C 186.29041 377.35095 181.02539 364.63987 181.02539 351.38281 L 181.02539 320.95312 C 182.98956 321.65602 185.0711 322.10352 187.27344 322.10352 L 199.76953 322.10352 C 204.58424 322.10352 208.93867 320.2255 212.26562 317.22656 C 215.58867 320.2216 219.94312 322.09961 224.76172 322.09961 L 237.25586 322.09961 C 240.34463 322.09961 243.22356 321.27688 245.79688 319.94531 C 248.71382 326.32198 254.23089 331.2449 260.97461 333.39648 C 254.29337 339.18352 248.64237 346.86066 242.5 356.07617 L 240.03711 359.77539 A 3.1215594 3.1215594 0 0 0 240.9043 364.10547 L 246.10156 367.57227 A 3.1215594 3.1215594 0 0 0 250.43164 366.70508 L 252.89648 363.00781 C 265.34914 344.32687 273.01784 335.56804 290.40234 334.67773 C 292.07755 334.59182 293.47852 333.22987 293.47852 331.55469 L 293.47852 325.22852 C 293.47852 323.50256 292.10413 322.10352 288.32422 322.10352 L 274.55664 322.10352 C 264.29854 322.10352 255.98047 313.7796 255.98047 303.52148 L 255.98047 303.30273 C 255.98047 299.87425 258.76097 297.11328 262.18945 297.11328 z" transform="matrix(0.86566581,0,0,0.86566581,15.028365,53.406803)" fill="#e64539" stroke-width="1.15518" fill-opacity="1"/></g><g id="g2328" transform="matrix(0.86566581,0,0,0.86566581,149.00753,-16.731636)"><g id="g32-0"/><g id="g2654" transform="matrix(0.58211695,0,0,0.58211695,-47.792018,248.6898)"><g id="g24-61" transform="matrix(0.82192313,0,0,0.82192313,45.587679,45.587677)" fill="#000000"><g id="g22-8" fill="#000000"/></g><g id="g2618"><g id="g6" transform="matrix(0.82192313,0,0,0.82192313,45.587679,45.587677)" fill="#000000"><g id="g4" fill="#000000"/></g><g id="g12-3" transform="matrix(0.82192313,0,0,0.82192313,45.587679,45.587677)" fill="#000000"><g id="g10-60" fill="#000000"/></g><g id="g18-6" transform="matrix(0.82192313,0,0,0.82192313,45.587679,45.587677)" fill="#000000"><g id="g16-2" fill="#000000"/></g><g id="g30-7" transform="matrix(0.82192313,0,0,0.82192313,45.587679,45.587677)" fill="#000000"><g id="g28-92" fill="#000000"/></g></g></g><g id="g34-2"/><g id="g36-37"/><g id="g38-5"/><g id="g40-9"/><g id="g42-2"/><g id="g44-2"/><g id="g46-8"/><g id="g48-9"/><g id="g50"/><g id="g52"/><g id="g54"/><g id="g56"/><g id="g58"/><g id="g60"/></g></g><g id="g7"/><g id="g9"/><g id="g11"/><g id="g13"/><g id="g15"/><g id="g17"/><g id="g19"/><g id="g21"/><g id="g23"/><g id="g25"/><g id="g27"/><g id="g29"/><g id="g31"/><g id="g33"/><g id="g35"/></svg>