<svg version="1.2" id="Layer_1" x="0px" y="0px" viewBox="-421 153 512 512" xml:space="preserve" sodipodi:docname="cybersnake.svg" width="512" height="512" inkscape:version="1.1.1 (3bf5ae0d25, 2021-09-20)" xmlns:inkscape="http://www.inkscape.org/namespaces/inkscape" xmlns:sodipodi="http://sodipodi.sourceforge.net/DTD/sodipodi-0.dtd" xmlns="http://www.w3.org/2000/svg" xmlns:svg="http://www.w3.org/2000/svg"><defs id="defs7"><filter inkscape:label="Drop Shadow" id="filter1016" x="-0.19212002" y="-0.15482707" width="1.3740387" height="1.3014526" color-interpolation-filters="sRGB"><feFlood flood-opacity="1" flood-color="rgb(58,63,94)" result="flood" id="feFlood1006"/><feComposite in="flood" in2="SourceGraphic" operator="out" result="composite1" id="feComposite1008"/><feGaussianBlur in="composite1" stdDeviation="15" result="blur" id="feGaussianBlur1010"/><feOffset dx="0" dy="0" result="offset" id="feOffset1012"/><feComposite in="offset" in2="SourceGraphic" operator="atop" result="composite2" id="feComposite1014"/></filter><filter inkscape:label="Drop Shadow" id="filter1066" x="-0.062603068" y="-0.05045775" width="1.1252061" height="1.1009155" color-interpolation-filters="sRGB"><feFlood flood-opacity="1" flood-color="rgb(58,63,94)" result="flood" id="feFlood1056"/><feComposite in="flood" in2="SourceGraphic" operator="out" result="composite1" id="feComposite1058"/><feGaussianBlur in="composite1" stdDeviation="10.3238" result="blur" id="feGaussianBlur1060"/><feOffset dx="0" dy="0" result="offset" id="feOffset1062"/><feComposite in="offset" in2="SourceGraphic" operator="atop" result="composite2" id="feComposite1064"/></filter></defs><sodipodi:namedview id="namedview5" pagecolor="#505050" bordercolor="#eeeeee" borderopacity="1" inkscape:pageshadow="0" inkscape:pageopacity="0" inkscape:pagecheckerboard="0" showgrid="false" showguides="true" inkscape:guide-bbox="true" inkscape:zoom="1.4142136" inkscape:cx="283.19626" inkscape:cy="252.08356" inkscape:window-width="1716" inkscape:window-height="1414" inkscape:window-x="3160" inkscape:window-y="587" inkscape:window-maximized="1" inkscape:current-layer="Layer_1"/><g id="g439" transform="translate(-421,153)" fill="#1b1f21" fill-opacity="1"><g id="g8" fill="#1b1f21" fill-opacity="1"/><g id="g10" fill="#1b1f21" fill-opacity="1"/><g id="g12" fill="#1b1f21" fill-opacity="1"/><g id="g14" fill="#1b1f21" fill-opacity="1"/><g id="g16" fill="#1b1f21" fill-opacity="1"/><g id="g18" fill="#1b1f21" fill-opacity="1"/><g id="g20" fill="#1b1f21" fill-opacity="1"/><g id="g22" fill="#1b1f21" fill-opacity="1"/><g id="g24" fill="#1b1f21" fill-opacity="1"/><g id="g26" fill="#1b1f21" fill-opacity="1"/><g id="g28" fill="#1b1f21" fill-opacity="1"/><g id="g30" fill="#1b1f21" fill-opacity="1"/><g id="g32" fill="#1b1f21" fill-opacity="1"/><g id="g34" fill="#1b1f21" fill-opacity="1"/><g id="g36" fill="#1b1f21" fill-opacity="1"/><g id="g1182" transform="translate(131.26512,78.461363)" fill="#1b1f21" fill-opacity="1"><g id="g14-6" fill="#1b1f21" fill-opacity="1"/><g id="g16-7" fill="#1b1f21" fill-opacity="1"/><g id="g18-5" fill="#1b1f21" fill-opacity="1"/><g id="g20-3" fill="#1b1f21" fill-opacity="1"/><g id="g22-5" fill="#1b1f21" fill-opacity="1"/><g id="g24-6" fill="#1b1f21" fill-opacity="1"/><g id="g26-2" fill="#1b1f21" fill-opacity="1"/><g id="g28-9" fill="#1b1f21" fill-opacity="1"/><g id="g30-1" fill="#1b1f21" fill-opacity="1"/><g id="g32-27" fill="#1b1f21" fill-opacity="1"/><g id="g34-09" fill="#1b1f21" fill-opacity="1"/><g id="g36-3" fill="#1b1f21" fill-opacity="1"/><g id="g38" fill="#1b1f21" fill-opacity="1"/><g id="g40" fill="#1b1f21" fill-opacity="1"/><g id="g42" fill="#1b1f21" fill-opacity="1"/><g id="g541" transform="translate(26.047449,-8.0026715)" fill="#1b1f21" fill-opacity="1"><g id="g20-6" fill="#1b1f21" fill-opacity="1"/><g id="g22-7" fill="#1b1f21" fill-opacity="1"/><g id="g24-5" fill="#1b1f21" fill-opacity="1"/><g id="g26-3" fill="#1b1f21" fill-opacity="1"/><g id="g28-5" fill="#1b1f21" fill-opacity="1"/><g id="g30-6" fill="#1b1f21" fill-opacity="1"/><g id="g32-2" fill="#1b1f21" fill-opacity="1"/><g id="g34-9" fill="#1b1f21" fill-opacity="1"/><g id="g36-1" fill="#1b1f21" fill-opacity="1"/><g id="g38-2" fill="#1b1f21" fill-opacity="1"/><g id="g40-7" fill="#1b1f21" fill-opacity="1"/><g id="g42-0" fill="#1b1f21" fill-opacity="1"/><g id="g44" fill="#1b1f21" fill-opacity="1"/><g id="g46" fill="#1b1f21" fill-opacity="1"/><g id="g48" fill="#1b1f21" fill-opacity="1"/><g id="g319" transform="translate(-157.31257,-70.458691)" fill="#1b1f21" fill-opacity="1"><g id="g949" fill="#1b1f21" fill-opacity="1"><path d="M 0,0 H 512 V 512 H 0 Z" fill="#1b1f21" fill-opacity="1" id="path902"/><g id="g1524" transform="matrix(0.65299367,0.65095314,-0.65095314,0.65299367,760.96027,405.16803)" fill="#1b1f21" fill-opacity="1"><g class="" id="g1513" fill="#1b1f21" fill-opacity="1"/></g><g id="g1741" transform="matrix(0.73148951,-0.72519164,0.72519164,0.73148951,174.72172,-127.52936)" fill="#1b1f21" fill-opacity="1"><g class="" id="g1730" fill="#1b1f21" fill-opacity="1"/></g></g><g id="g10-6" fill="#1b1f21" fill-opacity="1"/><g id="g12-7" fill="#1b1f21" fill-opacity="1"/><g id="g14-9" fill="#1b1f21" fill-opacity="1"/><g id="g16-5" fill="#1b1f21" fill-opacity="1"/><g id="g18-3" fill="#1b1f21" fill-opacity="1"/><g id="g20-5" fill="#1b1f21" fill-opacity="1"/><g id="g22-6" fill="#1b1f21" fill-opacity="1"/><g id="g24-2" fill="#1b1f21" fill-opacity="1"/><g id="g26-9" fill="#1b1f21" fill-opacity="1"/><g id="g28-1" fill="#1b1f21" fill-opacity="1"/><g id="g30-2" fill="#1b1f21" fill-opacity="1"/><g id="g32-7" fill="#1b1f21" fill-opacity="1"/><g id="g34-0" fill="#1b1f21" fill-opacity="1"/><g id="g36-9" fill="#1b1f21" fill-opacity="1"/><g id="g38-3" fill="#1b1f21" fill-opacity="1"/></g></g></g><g id="g1551" transform="matrix(0.51222721,0,0,0.51222721,124.85437,126.07888)" fill="#1b1f21" fill-opacity="1"><g id="g1478" fill="#1b1f21" fill-opacity="1"><g id="g1476" fill="#1b1f21" fill-opacity="1"/></g><g id="g1484" fill="#1b1f21" fill-opacity="1"><g id="g1482" fill="#1b1f21" fill-opacity="1"/></g><g id="g1490" fill="#1b1f21" fill-opacity="1"><g id="g1488" fill="#1b1f21" fill-opacity="1"/></g><g id="g1492" fill="#1b1f21" fill-opacity="1"/><g id="g1494" fill="#1b1f21" fill-opacity="1"/><g id="g1496" fill="#1b1f21" fill-opacity="1"/><g id="g1498" fill="#1b1f21" fill-opacity="1"/><g id="g1500" fill="#1b1f21" fill-opacity="1"/><g id="g1502" fill="#1b1f21" fill-opacity="1"/><g id="g1504" fill="#1b1f21" fill-opacity="1"/><g id="g1506" fill="#1b1f21" fill-opacity="1"/><g id="g1508" fill="#1b1f21" fill-opacity="1"/><g id="g1510" fill="#1b1f21" fill-opacity="1"/><g id="g1512" fill="#1b1f21" fill-opacity="1"/><g id="g1514" fill="#1b1f21" fill-opacity="1"/><g id="g1516" fill="#1b1f21" fill-opacity="1"/><g id="g1518" fill="#1b1f21" fill-opacity="1"/><g id="g1520" fill="#1b1f21" fill-opacity="1"/></g></g><path id="path2" d="M 333.42969 7.1855469 L 253.22266 7.2539062 L 253.2207 7.2539062 L 175.58398 7.1894531 C 175.58398 7.1894531 186.92841 87.591797 253.4043 87.591797 C 321.56617 87.591797 333.42969 7.1855469 333.42969 7.1855469 z M 156.67188 106.63672 C 102.00178 106.63672 58.109375 150.52718 58.109375 205.19727 L 58.109375 446.20703 C 58.109375 465.07206 73.124736 480.85742 92.759766 480.85742 C 112.3948 480.85742 127.41016 465.84206 127.41016 446.20703 L 127.41016 224.83203 C 127.41016 219.44202 132.03186 214.82227 137.42188 214.82227 C 142.81189 214.82227 147.42969 219.44202 147.42969 224.83203 L 147.42969 498.23242 L 245.99023 498.23242 L 245.99023 481.62695 C 245.99023 476.23695 250.61194 471.61719 256.00195 471.61719 C 261.39195 471.61719 266.00977 476.23695 266.00977 481.62695 L 266.00977 498.23242 L 364.56836 498.23242 L 364.56836 224.83203 C 364.56836 219.44202 369.19008 214.82227 374.58008 214.82227 C 379.97009 214.82227 384.58984 219.44202 384.58984 224.83203 L 384.58984 446.5918 C 384.58984 465.45683 399.6052 481.24219 419.24023 481.24219 C 438.87526 481.24219 453.89063 466.22683 453.89062 446.5918 L 453.89062 205.19727 C 452.35062 150.52718 407.30414 106.63672 353.78906 106.63672 L 156.67188 106.63672 z M 197.11133 161.58203 C 200.07849 161.73905 202.71188 162.64152 204.72461 164.49805 C 208.04031 167.54848 173.51549 176.02357 175.69141 186.99023 C 181.79643 217.82204 254.70974 170.31655 268.92578 200.91211 C 277.50513 219.35566 199.46202 231.58189 199.54492 240.24414 C 199.62781 246.50251 325.50015 198.6745 337.51953 237.7168 C 352.44015 286.29171 258.60452 293.50366 262.83203 303.49219 C 265.2359 309.17031 324.17219 285.54625 340.875 311.74023 L 337.68555 323.63477 L 343.57031 317.12695 C 349.08265 329.93381 354.4298 343.98477 342.94922 348.83398 C 330.72259 354.01475 314.0605 346.51262 303.16016 328.93945 C 282.7272 328.3592 251.6006 341.70414 235.14648 315.0957 C 206.63151 268.96612 299.51196 257.11375 297.23242 249.73633 C 296.15482 246.33775 156.2124 302.82814 163.04688 246.04688 C 166.01442 221.38641 231.83065 210.19652 230.83594 206.50781 C 229.0952 200.04221 153.82688 230.67055 163.03125 184.67773 C 165.12583 174.22838 184.25363 160.90163 197.11133 161.58203 z M 310.62109 311.86328 L 307.4707 320.65039 L 325.5 325.78906 L 310.62109 311.86328 z" transform="translate(-421,153)" fill="#e64539" stroke-width="3.85001" fill-opacity="1" filter="url(#filter1066)"/><g id="g2623" transform="matrix(0.3880947,0,0,0.3880947,-267.37744,341.84037)"/><g id="g366" transform="matrix(0.64942552,0,0,0.64942552,-256.69109,316.54748)"><g id="g309"><g id="g307"/></g><g id="g311"/><g id="g313"/><g id="g315"/><g id="g317"/><g id="g319-3"/><g id="g321"/><g id="g323"/><g id="g325"/><g id="g327"/><g id="g329"/><g id="g331"/><g id="g333"/><g id="g335"/><g id="g337"/><g id="g339"/></g><g id="g314" transform="matrix(0.35542189,0,0,0.35542189,-255.98765,318.01253)"><g id="g249"><g id="g247"/></g><g id="g255"><g id="g253"/></g><g id="g257"/><g id="g259"/><g id="g261"/><g id="g263"/><g id="g265"/><g id="g267"/><g id="g269"/><g id="g271"/><g id="g273"/><g id="g275"/><g id="g277"/><g id="g279"/><g id="g281"/><g id="g283"/><g id="g285"/></g></svg>