<svg version="1.2" id="Layer_1" x="0px" y="0px" viewBox="-421 153 512 512" xml:space="preserve" sodipodi:docname="enhanced_antibodies.svg" width="512" height="512" inkscape:version="1.1.1 (3bf5ae0d25, 2021-09-20)" xmlns:inkscape="http://www.inkscape.org/namespaces/inkscape" xmlns:sodipodi="http://sodipodi.sourceforge.net/DTD/sodipodi-0.dtd" xmlns="http://www.w3.org/2000/svg" xmlns:svg="http://www.w3.org/2000/svg"><defs id="defs7"><filter inkscape:label="Drop Shadow" id="filter980" x="-0.19212002" y="-0.15482707" width="1.3740387" height="1.3014526" color-interpolation-filters="sRGB"><feFlood flood-opacity="1" flood-color="rgb(58,63,94)" result="flood" id="feFlood970"/><feComposite in="flood" in2="SourceGraphic" operator="out" result="composite1" id="feComposite972"/><feGaussianBlur in="composite1" stdDeviation="15" result="blur" id="feGaussianBlur974"/><feOffset dx="0" dy="0" result="offset" id="feOffset976"/><feComposite in="offset" in2="SourceGraphic" operator="atop" result="composite2" id="feComposite978"/></filter><filter inkscape:label="Drop Shadow" id="filter1066" x="-0.059353573" y="-0.047838673" width="1.1187071" height="1.0956773" color-interpolation-filters="sRGB"><feFlood flood-opacity="1" flood-color="rgb(58,63,94)" result="flood" id="feFlood1056"/><feComposite in="flood" in2="SourceGraphic" operator="out" result="composite1" id="feComposite1058"/><feGaussianBlur in="composite1" stdDeviation="9.78793" result="blur" id="feGaussianBlur1060"/><feOffset dx="0" dy="0" result="offset" id="feOffset1062"/><feComposite in="offset" in2="SourceGraphic" operator="atop" result="composite2" id="feComposite1064"/></filter></defs><sodipodi:namedview id="namedview5" pagecolor="#505050" bordercolor="#eeeeee" borderopacity="1" inkscape:pageshadow="0" inkscape:pageopacity="0" inkscape:pagecheckerboard="0" showgrid="false" showguides="true" inkscape:guide-bbox="true" inkscape:zoom="1.4142136" inkscape:cx="283.19626" inkscape:cy="247.13381" inkscape:window-width="1716" inkscape:window-height="1414" inkscape:window-x="3160" inkscape:window-y="587" inkscape:window-maximized="1" inkscape:current-layer="Layer_1"/><g id="g439" transform="translate(-421,153)" fill="#1b1f21" fill-opacity="1"><g id="g8" fill="#1b1f21" fill-opacity="1"/><g id="g10" fill="#1b1f21" fill-opacity="1"/><g id="g12" fill="#1b1f21" fill-opacity="1"/><g id="g14" fill="#1b1f21" fill-opacity="1"/><g id="g16" fill="#1b1f21" fill-opacity="1"/><g id="g18" fill="#1b1f21" fill-opacity="1"/><g id="g20" fill="#1b1f21" fill-opacity="1"/><g id="g22" fill="#1b1f21" fill-opacity="1"/><g id="g24" fill="#1b1f21" fill-opacity="1"/><g id="g26" fill="#1b1f21" fill-opacity="1"/><g id="g28" fill="#1b1f21" fill-opacity="1"/><g id="g30" fill="#1b1f21" fill-opacity="1"/><g id="g32" fill="#1b1f21" fill-opacity="1"/><g id="g34" fill="#1b1f21" fill-opacity="1"/><g id="g36" fill="#1b1f21" fill-opacity="1"/><g id="g1182" transform="translate(131.26512,78.461363)" fill="#1b1f21" fill-opacity="1"><g id="g14-6" fill="#1b1f21" fill-opacity="1"/><g id="g16-7" fill="#1b1f21" fill-opacity="1"/><g id="g18-5" fill="#1b1f21" fill-opacity="1"/><g id="g20-3" fill="#1b1f21" fill-opacity="1"/><g id="g22-5" fill="#1b1f21" fill-opacity="1"/><g id="g24-6" fill="#1b1f21" fill-opacity="1"/><g id="g26-2" fill="#1b1f21" fill-opacity="1"/><g id="g28-9" fill="#1b1f21" fill-opacity="1"/><g id="g30-1" fill="#1b1f21" fill-opacity="1"/><g id="g32-27" fill="#1b1f21" fill-opacity="1"/><g id="g34-09" fill="#1b1f21" fill-opacity="1"/><g id="g36-3" fill="#1b1f21" fill-opacity="1"/><g id="g38" fill="#1b1f21" fill-opacity="1"/><g id="g40" fill="#1b1f21" fill-opacity="1"/><g id="g42" fill="#1b1f21" fill-opacity="1"/><g id="g541" transform="translate(26.047449,-8.0026715)" fill="#1b1f21" fill-opacity="1"><g id="g20-6" fill="#1b1f21" fill-opacity="1"/><g id="g22-7" fill="#1b1f21" fill-opacity="1"/><g id="g24-5" fill="#1b1f21" fill-opacity="1"/><g id="g26-3" fill="#1b1f21" fill-opacity="1"/><g id="g28-5" fill="#1b1f21" fill-opacity="1"/><g id="g30-6" fill="#1b1f21" fill-opacity="1"/><g id="g32-2" fill="#1b1f21" fill-opacity="1"/><g id="g34-9" fill="#1b1f21" fill-opacity="1"/><g id="g36-1" fill="#1b1f21" fill-opacity="1"/><g id="g38-2" fill="#1b1f21" fill-opacity="1"/><g id="g40-7" fill="#1b1f21" fill-opacity="1"/><g id="g42-0" fill="#1b1f21" fill-opacity="1"/><g id="g44" fill="#1b1f21" fill-opacity="1"/><g id="g46" fill="#1b1f21" fill-opacity="1"/><g id="g48" fill="#1b1f21" fill-opacity="1"/><g id="g319" transform="translate(-157.31257,-70.458691)" fill="#1b1f21" fill-opacity="1"><g id="g949" fill="#1b1f21" fill-opacity="1"><path d="M 0,0 H 512 V 512 H 0 Z" fill="#1b1f21" fill-opacity="1" id="path902"/><g id="g1524" transform="matrix(0.65299367,0.65095314,-0.65095314,0.65299367,760.96027,405.16803)" fill="#1b1f21" fill-opacity="1"><g class="" id="g1513" fill="#1b1f21" fill-opacity="1"/></g><g id="g1741" transform="matrix(0.73148951,-0.72519164,0.72519164,0.73148951,174.72172,-127.52936)" fill="#1b1f21" fill-opacity="1"><g class="" id="g1730" fill="#1b1f21" fill-opacity="1"/></g></g><g id="g10-6" fill="#1b1f21" fill-opacity="1"/><g id="g12-7" fill="#1b1f21" fill-opacity="1"/><g id="g14-9" fill="#1b1f21" fill-opacity="1"/><g id="g16-5" fill="#1b1f21" fill-opacity="1"/><g id="g18-3" fill="#1b1f21" fill-opacity="1"/><g id="g20-5" fill="#1b1f21" fill-opacity="1"/><g id="g22-6" fill="#1b1f21" fill-opacity="1"/><g id="g24-2" fill="#1b1f21" fill-opacity="1"/><g id="g26-9" fill="#1b1f21" fill-opacity="1"/><g id="g28-1" fill="#1b1f21" fill-opacity="1"/><g id="g30-2" fill="#1b1f21" fill-opacity="1"/><g id="g32-7" fill="#1b1f21" fill-opacity="1"/><g id="g34-0" fill="#1b1f21" fill-opacity="1"/><g id="g36-9" fill="#1b1f21" fill-opacity="1"/><g id="g38-3" fill="#1b1f21" fill-opacity="1"/></g></g></g><g id="g1551" transform="matrix(0.51222721,0,0,0.51222721,124.85437,126.07888)" fill="#1b1f21" fill-opacity="1"><g id="g1478" fill="#1b1f21" fill-opacity="1"><g id="g1476" fill="#1b1f21" fill-opacity="1"/></g><g id="g1484" fill="#1b1f21" fill-opacity="1"><g id="g1482" fill="#1b1f21" fill-opacity="1"/></g><g id="g1490" fill="#1b1f21" fill-opacity="1"><g id="g1488" fill="#1b1f21" fill-opacity="1"/></g><g id="g1492" fill="#1b1f21" fill-opacity="1"/><g id="g1494" fill="#1b1f21" fill-opacity="1"/><g id="g1496" fill="#1b1f21" fill-opacity="1"/><g id="g1498" fill="#1b1f21" fill-opacity="1"/><g id="g1500" fill="#1b1f21" fill-opacity="1"/><g id="g1502" fill="#1b1f21" fill-opacity="1"/><g id="g1504" fill="#1b1f21" fill-opacity="1"/><g id="g1506" fill="#1b1f21" fill-opacity="1"/><g id="g1508" fill="#1b1f21" fill-opacity="1"/><g id="g1510" fill="#1b1f21" fill-opacity="1"/><g id="g1512" fill="#1b1f21" fill-opacity="1"/><g id="g1514" fill="#1b1f21" fill-opacity="1"/><g id="g1516" fill="#1b1f21" fill-opacity="1"/><g id="g1518" fill="#1b1f21" fill-opacity="1"/><g id="g1520" fill="#1b1f21" fill-opacity="1"/></g></g><path id="path2" d="M 333.42969 7.1855469 L 253.22266 7.2539062 L 253.2207 7.2539062 L 175.58398 7.1894531 C 175.58398 7.1894531 186.92841 87.591797 253.4043 87.591797 C 321.56617 87.591797 333.42969 7.1855469 333.42969 7.1855469 z M 156.67188 106.63672 C 102.00178 106.63672 58.109375 150.52718 58.109375 205.19727 L 58.109375 446.20703 C 58.109375 465.07206 73.124736 480.85742 92.759766 480.85742 C 112.3948 480.85742 127.41016 465.84206 127.41016 446.20703 L 127.41016 224.83203 C 127.41016 219.44202 132.03186 214.82227 137.42188 214.82227 C 142.81189 214.82227 147.42969 219.44202 147.42969 224.83203 L 147.42969 498.23242 L 245.99023 498.23242 L 245.99023 481.62695 C 245.99023 476.23695 250.61194 471.61719 256.00195 471.61719 C 261.39195 471.61719 266.00977 476.23695 266.00977 481.62695 L 266.00977 498.23242 L 364.56836 498.23242 L 364.56836 224.83203 C 364.56836 219.44202 369.19008 214.82227 374.58008 214.82227 C 379.97009 214.82227 384.58984 219.44202 384.58984 224.83203 L 384.58984 446.5918 C 384.58984 465.45683 399.6052 481.24219 419.24023 481.24219 C 438.87526 481.24219 453.89062 466.22683 453.89062 446.5918 L 453.89062 205.19727 C 452.35061 150.52718 407.3061 106.63672 353.79102 106.63672 L 156.67188 106.63672 z M 175.45508 142.25 A 9.051701 9.051701 0 0 1 181.94922 144.99219 L 248.96094 212.00391 L 248.96094 251.45312 L 263.03906 251.45312 L 263.03906 212.00391 L 330.05078 144.99219 A 9.051701 9.051701 0 0 1 336.27344 142.25391 A 9.051701 9.051701 0 0 1 342.84961 157.79102 L 301.80273 198.83984 L 309.11523 206.15234 L 346.14062 169.12695 A 9.051701 9.051701 0 0 1 352.36328 166.38867 A 9.051701 9.051701 0 0 1 358.94141 181.92773 L 310.66992 230.19727 A 9.051701 9.051701 0 1 1 297.86914 217.39648 L 302.71484 212.55078 L 295.40234 205.23828 L 281.14062 219.5 L 281.14062 360.56445 A 9.051701 9.051701 0 1 1 263.03906 360.56445 L 263.03906 260.50391 L 248.96094 260.50391 L 248.96094 360.56445 A 9.051701 9.051701 0 1 1 230.85938 360.56445 L 230.85938 219.5 L 216.59766 205.23828 L 209.28516 212.55078 L 214.12891 217.39648 A 9.051701 9.051701 0 1 1 201.33008 230.19727 L 153.05859 181.92773 A 9.051701 9.051701 0 0 1 159.36523 166.38477 A 9.051701 9.051701 0 0 1 165.85938 169.12695 L 202.88477 206.15234 L 210.19727 198.83984 L 169.15039 157.79102 A 9.051701 9.051701 0 0 1 175.45508 142.25 z" transform="translate(-421,153)" fill="#e64539" stroke-width="3.85001" fill-opacity="1" filter="url(#filter1066)"/><g id="g2623" transform="matrix(0.3880947,0,0,0.3880947,-267.37744,341.84037)"/><g id="g366" transform="matrix(0.64942552,0,0,0.64942552,-256.69109,316.54748)"><g id="g309"><g id="g307"/></g><g id="g311"/><g id="g313"/><g id="g315"/><g id="g317"/><g id="g319-3"/><g id="g321"/><g id="g323"/><g id="g325"/><g id="g327"/><g id="g329"/><g id="g331"/><g id="g333"/><g id="g335"/><g id="g337"/><g id="g339"/></g><g id="g314" transform="matrix(0.35542189,0,0,0.35542189,-255.98765,318.01253)"><g id="g249"><g id="g247"/></g><g id="g255"><g id="g253"/></g><g id="g257"/><g id="g259"/><g id="g261"/><g id="g263"/><g id="g265"/><g id="g267"/><g id="g269"/><g id="g271"/><g id="g273"/><g id="g275"/><g id="g277"/><g id="g279"/><g id="g281"/><g id="g283"/><g id="g285"/></g></svg>