<svg version="1.1" id="Capa_1" x="0px" y="0px" width="512" height="512" viewBox="0 0 512.00001 512.00001" xml:space="preserve" sodipodi:docname="quick_change_mount.svg" inkscape:version="1.1.1 (3bf5ae0d25, 2021-09-20)" xmlns:inkscape="http://www.inkscape.org/namespaces/inkscape" xmlns:sodipodi="http://sodipodi.sourceforge.net/DTD/sodipodi-0.dtd" xmlns="http://www.w3.org/2000/svg" xmlns:svg="http://www.w3.org/2000/svg"><defs id="defs40"><filter inkscape:label="Drop Shadow" id="filter1097" x="-0.18715565" y="-0.18918669" width="1.3643736" height="1.3683517" color-interpolation-filters="sRGB"><feFlood flood-opacity="1" flood-color="rgb(58,63,94)" result="flood" id="feFlood1087"/><feComposite in="flood" in2="SourceGraphic" operator="out" result="composite1" id="feComposite1089"/><feGaussianBlur in="composite1" stdDeviation="15" result="blur" id="feGaussianBlur1091"/><feOffset dx="0" dy="0" result="offset" id="feOffset1093"/><feComposite in="offset" in2="SourceGraphic" operator="atop" result="composite2" id="feComposite1095"/></filter><filter inkscape:label="Drop Shadow" id="filter1129" x="-0.075141571" y="-0.07596716" width="1.1502831" height="1.1519343" color-interpolation-filters="sRGB"><feFlood flood-opacity="1" flood-color="rgb(58,63,94)" result="flood" id="feFlood1119"/><feComposite in="flood" in2="SourceGraphic" operator="out" result="composite1" id="feComposite1121"/><feGaussianBlur in="composite1" stdDeviation="12.7202" result="blur" id="feGaussianBlur1123"/><feOffset dx="0" dy="0" result="offset" id="feOffset1125"/><feComposite in="offset" in2="SourceGraphic" operator="atop" result="composite2" id="feComposite1127"/></filter></defs><sodipodi:namedview id="namedview38" pagecolor="#505050" bordercolor="#eeeeee" borderopacity="1" inkscape:pageshadow="0" inkscape:pageopacity="0" inkscape:pagecheckerboard="0" showgrid="false" showguides="true" inkscape:guide-bbox="true" inkscape:zoom="0.92520568" inkscape:cx="339.92442" inkscape:cy="155.10065" inkscape:window-width="1716" inkscape:window-height="1414" inkscape:window-x="3160" inkscape:window-y="587" inkscape:window-maximized="1" inkscape:current-layer="g5"/><g id="g5" transform="matrix(1.1551802,0,0,1.1551802,-17.36047,-61.694481)"><g id="g1914" transform="matrix(0.86566581,0,0,0.86566581,379.47367,-79.040067)" fill="#1b1f21" fill-opacity="1"><g id="g439" transform="translate(-421,153)" fill="#1b1f21" fill-opacity="1"><g id="g8" fill="#1b1f21" fill-opacity="1"/><g id="g10" fill="#1b1f21" fill-opacity="1"/><g id="g12" fill="#1b1f21" fill-opacity="1"/><g id="g14" fill="#1b1f21" fill-opacity="1"/><g id="g16" fill="#1b1f21" fill-opacity="1"/><g id="g18" fill="#1b1f21" fill-opacity="1"/><g id="g20" fill="#1b1f21" fill-opacity="1"/><g id="g22" fill="#1b1f21" fill-opacity="1"/><g id="g24" fill="#1b1f21" fill-opacity="1"/><g id="g26" fill="#1b1f21" fill-opacity="1"/><g id="g28" fill="#1b1f21" fill-opacity="1"/><g id="g30" fill="#1b1f21" fill-opacity="1"/><g id="g32" fill="#1b1f21" fill-opacity="1"/><g id="g34" fill="#1b1f21" fill-opacity="1"/><g id="g36" fill="#1b1f21" fill-opacity="1"/><g id="g1182" transform="translate(131.26512,78.461363)" fill="#1b1f21" fill-opacity="1"><g id="g14-6" fill="#1b1f21" fill-opacity="1"/><g id="g16-7" fill="#1b1f21" fill-opacity="1"/><g id="g18-5" fill="#1b1f21" fill-opacity="1"/><g id="g20-3" fill="#1b1f21" fill-opacity="1"/><g id="g22-5" fill="#1b1f21" fill-opacity="1"/><g id="g24-6" fill="#1b1f21" fill-opacity="1"/><g id="g26-2" fill="#1b1f21" fill-opacity="1"/><g id="g28-9" fill="#1b1f21" fill-opacity="1"/><g id="g30-1" fill="#1b1f21" fill-opacity="1"/><g id="g32-27" fill="#1b1f21" fill-opacity="1"/><g id="g34-09" fill="#1b1f21" fill-opacity="1"/><g id="g36-3" fill="#1b1f21" fill-opacity="1"/><g id="g38" fill="#1b1f21" fill-opacity="1"/><g id="g40" fill="#1b1f21" fill-opacity="1"/><g id="g42" fill="#1b1f21" fill-opacity="1"/><g id="g541" transform="translate(26.047449,-8.0026715)" fill="#1b1f21" fill-opacity="1"><g id="g20-6" fill="#1b1f21" fill-opacity="1"/><g id="g22-7" fill="#1b1f21" fill-opacity="1"/><g id="g24-5" fill="#1b1f21" fill-opacity="1"/><g id="g26-3" fill="#1b1f21" fill-opacity="1"/><g id="g28-5" fill="#1b1f21" fill-opacity="1"/><g id="g30-6" fill="#1b1f21" fill-opacity="1"/><g id="g32-2" fill="#1b1f21" fill-opacity="1"/><g id="g34-9" fill="#1b1f21" fill-opacity="1"/><g id="g36-1" fill="#1b1f21" fill-opacity="1"/><g id="g38-2" fill="#1b1f21" fill-opacity="1"/><g id="g40-7" fill="#1b1f21" fill-opacity="1"/><g id="g42-0" fill="#1b1f21" fill-opacity="1"/><g id="g44" fill="#1b1f21" fill-opacity="1"/><g id="g46" fill="#1b1f21" fill-opacity="1"/><g id="g48" fill="#1b1f21" fill-opacity="1"/><g id="g319" transform="translate(-157.31257,-70.458691)" fill="#1b1f21" fill-opacity="1"><g id="g949" fill="#1b1f21" fill-opacity="1"><path d="M 0,0 H 512 V 512 H 0 Z" fill="#1b1f21" fill-opacity="1" id="path902"/><g id="g1524" transform="matrix(0.65299367,0.65095314,-0.65095314,0.65299367,760.96027,405.16803)" fill="#1b1f21" fill-opacity="1"><g class="" id="g1513" fill="#1b1f21" fill-opacity="1"/></g><g id="g1741" transform="matrix(0.73148951,-0.72519164,0.72519164,0.73148951,174.72172,-127.52936)" fill="#1b1f21" fill-opacity="1"><g class="" id="g1730" fill="#1b1f21" fill-opacity="1"/></g></g><g id="g10-6" fill="#1b1f21" fill-opacity="1"/><g id="g12-7" fill="#1b1f21" fill-opacity="1"/><g id="g14-9" fill="#1b1f21" fill-opacity="1"/><g id="g16-5" fill="#1b1f21" fill-opacity="1"/><g id="g18-3" fill="#1b1f21" fill-opacity="1"/><g id="g20-5" fill="#1b1f21" fill-opacity="1"/><g id="g22-6" fill="#1b1f21" fill-opacity="1"/><g id="g24-2" fill="#1b1f21" fill-opacity="1"/><g id="g26-9" fill="#1b1f21" fill-opacity="1"/><g id="g28-1" fill="#1b1f21" fill-opacity="1"/><g id="g30-2" fill="#1b1f21" fill-opacity="1"/><g id="g32-7" fill="#1b1f21" fill-opacity="1"/><g id="g34-0" fill="#1b1f21" fill-opacity="1"/><g id="g36-9" fill="#1b1f21" fill-opacity="1"/><g id="g38-3" fill="#1b1f21" fill-opacity="1"/></g></g></g><g id="g1551" transform="matrix(0.51222721,0,0,0.51222721,124.85437,126.07888)" fill="#1b1f21" fill-opacity="1"><g id="g1478" fill="#1b1f21" fill-opacity="1"><g id="g1476" fill="#1b1f21" fill-opacity="1"/></g><g id="g1484" fill="#1b1f21" fill-opacity="1"><g id="g1482" fill="#1b1f21" fill-opacity="1"/></g><g id="g1490" fill="#1b1f21" fill-opacity="1"><g id="g1488" fill="#1b1f21" fill-opacity="1"/></g><g id="g1492" fill="#1b1f21" fill-opacity="1"/><g id="g1494" fill="#1b1f21" fill-opacity="1"/><g id="g1496" fill="#1b1f21" fill-opacity="1"/><g id="g1498" fill="#1b1f21" fill-opacity="1"/><g id="g1500" fill="#1b1f21" fill-opacity="1"/><g id="g1502" fill="#1b1f21" fill-opacity="1"/><g id="g1504" fill="#1b1f21" fill-opacity="1"/><g id="g1506" fill="#1b1f21" fill-opacity="1"/><g id="g1508" fill="#1b1f21" fill-opacity="1"/><g id="g1510" fill="#1b1f21" fill-opacity="1"/><g id="g1512" fill="#1b1f21" fill-opacity="1"/><g id="g1514" fill="#1b1f21" fill-opacity="1"/><g id="g1516" fill="#1b1f21" fill-opacity="1"/><g id="g1518" fill="#1b1f21" fill-opacity="1"/><g id="g1520" fill="#1b1f21" fill-opacity="1"/></g></g><g id="g2623" transform="matrix(0.3880947,0,0,0.3880947,-267.37744,341.84037)" fill="#1b1f21" fill-opacity="1"/><g id="g366" transform="matrix(0.64942552,0,0,0.64942552,-256.69109,316.54748)" fill="#1b1f21" fill-opacity="1"><g id="g309" fill="#1b1f21" fill-opacity="1"><g id="g307" fill="#1b1f21" fill-opacity="1"/></g><g id="g311" fill="#1b1f21" fill-opacity="1"/><g id="g313" fill="#1b1f21" fill-opacity="1"/><g id="g315" fill="#1b1f21" fill-opacity="1"/><g id="g317" fill="#1b1f21" fill-opacity="1"/><g id="g319-3" fill="#1b1f21" fill-opacity="1"/><g id="g321" fill="#1b1f21" fill-opacity="1"/><g id="g323" fill="#1b1f21" fill-opacity="1"/><g id="g325" fill="#1b1f21" fill-opacity="1"/><g id="g327" fill="#1b1f21" fill-opacity="1"/><g id="g329" fill="#1b1f21" fill-opacity="1"/><g id="g331" fill="#1b1f21" fill-opacity="1"/><g id="g333" fill="#1b1f21" fill-opacity="1"/><g id="g335" fill="#1b1f21" fill-opacity="1"/><g id="g337" fill="#1b1f21" fill-opacity="1"/><g id="g339" fill="#1b1f21" fill-opacity="1"/></g><g id="g314" transform="matrix(0.35542189,0,0,0.35542189,-255.98765,318.01253)" fill="#1b1f21" fill-opacity="1"><g id="g249" fill="#1b1f21" fill-opacity="1"><g id="g247" fill="#1b1f21" fill-opacity="1"/></g><g id="g255" fill="#1b1f21" fill-opacity="1"><g id="g253" fill="#1b1f21" fill-opacity="1"/></g><g id="g257" fill="#1b1f21" fill-opacity="1"/><g id="g259" fill="#1b1f21" fill-opacity="1"/><g id="g261" fill="#1b1f21" fill-opacity="1"/><g id="g263" fill="#1b1f21" fill-opacity="1"/><g id="g265" fill="#1b1f21" fill-opacity="1"/><g id="g267" fill="#1b1f21" fill-opacity="1"/><g id="g269" fill="#1b1f21" fill-opacity="1"/><g id="g271" fill="#1b1f21" fill-opacity="1"/><g id="g273" fill="#1b1f21" fill-opacity="1"/><g id="g275" fill="#1b1f21" fill-opacity="1"/><g id="g277" fill="#1b1f21" fill-opacity="1"/><g id="g279" fill="#1b1f21" fill-opacity="1"/><g id="g281" fill="#1b1f21" fill-opacity="1"/><g id="g283" fill="#1b1f21" fill-opacity="1"/><g id="g285" fill="#1b1f21" fill-opacity="1"/></g></g><g id="_x35_1_20_" fill="#e64539" fill-opacity="1" filter="url(#filter1129)"><path id="path2" d="M 204.21875 19.078125 C 209.36825 46.309703 237.7448 64.491408 250.91797 70.570312 C 271.77706 80.197591 331.37247 94.905319 352.98242 57.162109 C 358.74677 71.931088 354.85692 194.78071 320.79297 226.01562 C 303.53227 209.55893 278.61688 199.22656 250.91797 199.22656 C 228.17363 199.22656 207.3161 206.19265 191.02344 217.79297 C 169.51514 183.27156 128.82236 159.96289 82.123047 159.96289 C 59.732189 159.96289 38.731281 165.34499 20.542969 174.72852 L 20.542969 186.79688 C 20.527949 186.79285 20.476575 186.7832 20.476562 186.7832 L 20.476562 483.27344 C 20.476562 483.27344 106.89209 487.74366 113.80469 387.91992 C 113.80269 387.91392 113.80078 387.90814 113.80078 387.90234 C 134.82275 418.43029 201.80079 441.66692 243.07422 440.29688 C 307.90409 438.14701 394.04839 435.30537 467.02344 365.34766 C 473.76738 358.63721 479.17693 350.71118 482.85156 341.94336 L 482.85156 341.93945 C 509.73551 286.01481 452.28218 102.18417 418.73242 19.078125 L 204.21875 19.078125 z M 222.55664 214.80859 C 223.92031 214.80859 225.29721 215.21622 226.49414 216.06445 L 236.7832 223.35156 C 250.60882 233.14428 267.00478 238.33398 283.91406 238.33398 C 284.44403 238.33398 284.97324 238.32874 285.50391 238.31836 C 285.63259 238.31628 285.76068 238.31445 285.88867 238.31445 C 289.88629 238.31445 293.92305 239.50952 297.43359 241.99609 C 306.45142 248.38274 308.58265 260.87154 302.19531 269.88867 C 298.29594 275.39457 292.12128 278.33008 285.85156 278.33008 C 285.34096 278.33008 284.83091 278.31092 284.32031 278.27148 C 287.06081 284.49623 286.56069 291.96374 282.34375 297.91797 C 278.44368 303.42386 272.27041 306.36133 266 306.36133 C 262.001 306.36133 257.96241 305.16696 254.45117 302.67969 C 250.82785 300.11354 248.31654 296.56177 247.02344 292.64648 C 241.55975 276.10735 230.95204 261.72168 216.73828 251.6543 L 206.44922 244.36719 C 203.37386 242.18849 202.64691 237.93014 204.82422 234.85547 L 216.98438 217.68945 C 218.31415 215.81241 220.41877 214.80859 222.55664 214.80859 z M 283.64648 243.69531 C 280.78007 243.69531 278.45703 246.01835 278.45703 248.88477 C 278.45703 251.75118 280.78007 254.07422 283.64648 254.07422 C 286.75298 254.07422 289.28125 256.60054 289.28125 259.70703 C 289.28125 262.57344 291.60234 264.89453 294.46875 264.89453 C 297.33516 264.89453 299.6582 262.57344 299.6582 259.70703 C 299.6582 250.87809 292.47543 243.69531 283.64648 243.69531 z M 315.19922 266.30859 C 329.3604 271.72593 339.45312 285.78078 339.45312 302.27148 C 339.45312 307.06129 338.59438 311.64308 337.03906 315.87109 C 332.07006 312.32872 326.00008 310.23633 319.44531 310.23633 C 313.24824 310.23633 307.2654 312.16546 302.27148 315.58398 C 297.27688 312.16546 291.29404 310.23633 285.09766 310.23633 C 284.98834 310.23633 284.8808 310.24276 284.77148 310.24414 C 287.05465 308.45497 289.09874 306.33422 290.8125 303.91406 C 294.39085 298.86203 296.27468 292.87242 296.375 286.82617 C 302.06216 284.72773 307.07672 280.94994 310.66406 275.88477 C 312.75489 272.93325 314.27488 269.69737 315.19922 266.30859 z M 285.09766 320.61328 C 292.39411 320.61328 298.77616 324.52094 302.27148 330.35547 C 305.76681 324.52094 312.14955 320.61328 319.44531 320.61328 C 330.49585 320.61328 339.45312 329.57056 339.45312 340.62109 C 339.45312 345.06151 338.00573 349.16422 335.55859 352.48242 C 325.21999 366.50038 319.61133 383.47282 319.61133 400.89062 L 319.61133 413.49805 C 319.61133 417.26597 316.55698 420.32031 312.78906 420.32031 L 291.75195 420.32031 C 287.98403 420.32031 284.92969 417.26597 284.92969 413.49805 L 284.92969 400.89062 C 284.92969 383.41678 279.35423 366.54466 268.98242 352.48242 C 266.53459 349.16422 265.08789 345.06151 265.08789 340.62109 C 265.08927 329.57125 274.04712 320.61328 285.09766 320.61328 z" transform="matrix(0.86566581,0,0,0.86566581,15.028365,53.406803)" fill="#e64539" stroke-width="1.15518" fill-opacity="1"/></g><g id="g2328" transform="matrix(0.86566581,0,0,0.86566581,149.00753,-16.731636)"><g id="g32-0"/><g id="g2654" transform="matrix(0.58211695,0,0,0.58211695,-47.792018,248.6898)"><g id="g24-61" transform="matrix(0.82192313,0,0,0.82192313,45.587679,45.587677)" fill="#000000"><g id="g22-8" fill="#000000"/></g><g id="g2618"><g id="g6" transform="matrix(0.82192313,0,0,0.82192313,45.587679,45.587677)" fill="#000000"><g id="g4" fill="#000000"/></g><g id="g12-3" transform="matrix(0.82192313,0,0,0.82192313,45.587679,45.587677)" fill="#000000"><g id="g10-60" fill="#000000"/></g><g id="g18-6" transform="matrix(0.82192313,0,0,0.82192313,45.587679,45.587677)" fill="#000000"><g id="g16-2" fill="#000000"/></g><g id="g30-7" transform="matrix(0.82192313,0,0,0.82192313,45.587679,45.587677)" fill="#000000"><g id="g28-92" fill="#000000"/></g></g></g><g id="g34-2"/><g id="g36-37"/><g id="g38-5"/><g id="g40-9"/><g id="g42-2"/><g id="g44-2"/><g id="g46-8"/><g id="g48-9"/><g id="g50"/><g id="g52"/><g id="g54"/><g id="g56"/><g id="g58"/><g id="g60"/></g><g id="g388" transform="matrix(-0.59892743,0,0,0.59892743,339.01915,239.35962)"><g id="g332"/><g id="g334"/><g id="g336"/><g id="g338"/><g id="g340"/><g id="g342"/><g id="g344"/><g id="g346"/><g id="g348"/><g id="g350"/><g id="g352"/><g id="g354"/><g id="g356"/><g id="g358"/><g id="g360"/><g id="g362"/></g></g><g id="g7"/><g id="g9"/><g id="g11"/><g id="g13"/><g id="g15"/><g id="g17"/><g id="g19"/><g id="g21"/><g id="g23"/><g id="g25"/><g id="g27"/><g id="g29"/><g id="g31"/><g id="g33"/><g id="g35"/></svg>