<svg version="1.1" id="Capa_1" x="0px" y="0px" width="512" height="512" viewBox="0 0 512.00001 512.00001" xml:space="preserve" sodipodi:docname="shoulder_cam.svg" inkscape:version="1.1.1 (3bf5ae0d25, 2021-09-20)" xmlns:inkscape="http://www.inkscape.org/namespaces/inkscape" xmlns:sodipodi="http://sodipodi.sourceforge.net/DTD/sodipodi-0.dtd" xmlns="http://www.w3.org/2000/svg" xmlns:svg="http://www.w3.org/2000/svg"><defs id="defs40"><filter inkscape:label="Drop Shadow" id="filter1061" x="-0.18715567" y="-0.1891867" width="1.3643736" height="1.3683517" color-interpolation-filters="sRGB"><feFlood flood-opacity="1" flood-color="rgb(58,63,94)" result="flood" id="feFlood1051"/><feComposite in="flood" in2="SourceGraphic" operator="out" result="composite1" id="feComposite1053"/><feGaussianBlur in="composite1" stdDeviation="15" result="blur" id="feGaussianBlur1055"/><feOffset dx="0" dy="0" result="offset" id="feOffset1057"/><feComposite in="offset" in2="SourceGraphic" operator="atop" result="composite2" id="feComposite1059"/></filter></defs><sodipodi:namedview id="namedview38" pagecolor="#505050" bordercolor="#eeeeee" borderopacity="1" inkscape:pageshadow="0" inkscape:pageopacity="0" inkscape:pagecheckerboard="0" showgrid="false" showguides="true" inkscape:guide-bbox="true" inkscape:zoom="0.92520568" inkscape:cx="339.92442" inkscape:cy="155.10065" inkscape:window-width="1716" inkscape:window-height="1414" inkscape:window-x="3160" inkscape:window-y="587" inkscape:window-maximized="1" inkscape:current-layer="g5"/><g id="g5" transform="matrix(1.1551802,0,0,1.1551802,-17.36047,-61.694481)"><g id="g1914" transform="matrix(0.86566581,0,0,0.86566581,379.47367,-79.040067)" fill="#1b1f21" fill-opacity="1"><g id="g439" transform="translate(-421,153)" fill="#1b1f21" fill-opacity="1"><g id="g8" fill="#1b1f21" fill-opacity="1"/><g id="g10" fill="#1b1f21" fill-opacity="1"/><g id="g12" fill="#1b1f21" fill-opacity="1"/><g id="g14" fill="#1b1f21" fill-opacity="1"/><g id="g16" fill="#1b1f21" fill-opacity="1"/><g id="g18" fill="#1b1f21" fill-opacity="1"/><g id="g20" fill="#1b1f21" fill-opacity="1"/><g id="g22" fill="#1b1f21" fill-opacity="1"/><g id="g24" fill="#1b1f21" fill-opacity="1"/><g id="g26" fill="#1b1f21" fill-opacity="1"/><g id="g28" fill="#1b1f21" fill-opacity="1"/><g id="g30" fill="#1b1f21" fill-opacity="1"/><g id="g32" fill="#1b1f21" fill-opacity="1"/><g id="g34" fill="#1b1f21" fill-opacity="1"/><g id="g36" fill="#1b1f21" fill-opacity="1"/><g id="g1182" transform="translate(131.26512,78.461363)" fill="#1b1f21" fill-opacity="1"><g id="g14-6" fill="#1b1f21" fill-opacity="1"/><g id="g16-7" fill="#1b1f21" fill-opacity="1"/><g id="g18-5" fill="#1b1f21" fill-opacity="1"/><g id="g20-3" fill="#1b1f21" fill-opacity="1"/><g id="g22-5" fill="#1b1f21" fill-opacity="1"/><g id="g24-6" fill="#1b1f21" fill-opacity="1"/><g id="g26-2" fill="#1b1f21" fill-opacity="1"/><g id="g28-9" fill="#1b1f21" fill-opacity="1"/><g id="g30-1" fill="#1b1f21" fill-opacity="1"/><g id="g32-27" fill="#1b1f21" fill-opacity="1"/><g id="g34-09" fill="#1b1f21" fill-opacity="1"/><g id="g36-3" fill="#1b1f21" fill-opacity="1"/><g id="g38" fill="#1b1f21" fill-opacity="1"/><g id="g40" fill="#1b1f21" fill-opacity="1"/><g id="g42" fill="#1b1f21" fill-opacity="1"/><g id="g541" transform="translate(26.047449,-8.0026715)" fill="#1b1f21" fill-opacity="1"><g id="g20-6" fill="#1b1f21" fill-opacity="1"/><g id="g22-7" fill="#1b1f21" fill-opacity="1"/><g id="g24-5" fill="#1b1f21" fill-opacity="1"/><g id="g26-3" fill="#1b1f21" fill-opacity="1"/><g id="g28-5" fill="#1b1f21" fill-opacity="1"/><g id="g30-6" fill="#1b1f21" fill-opacity="1"/><g id="g32-2" fill="#1b1f21" fill-opacity="1"/><g id="g34-9" fill="#1b1f21" fill-opacity="1"/><g id="g36-1" fill="#1b1f21" fill-opacity="1"/><g id="g38-2" fill="#1b1f21" fill-opacity="1"/><g id="g40-7" fill="#1b1f21" fill-opacity="1"/><g id="g42-0" fill="#1b1f21" fill-opacity="1"/><g id="g44" fill="#1b1f21" fill-opacity="1"/><g id="g46" fill="#1b1f21" fill-opacity="1"/><g id="g48" fill="#1b1f21" fill-opacity="1"/><g id="g319" transform="translate(-157.31257,-70.458691)" fill="#1b1f21" fill-opacity="1"><g id="g949" fill="#1b1f21" fill-opacity="1"><path d="M 0,0 H 512 V 512 H 0 Z" fill="#1b1f21" fill-opacity="1" id="path902"/><g id="g1524" transform="matrix(0.65299367,0.65095314,-0.65095314,0.65299367,760.96027,405.16803)" fill="#1b1f21" fill-opacity="1"><g class="" id="g1513" fill="#1b1f21" fill-opacity="1"/></g><g id="g1741" transform="matrix(0.73148951,-0.72519164,0.72519164,0.73148951,174.72172,-127.52936)" fill="#1b1f21" fill-opacity="1"><g class="" id="g1730" fill="#1b1f21" fill-opacity="1"/></g></g><g id="g10-6" fill="#1b1f21" fill-opacity="1"/><g id="g12-7" fill="#1b1f21" fill-opacity="1"/><g id="g14-9" fill="#1b1f21" fill-opacity="1"/><g id="g16-5" fill="#1b1f21" fill-opacity="1"/><g id="g18-3" fill="#1b1f21" fill-opacity="1"/><g id="g20-5" fill="#1b1f21" fill-opacity="1"/><g id="g22-6" fill="#1b1f21" fill-opacity="1"/><g id="g24-2" fill="#1b1f21" fill-opacity="1"/><g id="g26-9" fill="#1b1f21" fill-opacity="1"/><g id="g28-1" fill="#1b1f21" fill-opacity="1"/><g id="g30-2" fill="#1b1f21" fill-opacity="1"/><g id="g32-7" fill="#1b1f21" fill-opacity="1"/><g id="g34-0" fill="#1b1f21" fill-opacity="1"/><g id="g36-9" fill="#1b1f21" fill-opacity="1"/><g id="g38-3" fill="#1b1f21" fill-opacity="1"/></g></g></g><g id="g1551" transform="matrix(0.51222721,0,0,0.51222721,124.85437,126.07888)" fill="#1b1f21" fill-opacity="1"><g id="g1478" fill="#1b1f21" fill-opacity="1"><g id="g1476" fill="#1b1f21" fill-opacity="1"/></g><g id="g1484" fill="#1b1f21" fill-opacity="1"><g id="g1482" fill="#1b1f21" fill-opacity="1"/></g><g id="g1490" fill="#1b1f21" fill-opacity="1"><g id="g1488" fill="#1b1f21" fill-opacity="1"/></g><g id="g1492" fill="#1b1f21" fill-opacity="1"/><g id="g1494" fill="#1b1f21" fill-opacity="1"/><g id="g1496" fill="#1b1f21" fill-opacity="1"/><g id="g1498" fill="#1b1f21" fill-opacity="1"/><g id="g1500" fill="#1b1f21" fill-opacity="1"/><g id="g1502" fill="#1b1f21" fill-opacity="1"/><g id="g1504" fill="#1b1f21" fill-opacity="1"/><g id="g1506" fill="#1b1f21" fill-opacity="1"/><g id="g1508" fill="#1b1f21" fill-opacity="1"/><g id="g1510" fill="#1b1f21" fill-opacity="1"/><g id="g1512" fill="#1b1f21" fill-opacity="1"/><g id="g1514" fill="#1b1f21" fill-opacity="1"/><g id="g1516" fill="#1b1f21" fill-opacity="1"/><g id="g1518" fill="#1b1f21" fill-opacity="1"/><g id="g1520" fill="#1b1f21" fill-opacity="1"/></g></g><g id="g2623" transform="matrix(0.3880947,0,0,0.3880947,-267.37744,341.84037)" fill="#1b1f21" fill-opacity="1"/><g id="g366" transform="matrix(0.64942552,0,0,0.64942552,-256.69109,316.54748)" fill="#1b1f21" fill-opacity="1"><g id="g309" fill="#1b1f21" fill-opacity="1"><g id="g307" fill="#1b1f21" fill-opacity="1"/></g><g id="g311" fill="#1b1f21" fill-opacity="1"/><g id="g313" fill="#1b1f21" fill-opacity="1"/><g id="g315" fill="#1b1f21" fill-opacity="1"/><g id="g317" fill="#1b1f21" fill-opacity="1"/><g id="g319-3" fill="#1b1f21" fill-opacity="1"/><g id="g321" fill="#1b1f21" fill-opacity="1"/><g id="g323" fill="#1b1f21" fill-opacity="1"/><g id="g325" fill="#1b1f21" fill-opacity="1"/><g id="g327" fill="#1b1f21" fill-opacity="1"/><g id="g329" fill="#1b1f21" fill-opacity="1"/><g id="g331" fill="#1b1f21" fill-opacity="1"/><g id="g333" fill="#1b1f21" fill-opacity="1"/><g id="g335" fill="#1b1f21" fill-opacity="1"/><g id="g337" fill="#1b1f21" fill-opacity="1"/><g id="g339" fill="#1b1f21" fill-opacity="1"/></g><g id="g314" transform="matrix(0.35542189,0,0,0.35542189,-255.98765,318.01253)" fill="#1b1f21" fill-opacity="1"><g id="g249" fill="#1b1f21" fill-opacity="1"><g id="g247" fill="#1b1f21" fill-opacity="1"/></g><g id="g255" fill="#1b1f21" fill-opacity="1"><g id="g253" fill="#1b1f21" fill-opacity="1"/></g><g id="g257" fill="#1b1f21" fill-opacity="1"/><g id="g259" fill="#1b1f21" fill-opacity="1"/><g id="g261" fill="#1b1f21" fill-opacity="1"/><g id="g263" fill="#1b1f21" fill-opacity="1"/><g id="g265" fill="#1b1f21" fill-opacity="1"/><g id="g267" fill="#1b1f21" fill-opacity="1"/><g id="g269" fill="#1b1f21" fill-opacity="1"/><g id="g271" fill="#1b1f21" fill-opacity="1"/><g id="g273" fill="#1b1f21" fill-opacity="1"/><g id="g275" fill="#1b1f21" fill-opacity="1"/><g id="g277" fill="#1b1f21" fill-opacity="1"/><g id="g279" fill="#1b1f21" fill-opacity="1"/><g id="g281" fill="#1b1f21" fill-opacity="1"/><g id="g283" fill="#1b1f21" fill-opacity="1"/><g id="g285" fill="#1b1f21" fill-opacity="1"/></g></g><g id="_x35_1_20_" fill="#e64539" fill-opacity="1" filter="url(#filter1061)"><path id="path2" d="m 204.21875,19.078125 c 5.1495,27.231578 33.52605,45.413283 46.69922,51.492187 20.85909,9.627278 80.4545,24.335006 102.06445,-13.408203 5.76435,14.768979 1.8745,137.618601 -32.18945,168.853511 -17.2607,-16.45669 -42.17609,-26.78906 -69.875,-26.78906 -22.74434,0 -43.60187,6.96609 -59.89453,18.56641 -21.5083,-34.52141 -62.20108,-57.83008 -108.900393,-57.83008 -22.390858,0 -43.391766,5.3821 -61.580078,14.76563 v 12.06836 c -0.01502,-0.004 -0.06639,-0.0137 -0.06641,-0.0137 v 296.49024 c 0,0 86.415528,4.47022 93.328128,-95.35352 -0.002,-0.006 -0.004,-0.0118 -0.004,-0.0176 21.02197,30.52795 88.00001,53.76458 129.27344,52.39454 64.82987,-2.14986 150.97417,-4.99151 223.94922,-74.94922 6.74394,-6.71045 12.15349,-14.63648 15.82812,-23.4043 v -0.004 C 509.73551,286.01481 452.28218,102.18417 418.73242,19.078125 Z m 26.13874,212.173635 h 37.05469 c 5.0045,0 9.06054,4.05604 9.06054,9.06054 v 2.73633 c 14.71667,9.22054 24.52344,25.58093 24.52344,44.19141 0,11.88722 -4.0025,22.85479 -10.72851,31.63281 v 17.50195 h 6.11718 v -0.57617 c 0,-14.13897 11.46174,-25.60156 25.59961,-25.60156 h 54.91016 c 14.13897,0 25.59961,11.46259 25.59961,25.60156 v 33.92578 c 0,14.13898 -11.46064,25.60157 -25.59961,25.60157 h -54.91016 c -14.13787,0 -25.59961,-11.46259 -25.59961,-25.60157 v -0.57421 h -6.11718 v 15.9375 c 0,13.29642 -10.7792,24.07617 -24.07618,24.07617 h -34.61328 c -13.29698,0 -24.07617,-10.7792 -24.07617,-24.07617 v -66.21485 c -6.72601,-8.77802 -10.73047,-19.74504 -10.73047,-31.63281 0,-18.61048 9.80872,-34.97087 24.52539,-44.19141 v -2.73633 c 0,-5.0045 4.05604,-9.06054 9.06055,-9.06054 z m 18.52734,25.94531 c -16.56508,0 -30.04297,13.47789 -30.04297,30.04297 0,16.56508 13.47789,30.04101 30.04297,30.04101 16.56564,0 30.04157,-13.47593 30.04102,-30.04101 0,-16.56508 -13.47593,-30.04297 -30.04102,-30.04297 z m -10.28906,12.2168 c 0.11697,3.01208 4.67486,5.43359 10.28906,5.43359 5.61476,0 10.17209,-2.42151 10.28907,-5.43359 5.41998,3.42094 9.02288,9.45713 9.02343,16.33984 0,10.66617 -8.64578,19.3125 -19.3125,19.3125 -10.66671,0 -19.3125,-8.64633 -19.3125,-19.3125 0,-6.88271 3.60345,-12.9189 9.02344,-16.33984 z m 134.77539,57.15039 c -6.09479,0 -11.03516,4.94036 -11.03516,11.03515 v 30.1211 c 0,6.09479 4.94037,11.03515 11.03516,11.03515 6.0948,0 11.03516,-4.94036 11.03516,-11.03515 v -30.1211 c 0,-6.09479 -4.94036,-11.03515 -11.03516,-11.03515 z m -144.73242,44.09961 c -4.16472,0 -7.54102,3.37629 -7.54102,7.54101 0,4.16472 3.3763,7.54102 7.54102,7.54102 h 8.46094 c 4.16472,0 7.54101,-3.37575 7.54101,-7.54102 0,-4.16417 -3.37629,-7.54101 -7.54101,-7.54101 z" transform="matrix(0.86566581,0,0,0.86566581,15.028365,53.406803)" sodipodi:nodetypes="ccccscsccccccccccccssscscccssssssssccsssscscssssscscsccsscssssssssssssss" fill="#e64539" stroke-width="1.15518" fill-opacity="1"/></g><g id="g2328" transform="matrix(0.86566581,0,0,0.86566581,149.00753,-16.731636)"><g id="g32-0"/><g id="g2654" transform="matrix(0.58211695,0,0,0.58211695,-47.792018,248.6898)"><g id="g24-61" transform="matrix(0.82192313,0,0,0.82192313,45.587679,45.587677)" fill="#000000"><g id="g22-8" fill="#000000"/></g><g id="g2618"><g id="g6" transform="matrix(0.82192313,0,0,0.82192313,45.587679,45.587677)" fill="#000000"><g id="g4" fill="#000000"/></g><g id="g12-3" transform="matrix(0.82192313,0,0,0.82192313,45.587679,45.587677)" fill="#000000"><g id="g10-60" fill="#000000"/></g><g id="g18-6" transform="matrix(0.82192313,0,0,0.82192313,45.587679,45.587677)" fill="#000000"><g id="g16-2" fill="#000000"/></g><g id="g30-7" transform="matrix(0.82192313,0,0,0.82192313,45.587679,45.587677)" fill="#000000"><g id="g28-92" fill="#000000"/></g></g></g><g id="g34-2"/><g id="g36-37"/><g id="g38-5"/><g id="g40-9"/><g id="g42-2"/><g id="g44-2"/><g id="g46-8"/><g id="g48-9"/><g id="g50"/><g id="g52"/><g id="g54"/><g id="g56"/><g id="g58"/><g id="g60"/></g><g id="g442" transform="matrix(0.86566581,0,0,0.86566581,168.61232,271.55039)"><g id="g8-6"/><g id="g10-7"/><g id="g12-53"/><g id="g14-5"/><g id="g16-6"/><g id="g18-2"/><g id="g20-9"/><g id="g22-1"/><g id="g24-27"/><g id="g26-09"/><g id="g28-3"/><g id="g30-60"/><g id="g32-62"/><g id="g34-6"/><g id="g36-18"/><g id="g6-9" transform="matrix(0.5517648,0,0,0.5517648,-24.278241,-33.501536)" fill="#000000"/></g></g><g id="g7"/><g id="g9"/><g id="g11"/><g id="g13"/><g id="g15"/><g id="g17"/><g id="g19"/><g id="g21"/><g id="g23"/><g id="g25"/><g id="g27"/><g id="g29"/><g id="g31"/><g id="g33"/><g id="g35"/></svg>